<svg width="228" height="220" viewBox="0 0 228 220" fill="none" xmlns="http://www.w3.org/2000/svg">
<mask id="mask0_69_2496" style="mask-type:luminance" maskUnits="userSpaceOnUse" x="0" y="0" width="228" height="220">
<path d="M228 0H0V219.744H228V0Z" fill="white"/>
</mask>
<g mask="url(#mask0_69_2496)">
<path d="M202.067 94.1004C195.656 105.49 183.731 114.981 183.842 128.046C183.943 140.957 196.154 151.307 196.579 164.208C196.891 173.63 190.566 182.289 182.575 187.289C174.585 192.289 165.115 194.272 155.841 195.91C146.085 197.639 136.069 199.086 126.328 197.294C116.593 195.502 107.049 189.908 102.929 180.899L108.226 186.949C104.058 179.139 95.31 174.712 86.593 173.142C77.8813 171.573 68.9416 172.384 60.0867 172.389C51.2318 172.4 42.0164 171.483 34.4394 166.907C24.0733 160.645 18.5483 148.508 16.6554 136.54C13.7603 118.247 18.2354 98.8937 28.8613 83.7237C39.4925 68.5485 56.1471 57.7317 74.3234 54.1951C83.8411 52.3446 93.6663 52.4135 103.125 50.3138C124.875 45.478 144.102 29.3802 166.366 30.2392C180.963 30.8012 194.999 39.4016 202.135 52.1537C209.257 64.9111 209.235 81.3695 202.067 94.1004Z" fill="#EEF4FF"/>
<path d="M146.275 7.88994L146.159 94.3815C146.154 98.5438 142.776 101.911 138.614 101.905L14.1314 102.012C9.9691 102.006 6.60213 98.6286 6.60743 94.4663L6.72408 7.97477C6.72938 3.81775 10.107 0.445471 14.2693 0.450773L138.752 0.344727C142.909 0.350029 146.281 3.72761 146.275 7.88994Z" fill="#E1E5FF"/>
<path d="M10.8016 30.955L10.7168 93.3793C10.7168 95.5903 12.509 97.3878 14.7201 97.3825L130.963 97.2818C133.169 97.2818 134.956 95.4896 134.961 93.2838L135.045 31.1034C135.045 28.8924 133.258 27.1002 131.047 27.1002L14.8049 26.957C12.5991 26.957 10.8069 28.7492 10.8016 30.955Z" fill="#CCD2FF"/>
<path d="M14.5086 26.9462L14.4238 89.3705C14.4238 91.5815 16.2159 93.379 18.427 93.3737L134.67 93.273C136.876 93.273 138.663 91.4808 138.668 89.275L138.753 27.0946C138.753 24.8836 136.966 23.0914 134.755 23.0914L18.5118 22.9482C16.3061 22.9482 14.5086 24.7351 14.5086 26.9462Z" fill="white"/>
<path d="M146.265 15.3816L146.275 7.88408C146.281 3.72175 142.908 0.34417 138.751 0.338867L14.2687 0.444914C10.1064 0.444914 6.7288 3.81719 6.7235 7.97952L6.71289 15.477L146.265 15.3816Z" fill="black"/>
<path d="M24.7778 9.1616C24.5127 10.2327 23.431 10.8795 22.3546 10.6091C21.2888 10.344 20.642 9.25704 20.9071 8.18597C21.1722 7.1149 22.2592 6.47332 23.3302 6.73843C24.4066 7.01415 25.0482 8.09583 24.7778 9.1616Z" fill="white"/>
<path d="M16.8832 9.17265C16.6181 10.2384 15.5365 10.8853 14.4601 10.6202C13.3943 10.3551 12.7474 9.26809 13.0125 8.19702C13.283 7.12065 14.3699 6.48437 15.4357 6.74949C16.5121 7.01461 17.159 8.09628 16.8832 9.17265Z" fill="white"/>
<path d="M32.6726 9.15739C32.4075 10.2285 31.3258 10.8754 30.2494 10.6102C29.1784 10.3398 28.5368 9.25283 28.8019 8.18706C29.067 7.11069 30.154 6.4691 31.2251 6.73952C32.2961 7.00993 32.943 8.09162 32.6726 9.15739Z" fill="white"/>
<path d="M137.834 7.28012H130.103C129.913 7.28012 129.759 7.12636 129.759 6.93547C129.759 6.74459 129.913 6.59082 130.103 6.59082H137.834C138.025 6.59082 138.179 6.74459 138.179 6.93547C138.179 7.12636 138.025 7.28012 137.834 7.28012Z" fill="white"/>
<path d="M52.6734 37.3873L52.737 37.8592V37.9652C52.737 38.9409 50.0647 44.6462 44.7252 55.0864V55.2561L54.333 54.9539C54.333 52.9019 54.1899 49.2539 53.9036 44.0152C53.9036 41.8783 57.1009 41.0512 57.8644 43.5645C58.1825 48.5487 58.3363 52.2868 58.3363 54.7842H58.506L60.0118 54.6569C62.2441 54.6569 63.3629 58.7291 59.0415 58.7291L58.4583 58.7928C58.4636 59.4556 58.4423 56.3855 58.5007 65.2987C58.0818 67.9923 55.4041 67.9393 54.561 65.9456C54.3914 64.9912 54.4762 63.3315 54.455 58.9677L41.7029 59.4609C39.0836 58.8352 38.9987 56.8415 40.3243 54.5085L49.1315 36.7828C50.2396 35.5898 51.9523 35.558 52.6734 37.3873Z" fill="#E1E5FF"/>
<path d="M77.4824 36.0078H78.1293C84.0679 36.0078 89.4763 41.098 89.4763 51.0399C89.4763 62.8058 83.3786 67.212 77.8271 67.212H76.5545C70.7591 67.212 65.3984 62.9012 65.3984 51.6391C65.3984 41.3632 71.2363 36.0078 77.4824 36.0078ZM69.407 51.6868C69.407 58.8184 72.196 63.2087 77.1166 63.2087H77.7847C83.9141 63.2087 85.473 57.1482 85.473 51.0399C85.473 45.6792 83.3309 40.0111 78.0233 40.0111H77.5938C71.8567 40.0164 69.407 45.9762 69.407 51.6868Z" fill="#E1E5FF"/>
<path d="M103.974 35.9648H104.382C106.042 35.9648 106.126 37.9214 106.148 37.9691C106.148 38.9447 103.475 44.65 98.1358 55.0903V55.26L107.744 54.9578C107.744 52.9058 107.6 49.2578 107.314 44.0191C107.314 41.8822 110.511 41.0551 111.275 43.5684C111.593 48.5526 111.747 52.2907 111.747 54.7881H111.917C112.675 54.8888 114.499 53.8708 115.363 56.2727C115.273 56.506 115.957 58.7277 112.457 58.7277L111.874 58.7913C111.879 59.4541 111.858 56.3841 111.917 65.2973C111.498 67.9909 108.82 67.9379 107.977 65.9442C107.903 65.5412 107.871 64.9049 107.871 64.0247V58.9663L95.1187 59.4594C92.51 58.8338 92.4305 56.8136 93.7401 54.5071L102.547 36.7814C103.051 36.2406 103.528 35.9648 103.974 35.9648Z" fill="#E1E5FF"/>
<path d="M50.9175 35.8226L50.9812 36.2945V36.4006C50.9812 37.3762 48.3088 43.0815 42.9693 53.5218V53.6915L52.5772 53.3892C52.5772 51.3372 52.434 47.6892 52.1477 42.4505C52.1477 40.3137 55.345 39.4865 56.1085 41.9998C56.4266 46.984 56.5804 50.7222 56.5804 53.2196H56.7501L58.2559 53.0923C60.4882 53.0923 61.607 57.1645 57.2856 57.1645L56.7024 57.2281C56.7077 57.8909 56.6865 54.8209 56.7448 63.7341C56.3259 66.4277 53.6482 66.3746 52.8052 64.381C52.6355 63.4265 52.7203 61.7669 52.6991 57.4031L39.947 57.8962C37.3277 57.2705 37.2428 55.2769 38.5684 52.9438L47.3756 35.2182C48.4838 34.0251 50.1964 33.988 50.9175 35.8226Z" fill="black"/>
<path d="M75.7284 34.4434H76.3753C82.3139 34.4434 87.7223 39.5336 87.7223 49.4755C87.7223 61.2413 81.6246 65.6475 76.0731 65.6475H74.8005C69.0051 65.6475 63.6445 61.3368 63.6445 50.0746C63.6445 39.7934 69.4876 34.4434 75.7284 34.4434ZM67.653 50.1223C67.653 57.254 70.442 61.6443 75.3626 61.6443H76.0307C82.1602 61.6443 83.7191 55.5837 83.7191 49.4755C83.7191 44.1148 81.5769 38.4466 76.2693 38.4466H75.8398C70.108 38.4466 67.653 44.4117 67.653 50.1223Z" fill="black"/>
<path d="M102.218 34.3965H102.627C104.286 34.3965 104.371 36.3531 104.392 36.4008C104.392 37.3764 101.72 43.0817 96.3809 53.522V53.6917L105.988 53.3894C105.988 51.3374 105.845 47.6894 105.559 42.4507C105.559 40.3139 108.756 39.4867 109.52 42C109.838 46.9842 109.991 50.7224 109.991 53.2198H110.161C110.919 53.3205 112.743 52.3024 113.608 54.7044C113.518 54.9377 114.202 57.1594 110.702 57.1594L110.119 57.223C110.124 57.8858 110.103 54.8158 110.161 63.729C109.742 66.4225 107.065 66.3695 106.222 64.3758C106.147 63.9729 106.115 63.3366 106.115 62.4564V57.398L93.3639 57.8911C90.7551 57.2654 90.6756 55.2452 91.9853 52.9387L100.797 35.2184C101.301 34.6722 101.773 34.3965 102.218 34.3965Z" fill="black"/>
<path d="M51.9732 72.5781C52.3655 72.6471 52.5617 72.8379 52.5617 73.1455C52.5617 73.3788 52.4186 73.5484 52.1375 73.6598L50.006 73.7605L48.6804 73.8613L48.691 76.0352C50.1121 75.9027 51.0665 75.8391 51.549 75.8391C51.7717 75.8391 51.9308 75.9769 52.0368 76.2579L52.0527 76.3905C52.0527 76.6291 51.9149 76.8041 51.6444 76.9048L48.7016 77.1169L48.7335 80.0809L48.7706 80.1021C49.2266 80.1021 50.3295 80.0332 52.0845 79.89C52.3549 79.89 52.5246 80.0703 52.5989 80.4309C52.5989 80.6854 52.461 80.8604 52.18 80.9558C50.7112 81.1202 49.4387 81.205 48.3676 81.205L48.2297 81.2209C47.8639 81.152 47.6783 80.9664 47.6783 80.6695C47.6306 78.3205 47.6094 76.5178 47.6094 75.2558C47.6094 73.7924 47.6412 73.0606 47.7048 73.0606C47.8215 72.8751 48.0813 72.7796 48.4789 72.7796C49.6508 72.6471 50.7802 72.5781 51.883 72.5781H51.9732Z" fill="#FC6054"/>
<path d="M54.0688 74.874H54.1536C54.371 74.874 54.5301 75.0278 54.6414 75.33L54.8429 76.2367C55.1504 75.733 55.5428 75.3671 56.02 75.1444C56.3594 74.9801 56.704 74.9005 57.0434 74.9005C57.1759 74.9005 57.3085 74.9111 57.441 74.9377C57.7274 74.9377 57.9235 75.0861 58.0243 75.3777L58.0402 75.5103C58.0402 75.6429 57.9766 75.7701 57.844 75.9027C57.7327 76.0193 57.5153 76.0723 57.1918 76.0723C56.0995 76.1784 55.3625 76.6715 54.9755 77.5517L54.9277 80.8975C54.8376 81.1891 54.6467 81.3376 54.3551 81.3376C54.1006 81.3376 53.9203 81.1997 53.8195 80.9293L53.8036 80.8338L53.8195 79.1106C53.8195 77.9017 53.7241 76.6662 53.5332 75.4096C53.6021 75.049 53.7771 74.874 54.0688 74.874Z" fill="#FC6054"/>
<path d="M59.5238 74.874H59.6086C59.826 74.874 59.9851 75.0278 60.0965 75.33L60.2979 76.2367C60.6055 75.733 60.9979 75.3671 61.4751 75.1444C61.8144 74.9801 62.1591 74.9005 62.4984 74.9005C62.631 74.9005 62.7635 74.9111 62.8961 74.9377C63.1824 74.9377 63.3786 75.0861 63.4793 75.3777L63.4952 75.5103C63.4952 75.6429 63.4316 75.7701 63.2991 75.9027C63.1877 76.0193 62.9703 76.0723 62.6469 76.0723C61.5546 76.1784 60.8176 76.6715 60.4305 77.5517L60.3828 80.8975C60.2926 81.1891 60.1018 81.3376 59.8101 81.3376C59.5556 81.3376 59.3753 81.1997 59.2746 80.9293L59.2587 80.8338L59.2746 79.1106C59.2746 77.9017 59.1792 76.6662 58.9883 75.4096C59.0519 75.049 59.2322 74.874 59.5238 74.874Z" fill="#FC6054"/>
<path d="M67.6538 74.9268C68.6241 74.9268 69.3824 75.4253 69.9179 76.4221C70.1724 76.9576 70.2997 77.4879 70.2997 78.0022V78.3362C70.2997 79.577 69.6952 80.4943 68.4916 81.0935C68.0674 81.2737 67.6485 81.3586 67.2402 81.3586C66.1904 81.3586 65.3685 80.8283 64.7746 79.7679C64.5572 79.2482 64.4512 78.7445 64.4512 78.2514V78.087C64.4512 77.1008 64.8171 76.2842 65.5541 75.6374C66.1692 75.1601 66.8744 74.9268 67.6538 74.9268ZM65.5488 78.1029V78.2514C65.5488 79.1316 65.9199 79.7679 66.6623 80.1549C66.8903 80.2239 67.0865 80.2557 67.2561 80.2557C67.956 80.2557 68.5287 79.9269 68.9688 79.2642C69.1172 78.9672 69.1915 78.6226 69.1915 78.2302V78.0817C69.1915 77.2387 68.8892 76.6024 68.2795 76.1835C68.0674 76.0881 67.8924 76.0403 67.7545 76.0403H67.6061C66.6835 76.0403 66.0472 76.4433 65.6972 77.2546C65.5965 77.5462 65.5488 77.8272 65.5488 78.1029Z" fill="#FC6054"/>
<path d="M71.7777 74.874H71.8626C72.08 74.874 72.239 75.0278 72.3504 75.33L72.5519 76.2367C72.8594 75.733 73.2518 75.3671 73.729 75.1444C74.0683 74.9801 74.413 74.9005 74.7523 74.9005C74.8849 74.9005 75.0174 74.9111 75.15 74.9377C75.4363 74.9377 75.6325 75.0861 75.7333 75.3777L75.7492 75.5103C75.7492 75.6429 75.6855 75.7701 75.553 75.9027C75.4416 76.0193 75.2242 76.0723 74.9008 76.0723C73.8085 76.1784 73.0715 76.6715 72.6844 77.5517L72.6367 80.8975C72.5466 81.1891 72.3557 81.3376 72.064 81.3376C71.8095 81.3376 71.6293 81.1997 71.5285 80.9293L71.5126 80.8338L71.5285 79.1106C71.5285 77.9017 71.4331 76.6662 71.2422 75.4096C71.3058 75.049 71.4808 74.874 71.7777 74.874Z" fill="#FC6054"/>
<path d="M82.9764 72.5625C84.0209 72.5625 84.8799 72.9125 85.5427 73.6177C85.8343 73.9782 85.9828 74.3918 85.9828 74.8584C85.9828 75.5901 85.6434 76.184 84.97 76.64C84.2967 77.096 83.093 77.324 81.3698 77.324C81.3751 77.5467 81.3751 77.7694 81.3751 77.9815C81.3751 78.9677 81.3592 79.8426 81.322 80.6167C81.322 80.9932 81.1365 81.2053 80.7653 81.253C80.4472 81.253 80.2775 81.078 80.2563 80.7281C80.251 79.6623 80.251 78.2466 80.251 76.4703V76.1045C80.251 74.0949 80.2934 73.0927 80.3835 73.0927C80.3835 73.0026 80.5002 72.9019 80.7335 72.7958C81.5129 72.6367 82.2606 72.5625 82.9764 72.5625ZM81.391 73.8191L81.3539 76.2211C82.6794 76.2211 83.6127 76.0939 84.1429 75.8393C84.636 75.6007 84.8852 75.2879 84.8852 74.8955C84.8852 74.869 84.8852 74.8372 84.8799 74.8054V74.7683C84.8799 74.2486 84.3815 73.8881 83.3793 73.676L82.9393 73.6601C82.3931 73.6601 81.8735 73.6972 81.3857 73.7767V73.8191H81.391Z" fill="#FC6054"/>
<path d="M92.112 76.1939C92.2021 78.5216 92.3771 80.0168 92.6316 80.6796V80.7379C92.6316 81.0137 92.4885 81.1993 92.2074 81.2894L92.0802 81.3053C91.7302 81.3053 91.5075 80.9925 91.4068 80.3721C91.3962 80.3721 91.375 80.2926 91.3538 80.1282C91.0621 80.5046 90.7811 80.7486 90.5054 80.8705C90.0865 81.0932 89.657 81.2046 89.2222 81.2046H89.0579C88.0716 81.2046 87.4141 80.7327 87.0801 79.7941C86.9794 79.476 86.9316 79.1526 86.9316 78.8291C86.9316 77.4717 87.3293 76.3688 88.13 75.5258C88.5913 75.144 89.1109 74.9531 89.6782 74.9531C90.1183 74.9531 90.6273 75.038 91.2 75.2023C91.7673 75.3667 92.0749 75.7007 92.112 76.1939ZM88.0345 78.8503C88.0345 79.301 88.1565 79.651 88.3951 79.9002C88.57 80.038 88.7927 80.107 89.0579 80.107H89.2063C89.8797 80.107 90.5213 79.7146 91.1258 78.9352C91.0727 77.7368 91.0409 76.8885 91.0409 76.39H91.0038C90.5213 76.1673 90.0812 76.056 89.6835 76.056C88.8829 76.056 88.3474 76.7082 88.0663 78.0179L88.0345 78.8503Z" fill="#FC6054"/>
<path d="M99.3504 80.2877V81.083C99.3504 82.0268 99.1542 82.7745 98.7566 83.3153C98.2528 84.0205 97.4734 84.3758 96.4076 84.3758C95.4532 84.3758 94.7427 84.1849 94.2655 83.8031C94.0269 83.5592 93.9049 83.3418 93.9049 83.1562C93.9049 83.135 93.9102 83.1138 93.9155 83.0873C93.9473 82.8911 94.0534 82.7638 94.2284 82.6949C94.2814 82.6737 94.3397 82.6631 94.3927 82.6631C94.5094 82.6631 94.6313 82.7055 94.7586 82.7957C94.9548 82.9388 95.1404 83.0555 95.3313 83.1403C95.5168 83.2305 95.8774 83.2729 96.4023 83.2729C97.1393 83.2729 97.6431 83.0025 97.9029 82.4669C98.1256 82.1647 98.2422 81.7087 98.2422 81.0989V80.1763H98.1786C97.6643 80.8656 97.0015 81.2103 96.1902 81.2103H95.9887C95.029 81.2103 94.3185 80.7596 93.8625 79.8529C93.6716 79.4128 93.5762 78.9515 93.5762 78.4637C93.5762 76.9631 94.0587 75.9398 95.0237 75.4042C95.4638 75.1762 95.9675 75.0596 96.5349 75.0596C96.6674 75.0596 96.8106 75.0649 96.9538 75.0755C97.6855 75.1444 98.2104 75.277 98.5233 75.4625C98.8414 75.6481 99.0164 75.7754 99.0535 75.8443C99.0906 75.9132 99.1489 76.4435 99.2232 77.4456C99.3133 78.4478 99.3504 79.3969 99.3504 80.2877ZM94.6844 78.5008C94.6844 79.2643 94.9601 79.7733 95.5221 80.0225C95.6865 80.0756 95.8721 80.1074 96.0789 80.1074H96.1955C97.0386 80.0809 97.6855 79.6037 98.1362 78.6705C98.0885 77.9122 98.0513 77.1646 98.0195 76.4223C97.6961 76.2314 97.2666 76.1359 96.7258 76.1359C96.222 76.1359 95.7554 76.2844 95.3313 76.576C94.9018 76.9525 94.6844 77.5888 94.6844 78.5008Z" fill="#FC6054"/>
<path d="M103.332 75.0273C104.44 75.0273 105.166 75.5151 105.5 76.4855C105.601 76.7771 105.649 77.0846 105.649 77.4028V77.8482C105.649 78.1716 105.432 78.3572 104.991 78.4049C104.101 78.5375 103.268 78.6064 102.489 78.6064L101.418 78.5905V78.7549C101.418 79.1207 101.518 79.4336 101.72 79.6881C102.038 80.0274 102.415 80.1971 102.839 80.1971C103.417 80.1971 103.851 80.1282 104.154 79.985C104.451 79.8418 104.737 79.7517 105.013 79.7199C105.315 79.7411 105.463 79.932 105.463 80.2872C105.379 80.6266 105.092 80.8811 104.599 81.0508C104.106 81.2204 103.512 81.3053 102.828 81.3053C102.006 81.3053 101.328 80.9606 100.797 80.2766C100.469 79.7729 100.304 79.073 100.304 78.1769C100.416 76.1885 101.428 75.144 103.332 75.0273ZM101.534 77.5459L102.494 77.5618C103.167 77.5618 103.851 77.5088 104.535 77.4081V77.3657C104.535 76.512 104.154 76.0772 103.395 76.0666C102.383 76.1037 101.762 76.5756 101.534 77.4717V77.5459Z" fill="#FC6054"/>
<path d="M155.745 203.959L157.257 209.681L144.08 211.977L143.571 203.959H155.745Z" fill="#FCBBA4"/>
<path d="M112.282 197.099L106.609 211.95L120.527 213.44L123.735 200.375L112.282 197.099Z" fill="#FCBBA4"/>
<path d="M118.348 143.974L132.001 199.988C132.897 203.689 136.307 206.218 140.108 206.017L146.954 205.651L156.397 205.147C161.752 204.861 165.279 199.447 163.37 194.431L145.22 146.79L173.9 138.942L154.096 121.164L147.67 122.802L127.982 127.823C120.866 129.637 116.566 136.858 118.348 143.974Z" fill="#212335"/>
<path d="M135.75 158.927C137.897 166.005 140.973 172.808 144.875 179.102C147.431 183.222 150.474 187.862 149.175 192.538C148.528 194.855 146.869 196.791 146.232 199.108C145.633 201.282 146.015 203.572 146.954 205.651L156.397 205.147C161.752 204.861 165.278 199.447 163.37 194.431L145.22 146.79L173.9 138.942L154.096 121.164L147.669 122.802C149.743 124.35 151.169 126.392 150.702 129.743C150.14 133.788 146.741 136.784 143.449 139.202C140.156 141.615 136.534 144.101 135.119 147.93C133.825 151.44 134.663 155.353 135.75 158.927Z" fill="black"/>
<path d="M205.646 162.729H152.813C149.202 162.729 146.275 165.655 146.275 169.266V212.851C146.275 216.462 149.202 219.389 152.813 219.389H159.027" fill="white"/>
<path d="M106.593 201.706C107.467 202.438 108.512 202.989 109.7 203.307L127.744 208.111C132.346 209.336 137.017 206.361 137.85 201.669L143.852 167.819C144.388 164.807 146.927 162.564 149.976 162.405C167.447 161.498 188.042 165.751 191.679 155.067L179.653 133.104L164.664 135.872L135.564 141.244C130.209 142.23 125.676 145.761 123.401 150.708L104.392 192.04C102.801 195.518 103.867 199.442 106.593 201.706Z" fill="#212335"/>
<path d="M106.592 201.706C107.467 202.438 108.512 202.989 109.699 203.307L127.743 208.111C132.346 209.336 137.017 206.361 137.849 201.669L143.852 167.819C144.387 164.807 146.927 162.564 149.976 162.405C167.447 161.498 188.041 165.751 191.679 155.067L179.653 133.104L164.663 135.872C163.847 137.776 163.714 139.95 164.568 142.055C165.496 144.356 167.548 146.201 169.966 146.816C171.344 147.166 172.792 147.14 174.17 147.495C175.544 147.85 176.933 148.725 177.267 150.104C177.787 152.246 175.581 154.049 173.518 154.807C169.096 156.424 164.213 156.064 159.563 155.342C154.912 154.621 150.246 153.55 145.548 153.826C140.851 154.102 135.957 155.968 133.358 159.897C131.025 163.439 130.93 168.004 131.524 172.209C132.118 176.409 133.321 180.555 133.284 184.797C133.247 189.039 131.672 193.604 128.03 195.783C124.588 197.846 120.267 197.31 116.253 197.39C112.568 197.464 108.31 198.588 106.592 201.706Z" fill="black"/>
<path d="M154.096 121.163C162.649 136.986 183.911 139.106 191.684 155.072C191.684 155.072 203.079 142.309 211.361 130.644C211.436 130.543 211.504 130.437 211.579 130.336C215.773 124.393 219.119 118.772 219.707 115.299C220.651 109.663 217.189 104.562 212.618 100.437C212.491 100.325 212.369 100.214 212.242 100.103C212.072 99.9546 211.897 99.8061 211.727 99.6577C208.588 96.98 205.036 94.7424 202.066 93.0987C201.382 92.7169 200.73 92.367 200.12 92.0541C200.062 92.0223 199.998 91.9958 199.94 91.9587C197.262 90.6013 194.346 89.79 191.361 89.5408L191.059 89.5143C188.583 89.6257 185.062 89.3818 180.412 88.1463C180.115 88.0668 179.807 87.9819 179.494 87.8971C179.256 87.8282 179.022 87.7433 178.794 87.6426C177.983 91.3966 174.51 94.0637 167.734 95.384C167.893 95.5537 168.057 95.718 168.216 95.8877C171.297 99.0055 174.993 100.654 178.715 101.402C178.773 101.418 178.832 101.428 178.89 101.439L154.839 120.575L154.096 121.163Z" fill="#66D3D8"/>
<path d="M205.778 128.937C207.432 130.124 209.405 130.718 211.361 130.644C211.435 130.543 211.504 130.437 211.579 130.336C215.773 124.393 219.118 118.772 219.707 115.299C220.651 109.663 217.188 104.562 212.618 100.437C212.491 100.325 212.369 100.214 212.241 100.103C212.072 99.9542 211.897 99.8057 211.727 99.6572C212.469 101.688 214.585 103.692 215.391 105.288C216.478 107.43 216.854 109.986 216.637 112.446C216.425 114.901 215.645 117.272 214.574 119.419C212.554 123.486 209.447 126.842 205.778 128.937Z" fill="#47B6C3"/>
<path d="M167.729 95.3783C167.888 95.5479 168.052 95.7123 168.211 95.882C171.292 98.9997 174.987 100.649 178.71 101.396C179.595 100.919 180.412 100.315 181.212 99.705C180.3 99.9595 179.335 100.06 178.391 99.9913C177.596 99.933 176.79 99.7527 176.138 99.2914C175.491 98.8301 175.03 98.0506 175.12 97.2606C175.226 96.2903 176.09 95.5691 176.965 95.1396C177.851 94.7102 178.826 94.445 179.59 93.8353C180.38 93.2043 180.873 92.2287 181.006 91.2265C181.138 90.182 180.958 89.0155 180.401 88.1512C180.104 88.0716 179.797 87.9868 179.484 87.902C179.245 87.833 179.012 87.7482 178.784 87.6475C177.978 91.3909 174.505 94.0527 167.729 95.3783Z" fill="#47B6C3"/>
<path d="M154.096 121.163C162.649 136.986 183.911 139.107 191.684 155.072C191.684 155.072 203.281 142.086 211.579 130.342C211.552 130.22 211.526 130.103 211.499 129.981C210.958 127.601 209.808 125.416 208.392 123.438C207.188 121.768 205.428 119.069 203.44 118.295C201.435 117.51 199.134 119.377 197.432 120.214C194.956 121.418 192.416 122.478 189.818 123.385C186.838 124.424 183.789 125.257 180.693 125.872C176.567 126.694 172.262 127.139 168.179 126.132C164.526 125.236 161.26 123.247 157.93 121.508C156.975 121.01 155.872 120.538 154.844 120.58L154.096 121.163Z" fill="#47B6C3"/>
<path d="M203.111 102.552C203.928 103.141 204.877 103.544 205.863 103.703C206.197 103.756 206.542 103.782 206.881 103.782C208.922 103.782 210.858 102.807 212.061 101.158L212.613 100.437C212.486 100.325 212.364 100.214 212.236 100.103C208.97 97.223 205.195 94.8369 202.061 93.0977L201.695 93.5856C199.617 96.4488 200.253 100.474 203.111 102.552Z" fill="white"/>
<path d="M167.723 95.3787C174.499 94.0585 177.978 91.3914 178.789 87.6373C176.801 86.7678 174.982 84.668 173.37 82.001C169.499 75.617 166.8 65.9508 165.788 61.9423C165.459 60.6379 165.867 59.2328 166.906 58.3738C166.912 58.3685 166.922 58.3632 166.928 58.3579C168.089 57.3929 169.642 55.8075 168.821 55.2985C167.744 54.6357 165.295 56.8573 165.157 56.9793C165.247 56.7354 167.866 49.6727 166.477 49.1318C165.713 48.8349 164.754 51.1732 164.16 52.9124C164.796 50.7756 165.401 48.1191 164.568 47.7957C163.64 47.4351 162.399 51.046 161.906 52.6367C162.341 50.8869 162.574 49.1955 161.928 48.941C161.376 48.7236 160.708 49.9166 160.157 51.2528C160.21 50.5211 160.109 49.9802 159.764 49.8583C158.349 49.3651 156.784 54.8531 156.387 58.6018C156.323 59.2275 156.286 59.8001 156.291 60.2932C156.281 60.2879 155.347 82.2555 167.723 95.3787Z" fill="#FCBBA4"/>
<path d="M167.723 95.3784C174.499 94.0581 177.978 91.391 178.789 87.637C176.801 86.7674 174.982 84.6677 173.37 82.0006C172.628 82.1384 171.954 82.5096 171.535 83.1247C171.032 83.867 170.973 84.8426 170.475 85.5903C169.505 87.0431 167.341 87.059 165.724 86.4015C162.818 85.2085 160.782 82.4354 159.764 79.4608C158.746 76.4862 158.608 73.2942 158.513 70.1499C158.417 67.0056 158.359 63.8189 157.49 60.7966C157.277 60.049 157.002 59.296 156.487 58.7075C156.456 58.6651 156.418 58.6279 156.381 58.5908C156.318 59.2165 156.281 59.7891 156.286 60.2823C156.281 60.2876 155.347 82.2551 167.723 95.3784Z" fill="#F2A07C"/>
<path d="M205.301 78.9141L206.855 76.7826C206.871 77.0742 207.104 77.3287 207.454 77.5302C208.7 78.2354 211.473 78.3149 211.743 77.3976C211.95 77.6734 212.173 77.9385 212.417 78.193C213.122 78.93 213.997 79.561 215.015 80.0276C215.715 80.351 216.436 80.579 217.146 80.701C217.226 80.9767 217.327 81.2418 217.449 81.4963C217.39 81.5229 210.921 83.0075 210.831 88.4053C210.794 90.9027 217.38 91.8412 217.544 91.9154C220.439 93.2516 223.864 91.995 225.201 89.0999C226.017 87.3448 225.869 85.3883 224.983 83.8188C225.906 83.2832 226.675 82.472 227.152 81.438C228.356 78.8452 227.316 75.7804 224.819 74.4496C224.49 72.1589 222.809 69.932 220.238 68.739C217.104 67.2861 213.647 67.8482 211.754 69.9002C211.68 69.8524 211.605 69.8153 211.521 69.7782C209.389 68.792 206.865 69.7199 205.874 71.8514C205.359 72.9702 205.365 74.1844 205.794 75.2396C205.275 75.632 204.903 76.2099 204.787 76.9045C204.681 77.6522 204.882 78.368 205.301 78.9141Z" fill="#FFC25E"/>
<path d="M207.459 77.5359C208.705 78.2411 211.478 78.3206 211.749 77.4033C211.955 77.679 212.178 77.9442 212.422 78.1987L210.964 76.0938C210.964 76.0938 209.972 77.5677 207.459 77.5359Z" fill="#EFA130"/>
<path d="M216.977 81.7627C216.977 81.7627 213.647 85.9356 217.836 91.4023L211.669 93.2581L212.846 80.5273L216.977 81.7627Z" fill="#EFA130"/>
<path d="M205.544 74.3389C205.603 73.9624 205.714 73.5966 205.878 73.236C206.87 71.1045 209.394 70.1766 211.525 71.1628C211.61 71.1999 211.685 71.237 211.759 71.2848C213.646 69.2222 217.109 68.6707 220.242 70.1236C222.814 71.3166 224.495 73.5436 224.824 75.8342C226.398 76.6719 227.39 78.199 227.613 79.8586C227.888 77.7059 226.823 75.5319 224.824 74.4662C224.495 72.1756 222.814 69.9486 220.242 68.7556C217.109 67.3027 213.652 67.8648 211.759 69.9168C211.685 69.869 211.61 69.8319 211.525 69.7948C209.394 68.8086 206.87 69.7365 205.878 71.868C205.513 72.674 205.407 73.5276 205.544 74.3389Z" fill="#EFA130"/>
<path d="M205.651 92.213L203.578 94.949C202.247 96.7783 202.65 99.3393 204.479 100.675C205.015 101.068 205.619 101.306 206.234 101.407C207.708 101.646 209.262 101.063 210.201 99.7688L216.59 91.3646C216.542 91.3275 216.494 91.2957 216.447 91.2533C214.358 89.6466 213.583 86.7516 214.739 84.2648C214.867 83.9891 215.01 83.7346 215.174 83.4853C215.757 82.6105 216.547 81.9371 217.449 81.5023C217.327 81.2478 217.226 80.9826 217.147 80.7069C216.431 80.5797 215.72 80.357 215.015 80.0335C213.652 79.4026 212.539 78.48 211.744 77.4036C210.609 78.0133 209.209 78.0982 207.952 77.5149C207.539 77.324 207.173 77.0801 206.86 76.7832L203.907 80.8395C201.261 84.4716 202.046 89.5459 205.651 92.213Z" fill="#FCBBA4"/>
<path d="M207.136 93.263L203.774 94.6894L205.609 92.2715L207.136 93.263Z" fill="#F2A07C"/>
<path d="M214.908 93.2737L214.988 93.1676C214.94 93.1305 214.893 93.0987 214.845 93.0563C212.761 91.4497 211.982 88.5599 213.138 86.0678C213.27 85.7921 213.413 85.5323 213.572 85.2884C213.959 84.7157 214.426 84.2332 214.962 83.8408C214.882 83.9787 214.808 84.1218 214.744 84.2703C213.588 86.7571 214.362 89.6522 216.446 91.2588C216.499 91.3012 216.542 91.333 216.589 91.3701L215.142 93.279H214.908V93.2737Z" fill="#F2A07C"/>
<path d="M205.979 78.0245C206.255 78.2525 206.563 78.4487 206.897 78.6025C208.159 79.1857 209.553 79.1009 210.693 78.4911C211.483 79.5675 212.602 80.4901 213.965 81.1211C214.665 81.4445 215.381 81.6725 216.096 81.7945C216.128 81.9111 216.171 82.0278 216.213 82.1444C216.722 81.5718 216.786 81.8316 217.454 81.5081C217.332 81.2536 217.231 80.9885 217.151 80.7128C216.441 80.5855 215.725 80.3628 215.02 80.0394C213.657 79.4137 212.544 78.4858 211.748 77.4095C210.614 78.0192 209.214 78.1041 207.957 77.5208C207.544 77.3352 207.178 77.0807 206.86 76.7891L205.979 78.0245Z" fill="#F2A07C"/>
<path d="M214.962 83.8344C215.243 83.6276 215.54 83.4474 215.853 83.2989C215.784 83.1557 215.72 83.0073 215.667 82.8535C215.492 83.0497 215.328 83.2565 215.179 83.4792C215.1 83.6011 215.026 83.7178 214.962 83.8344Z" fill="#F2A07C"/>
<path d="M214.925 89.4826C214.808 89.2652 214.702 89.0372 214.612 88.8145C214.697 89.0425 214.803 89.2652 214.925 89.4826Z" fill="#F2A07C"/>
<path d="M214.58 88.7395C214.5 88.5274 214.426 88.3047 214.373 88.082C214.431 88.3047 214.495 88.5274 214.58 88.7395Z" fill="#F2A07C"/>
<path d="M214.925 89.4826C214.808 89.2652 214.702 89.0372 214.612 88.8145C214.697 89.0425 214.803 89.2652 214.925 89.4826Z" fill="#F2A07C"/>
<path d="M214.58 88.7395C214.5 88.5274 214.426 88.3047 214.373 88.082C214.431 88.3047 214.495 88.5274 214.58 88.7395Z" fill="#F2A07C"/>
<path d="M214.718 90.0388C213.965 90.7334 213.912 91.9105 214.607 92.6634C215.301 93.4163 216.478 93.4641 217.231 92.7748C217.989 92.0802 218.032 90.903 217.343 90.1501C216.648 89.3919 215.476 89.3389 214.718 90.0388Z" fill="#F2A07C"/>
<path d="M165.146 56.9844C165.146 56.9844 164.34 57.3609 163.375 58.1615L165.146 56.9844Z" fill="#FCBBA4"/>
<path d="M193.641 219.394C193.641 219.394 206.844 209.526 202.777 205.497C200.253 202.994 189.272 212.522 189.272 212.522C189.272 212.522 196.138 196.859 191.616 195.565C186.902 194.219 181.822 209.521 181.822 209.521C181.822 209.521 181.053 193.927 176.424 194.213C171.339 194.526 174.956 209.521 174.956 209.521C174.956 209.521 168.678 204.086 166.032 206.578C162.336 210.051 170.793 219.394 170.793 219.394H193.641Z" fill="#212335"/>
<path d="M191.742 210.523C190.629 214.076 189.271 217.172 189.271 217.172C189.271 217.172 200.056 207.803 202.702 210.089C203.683 208.318 203.954 206.663 202.777 205.497C201.016 203.742 195.131 207.867 191.742 210.523Z" fill="black"/>
<path d="M173.837 202.597C174.086 200.513 174.839 198.959 176.43 198.869C181.053 198.588 181.827 214.177 181.827 214.177C181.827 214.177 186.902 198.869 191.621 200.216C192.236 200.391 192.644 200.842 192.872 201.478C193.413 198.551 193.312 196.048 191.621 195.571C186.902 194.23 181.827 209.532 181.827 209.532C181.827 209.532 181.059 193.933 176.43 194.224C173.752 194.389 173.492 198.62 173.837 202.597Z" fill="black"/>
<path d="M165.698 211.61C165.793 211.473 165.905 211.351 166.032 211.223C168.678 208.742 174.961 214.171 174.961 214.171C174.961 214.171 174.367 211.701 174.001 208.752C172.135 207.358 168.042 204.691 166.032 206.573C164.77 207.777 164.929 209.649 165.698 211.61Z" fill="black"/>
<path d="M203.869 197.756C203.228 198.753 201.897 199.044 200.9 198.403C199.903 197.761 199.617 196.436 200.258 195.434C200.9 194.437 202.225 194.15 203.222 194.792C204.219 195.434 204.511 196.764 203.869 197.756Z" fill="#E1E5FF"/>
<path d="M156.853 189.002C157.579 190.131 159.08 190.455 160.204 189.728C161.328 189.007 161.652 187.506 160.931 186.377C160.209 185.253 158.709 184.93 157.585 185.651C156.455 186.382 156.132 187.878 156.853 189.002Z" fill="#E1E5FF"/>
<path d="M189.161 219.395C189.161 219.395 196.011 214.273 193.901 212.183C192.591 210.884 186.891 215.831 186.891 215.831C186.891 215.831 190.455 207.708 188.111 207.035C185.667 206.335 183.031 214.278 183.031 214.278C183.031 214.278 182.634 206.187 180.232 206.335C177.591 206.499 179.473 214.278 179.473 214.278C179.473 214.278 176.218 211.457 174.845 212.751C172.93 214.554 177.315 219.4 177.315 219.4H189.161V219.395Z" fill="#E1E5FF"/>
<path d="M188.174 214.792C187.596 216.638 186.891 218.239 186.891 218.239C186.891 218.239 192.485 213.382 193.858 214.564C194.367 213.647 194.505 212.788 193.895 212.178C192.989 211.272 189.935 213.414 188.174 214.792Z" fill="white"/>
<path d="M178.885 210.678C179.012 209.596 179.404 208.79 180.231 208.742C182.633 208.599 183.031 216.685 183.031 216.685C183.031 216.685 185.661 208.742 188.111 209.442C188.429 209.532 188.641 209.766 188.758 210.094C189.039 208.578 188.986 207.279 188.111 207.03C185.661 206.33 183.031 214.273 183.031 214.273C183.031 214.273 182.633 206.181 180.231 206.33C178.842 206.42 178.704 208.615 178.885 210.678Z" fill="white"/>
<path d="M174.664 215.354C174.712 215.285 174.77 215.221 174.839 215.153C176.212 213.864 179.473 216.68 179.473 216.68C179.473 216.68 179.166 215.396 178.975 213.869C178.01 213.143 175.884 211.759 174.839 212.74C174.182 213.366 174.261 214.336 174.664 215.354Z" fill="white"/>
<path d="M173.858 92.4042L160.226 113.661C159.749 114.408 158.752 114.626 158.009 114.143L146.938 107.043C146.191 106.566 145.973 105.569 146.456 104.827L160.088 83.5705C160.565 82.8229 161.562 82.6055 162.304 83.088L173.376 90.1878C174.118 90.665 174.335 91.6565 173.858 92.4042Z" fill="white"/>
<path d="M158.291 107.404C159.038 109.408 160.088 111.508 160.968 112.744C160.968 112.744 173.159 131.731 191.213 134.981C195.561 135.761 199.554 134.96 203.058 133.407V118.725C201.181 119.801 198.816 120.914 195.831 121.959C194.538 122.41 192.989 122.373 191.292 121.98C183.8 120.289 173.434 111.847 169.691 108.634C168.667 107.754 168.196 106.375 168.551 105.071C168.551 105.06 168.551 105.055 168.556 105.05C168.954 103.592 169.309 101.407 168.344 101.46C167.05 101.534 166.313 104.949 166.313 104.949C166.313 104.949 164.351 97.4039 162.877 97.7645C162.082 97.9607 162.644 100.421 163.158 102.187C162.448 100.076 161.414 97.5524 160.55 97.7645C159.579 98.0084 160.645 101.672 161.154 103.252C160.507 101.572 159.728 100.055 159.049 100.225C158.466 100.368 158.614 101.725 158.927 103.13C158.551 102.505 158.153 102.118 157.808 102.218C156.864 102.478 157.336 104.864 158.291 107.404Z" fill="#FCBBA4"/>
<path d="M158.291 107.404C159.038 109.409 160.088 111.508 160.968 112.744C160.968 112.744 173.158 131.731 191.213 134.982C195.561 135.761 199.553 134.96 203.058 133.407V118.725C201.181 119.801 198.816 120.915 195.831 121.959C194.537 122.41 192.989 122.373 191.292 121.98C191.197 123.375 191.515 124.801 192.278 125.984C192.989 127.076 194.081 128.295 193.551 129.494C193.047 130.623 191.494 130.713 190.264 130.565C179.081 129.202 168.694 122.378 163.004 112.654C162.209 111.291 161.477 109.849 160.358 108.73C159.775 108.152 159.054 107.68 158.291 107.404Z" fill="#F2A07C"/>
<path d="M217.619 120.639C217.619 120.639 210.222 132.124 199.087 134.754C202.443 129.775 201.351 124.07 199.087 120.692C202.327 119.298 204.633 117.856 206.229 116.62" fill="#66D3D8"/>
<path d="M108.257 164.733C106.879 167.204 104.264 168.736 101.433 168.736H98.8985L53.5106 168.731C50.6792 168.731 48.0651 167.198 46.6865 164.727C45.3079 162.257 45.3662 159.224 46.8509 156.816L70.8174 117.876C72.0263 115.914 73.9829 114.615 76.2046 114.26C76.6181 114.196 77.0423 114.159 77.4718 114.159C80.2025 114.159 82.6946 115.548 84.1315 117.881L108.093 156.822C109.572 159.24 109.636 162.267 108.257 164.733Z" fill="#E1E5FF"/>
<path d="M105.717 164.733C104.338 167.198 101.729 168.736 98.9085 168.736H98.8926L53.5047 168.731C50.6733 168.731 48.0592 167.198 46.6806 164.727C45.302 162.256 45.3604 159.223 46.845 156.816L70.8115 117.876C72.0204 115.914 73.977 114.615 76.1987 114.26C78.4204 114.62 80.3769 115.919 81.5858 117.881L105.547 156.822C107.037 159.239 107.101 162.267 105.717 164.733Z" fill="white"/>
<path d="M101.433 164.876L53.5051 164.87C51.3153 164.87 49.7299 163.174 49.5655 161.249C49.4966 160.454 49.6662 159.616 50.1435 158.847L74.1047 119.912C74.4281 119.392 74.8364 118.979 75.2977 118.677C77.0687 117.515 79.6138 117.924 80.8333 119.912L104.795 158.852C106.418 161.488 104.519 164.876 101.433 164.876Z" fill="#EFA130"/>
<path d="M94.4232 161.254L49.5655 161.249C49.4966 160.453 49.6662 159.616 50.1435 158.847L74.1047 119.912C74.4281 119.392 74.8364 118.979 75.2977 118.676L97.7902 155.231C99.4074 157.86 97.5144 161.254 94.4232 161.254Z" fill="#FFC25E"/>
<path d="M73.5488 134.466L75.6326 150.103C75.7493 150.755 76.3166 151.227 76.9794 151.227H78.814C79.4768 151.227 80.0441 150.755 80.1608 150.103L82.2393 134.466C82.3878 133.629 81.7462 132.86 80.8925 132.86H74.8903C74.0419 132.855 73.4003 133.629 73.5488 134.466Z" fill="#EFA130"/>
<path d="M75.834 155.38V154.245C75.834 153.492 76.4438 152.877 77.202 152.877H78.5912C79.3441 152.877 79.9592 153.487 79.9592 154.245V155.374C79.9592 156.127 79.3494 156.742 78.5912 156.742H77.202C76.4438 156.742 75.834 156.133 75.834 155.38Z" fill="#EFA130"/>
<path d="M72.6992 133.868L74.783 149.504C74.8996 150.157 75.467 150.628 76.1298 150.628H77.9644C78.6272 150.628 79.1945 150.157 79.3112 149.504L81.395 133.868C81.5434 133.03 80.9018 132.261 80.0482 132.261H74.0459C73.1923 132.261 72.5507 133.03 72.6992 133.868Z" fill="white"/>
<path d="M74.9854 154.78V153.651C74.9854 152.898 75.5951 152.283 76.3534 152.283H77.7426C78.4955 152.283 79.1106 152.892 79.1106 153.651V154.78C79.1106 155.533 78.5008 156.148 77.7426 156.148H76.3534C75.5951 156.143 74.9854 155.533 74.9854 154.78Z" fill="white"/>
<path d="M34.0526 209.802C34.0526 209.802 33.5913 208.535 31.3379 207.082C29.9964 206.218 28.0239 205.285 25.1288 204.521C16.1414 202.135 11.2473 211.923 2.7689 200.2C2.19095 199.399 1.71904 198.641 1.35849 197.925C-3.5939 188.131 10.7012 185.984 20.0386 189.865C30.0706 194.033 34.339 201.509 34.0526 209.802Z" fill="#E1E5FF"/>
<path d="M34.0526 209.802C34.0526 209.802 33.5913 208.535 31.3379 207.082C31.375 205.836 31.4492 204.595 31.1523 203.392C30.5107 200.836 28.3102 198.985 26.062 197.596C21.3165 194.68 15.8073 193.036 10.2452 192.872C7.98638 192.808 5.60035 193.02 3.75514 194.325C2.5409 195.178 1.71904 196.498 1.35849 197.92C-3.5939 188.126 10.7012 185.979 20.0386 189.86C30.0706 194.033 34.339 201.509 34.0526 209.802Z" fill="#CCD2FF"/>
<path d="M65.9126 206.112C65.8118 207.459 65.0059 209.018 63.2667 210.762C55.2761 218.769 52.7045 210.614 45.4721 211.346C39.2472 211.982 37.9375 214.325 37.9375 214.325C38.1814 212.369 38.7328 210.529 39.6236 208.853C41.6597 205.004 45.4562 202.04 51.2039 200.661C57.6621 199.113 66.289 201.271 65.9126 206.112Z" fill="#E1E5FF"/>
<path d="M65.9126 206.112C65.8118 207.459 65.0059 209.018 63.2667 210.762C55.2761 218.768 52.7045 210.614 45.4721 211.345C39.2472 211.982 37.9375 214.325 37.9375 214.325C38.1814 212.369 38.7328 210.529 39.6236 208.853C39.7191 208.858 39.8198 208.874 39.9153 208.885C40.8485 209.039 41.7233 209.42 42.6141 209.739C47.6567 211.51 53.4574 210.985 58.1022 208.328C59.6452 207.443 61.098 206.329 62.816 205.879C63.622 205.672 64.4968 205.661 65.3028 205.873C65.5308 205.937 65.7323 206.016 65.9126 206.112Z" fill="#CCD2FF"/>
<path d="M38.8812 198.265C38.3404 199.203 37.7359 200.105 37.0519 200.985C37.0519 200.985 37.3011 196.478 30.9436 188.705C23.5575 179.67 11.394 186.022 11.3887 167.872C11.3887 167.426 11.3993 167.002 11.4205 166.594C12.2529 150.146 29.5862 158.741 36.5376 170.067C42.911 180.438 43.4041 190.396 38.8812 198.265Z" fill="#E1E5FF"/>
<path d="M38.8831 198.264C38.3582 197.506 37.9658 196.658 37.7166 195.793C36.9053 192.914 37.3242 189.855 37.4515 186.864C37.6636 182.002 37.0379 177.023 34.9064 172.649C32.7695 168.28 28.9943 164.579 24.3229 163.232C22.6845 162.76 20.9559 162.622 19.2592 162.792C17.7215 162.945 16.1998 163.364 14.8052 164.054C14.1212 164.393 13.4638 164.801 12.854 165.273C12.4033 165.628 11.942 166.286 11.4277 166.588C12.2601 150.14 29.5934 158.735 36.5448 170.061C42.9129 180.438 43.406 190.396 38.8831 198.264Z" fill="#CCD2FF"/>
<path d="M221.208 29.0137C221.913 40.3925 213.96 50.7321 202.777 52.959C197.946 53.9135 193.227 53.309 189.092 51.5221L183.121 55.1171C182.798 55.3133 182.384 55.0535 182.421 54.6717L182.718 51.7819L186.138 49.7246C190.274 51.5115 194.993 52.1213 199.824 51.1616C211.006 48.9346 218.965 38.595 218.249 27.2162C217.798 19.9255 214.06 13.7271 208.636 9.85645C215.624 13.409 220.678 20.4611 221.208 29.0137Z" fill="#E1E5FF"/>
<path d="M200.391 47.5787C190.899 48.7717 182.241 42.0483 181.048 32.5572C179.855 23.066 186.583 14.4073 196.069 13.2143C205.56 12.0213 214.219 18.7446 215.417 28.2358C216.605 37.7269 209.882 46.3856 200.391 47.5787Z" fill="#FC6054"/>
<path d="M215.413 28.2348C216.606 37.726 209.882 46.3847 200.386 47.5777C195.29 48.2193 190.428 46.5756 186.844 43.4366C190.036 45.3242 193.853 46.2044 197.809 45.706C207.3 44.513 214.023 35.849 212.83 26.3631C212.279 21.9675 210.126 18.171 207.035 15.4775C211.489 18.1127 214.718 22.7045 215.413 28.2348Z" fill="#E64B38"/>
<path d="M200.55 21.4854C203.122 21.4854 204.914 22.4504 205.927 24.3751C206.25 25.0697 206.409 25.8386 206.409 26.6657C206.409 28.5746 205.444 30.0698 203.519 31.1515C202.613 31.6711 201.807 32.2438 201.112 32.8695C200.889 33.1664 200.688 33.5588 200.502 34.0413C200.211 34.4071 199.871 34.5874 199.484 34.5874C198.975 34.5874 198.604 34.2746 198.376 33.6436L198.339 33.3997C198.339 32.7952 198.784 32.0052 199.675 31.0295C200.476 30.319 201.563 29.5555 202.947 28.7495C203.678 28.267 204.044 27.583 204.044 26.6975V26.5809C204.044 24.7569 202.856 23.8396 200.476 23.8396H200.423C198.323 23.8396 197.04 24.3062 196.563 25.2394C196.17 26.0135 195.672 26.4006 195.057 26.4006C194.988 26.4006 194.924 26.3953 194.866 26.39C194.272 26.2787 193.975 25.9128 193.975 25.2924V25.1758C194.007 24.4971 194.516 23.6699 195.492 22.6943C196.488 21.8936 198.175 21.4854 200.55 21.4854ZM199.378 37.0424C200.126 37.0424 200.688 37.456 201.059 38.2778L201.123 38.7232C201.123 39.4549 200.677 39.9799 199.786 40.3033L199.378 40.3775C198.206 40.1655 197.618 39.614 197.618 38.7232V38.6967C197.618 37.9226 198.074 37.3976 198.991 37.1166L199.378 37.0424Z" fill="#E64B38"/>
<path d="M199.712 20.918C202.284 20.918 204.076 21.883 205.089 23.8077C205.412 24.5024 205.571 25.2712 205.571 26.0984C205.571 28.0072 204.606 29.5024 202.681 30.5841C201.775 31.1037 200.969 31.6764 200.274 32.3021C200.051 32.599 199.85 32.9914 199.664 33.4739C199.378 33.8397 199.033 34.02 198.646 34.02C198.137 34.02 197.766 33.7072 197.538 33.0762L197.501 32.8323C197.501 32.2278 197.946 31.4378 198.837 30.4622C199.638 29.7517 200.725 28.9881 202.109 28.1822C202.84 27.6997 203.206 27.0157 203.206 26.1302V26.0135C203.206 24.1895 202.019 23.2722 199.638 23.2722H199.585C197.485 23.2722 196.202 23.7388 195.725 24.672C195.332 25.4462 194.834 25.8332 194.219 25.8332C194.15 25.8332 194.086 25.8279 194.028 25.8226C193.434 25.7113 193.137 25.3454 193.137 24.725V24.6084C193.169 23.9297 193.678 23.1025 194.654 22.1269C195.645 21.3263 197.331 20.918 199.712 20.918ZM198.54 36.475C199.288 36.475 199.85 36.8886 200.221 37.7104L200.285 38.1558C200.285 38.8876 199.839 39.4125 198.949 39.7359L198.54 39.8102C197.368 39.5981 196.78 39.0466 196.78 38.1558V38.1293C196.78 37.3552 197.236 36.8303 198.153 36.5492L198.54 36.475Z" fill="white"/>
<path d="M18.426 93.7189L134.675 93.6128C137.061 93.6128 139.012 91.6669 139.012 89.2808L139.097 27.1058C139.102 24.7091 137.156 22.7579 134.76 22.7526L18.5162 22.6094C18.5109 22.6094 18.5109 22.6094 18.5056 22.6094C16.1195 22.6094 14.1683 24.55 14.163 26.9414L14.0781 89.371C14.0781 91.7199 15.9711 93.7189 18.426 93.7189ZM14.847 26.9467C14.8576 24.8947 16.5119 23.2934 18.5056 23.2934C18.5109 23.2934 18.5109 23.2934 18.5109 23.2934L134.754 23.4365C136.774 23.4419 138.413 25.0856 138.408 27.1005L138.323 89.2808C138.323 91.2957 136.684 92.9341 134.669 92.9341L18.4207 93.0402C16.3953 93.0402 14.7568 91.4071 14.7568 89.3763L14.847 26.9467Z" fill="#112544"/>
<path d="M14.1357 102.356L25.3077 102.345V140.771C25.3077 140.962 25.4614 141.116 25.6523 141.116H56.1195C41.3472 165.114 48.6856 153.189 46.5594 156.646C43.2189 162.076 47.1373 169.064 53.5107 169.085L101.439 169.091C107.796 169.091 111.725 162.092 108.39 156.651L84.4233 117.711C81.2419 112.526 73.702 112.536 70.5259 117.711C68.7708 120.564 58.2563 137.643 56.5012 140.495C56.321 140.373 58.1556 140.463 25.9917 140.432V102.35L138.619 102.25C138.619 102.25 138.624 102.25 138.629 102.25C142.999 102.25 146.498 98.7183 146.509 94.381C146.514 90.8655 146.488 110.314 146.625 7.89474C146.636 3.54153 143.115 0.0154875 138.757 0.00488281L14.2682 0.110929C14.2629 0.110929 14.2629 0.110929 14.2576 0.110929C10.0476 0.110929 6.37837 3.49381 6.37837 7.97958C6.37837 8.27121 6.26172 94.2855 6.26172 94.4711C6.26172 98.7925 9.74534 102.345 14.1357 102.356ZM71.1038 118.061C74.036 113.316 80.9078 113.321 83.84 118.061L107.802 157.007C110.866 162.002 107.256 168.401 101.434 168.401L53.5054 168.396C47.6092 168.386 44.0991 161.927 47.1373 157.001L71.1038 118.061ZM14.2576 0.794929C14.2629 0.794929 14.2629 0.794929 14.2682 0.794929L138.746 0.68358C142.68 0.68358 145.931 3.86497 145.931 7.88414L145.92 15.0423L7.05707 15.1324L7.06767 7.97428C7.06767 4.00814 10.2756 0.794929 14.2576 0.794929ZM7.05707 15.8164L145.92 15.7263L145.814 94.3757C145.803 98.3524 142.59 101.56 138.624 101.56C138.619 101.56 138.614 101.56 138.614 101.56L14.1357 101.672C10.2066 101.672 6.94572 98.4903 6.94572 94.4711L7.05707 15.8164Z" fill="#112544"/>
<path d="M227.47 81.5927C228.716 78.8991 227.692 75.7071 225.137 74.2436C224.124 68.3369 215.799 65.3994 211.695 69.4875C211.685 69.4875 211.679 69.4822 211.679 69.4769C209.383 68.4111 206.642 69.4238 205.576 71.725C205.078 72.7961 205.02 74.0316 205.401 75.145C204.898 75.5904 204.569 76.1949 204.463 76.8683C204.346 77.5788 204.505 78.3158 204.892 78.9203L203.636 80.6436C200.958 84.3128 201.674 89.456 205.184 92.2769L204.018 93.8145C199.839 91.3489 196.525 89.6257 191.398 89.1962C191.35 89.1962 183.577 89.3447 178.943 87.3245C178.943 87.3192 178.938 87.3192 178.938 87.3192H178.932C172.294 84.3976 167.453 67.0961 166.122 61.8574C165.82 60.6591 166.212 59.3971 167.145 58.623C168.009 57.9125 169.452 56.5763 169.393 55.6484C169.314 54.4713 167.697 54.5932 165.904 55.9188C166.801 53.3366 167.935 49.328 166.61 48.8084C166.063 48.6016 165.613 49.0629 165.284 49.5507C165.454 48.0289 165.093 47.6207 164.701 47.4616C163.789 47.1276 163.057 48.6705 162.659 49.5666C162.59 49.0523 162.389 48.7342 162.055 48.6069C161.509 48.3948 160.968 48.819 160.358 49.9855C160.093 49.4076 159.473 49.328 158.969 49.6833C157.278 50.8922 155.925 57.4353 155.947 60.272C155.931 60.6644 155.57 72.0326 159.913 83.2152C159.87 83.2629 159.833 83.3212 159.796 83.3743L146.164 104.631C145.586 105.537 145.851 106.746 146.752 107.324L157.824 114.419C158.725 115.002 159.934 114.737 160.517 113.83L160.894 113.236C161.085 113.517 161.403 113.968 161.832 114.557L153.942 120.84L127.897 127.478C120.623 129.334 116.19 136.768 118.014 144.043L120.813 155.517L104.085 191.902C101.927 196.589 104.435 202.146 109.429 203.588L107.802 207.851L99.0209 211.674C96.428 212.809 94.7578 215.37 94.7578 218.207V219.405C94.7578 219.59 94.9063 219.75 95.1025 219.75H121.45C121.635 219.75 121.794 219.596 121.794 219.405V209.723L122.447 207.061L127.653 208.445C130.771 209.277 134.207 208.259 136.349 205.677C137.595 206.223 138.916 206.441 140.119 206.367L143.37 206.192L143.476 207.915L134.833 211.679C132.24 212.814 130.564 215.375 130.564 218.212V219.41C130.564 219.596 130.713 219.755 130.909 219.755C145.925 219.755 153.359 219.755 159.027 219.755C159.218 219.755 159.372 219.601 159.372 219.41C159.372 219.219 159.223 219.066 159.027 219.066C156.62 219.066 154.902 219.066 152.813 219.066C149.398 219.066 146.615 216.287 146.615 212.862C146.615 207.872 146.615 174.118 146.615 169.277C146.615 165.851 149.398 163.078 152.813 163.078H205.645C205.836 163.078 205.99 162.925 205.99 162.734C205.99 162.543 205.842 162.389 205.645 162.389H180.125C185.99 161.62 190.433 159.706 191.987 155.241C193.646 153.391 218.328 125.554 220.041 115.363C221.149 108.772 216.457 103.125 211.314 98.8729L215.375 93.5282C216.075 93.7297 216.881 93.5653 217.459 93.0298C217.645 92.8601 217.798 92.6639 217.904 92.4465C220.905 93.5123 224.188 92.1231 225.508 89.2598C226.293 87.5737 226.261 85.6171 225.434 83.9575C226.319 83.369 227.019 82.5577 227.47 81.5927ZM156.625 60.3038V60.2879C156.604 57.1171 158.062 51.1891 159.361 50.2559C159.489 50.1605 159.6 50.1552 159.642 50.1764C159.706 50.1976 159.86 50.4309 159.807 51.2262C159.786 51.6186 160.316 51.73 160.464 51.38C161.35 49.2485 161.79 49.2538 161.795 49.2591C161.8 49.2591 162.336 49.5083 161.567 52.5465C161.519 52.7268 161.631 52.9124 161.811 52.9601C161.991 53.0078 162.172 52.9071 162.225 52.7321C163.02 50.1817 163.863 48.3736 164.377 48.1244C164.409 48.1085 164.425 48.1085 164.441 48.1085C164.446 48.1138 165.13 48.4319 163.826 52.8063C163.773 52.9866 163.874 53.1775 164.049 53.2305C164.224 53.2836 164.42 53.1934 164.478 53.0184C165.517 50.0173 166.127 49.5401 166.286 49.4606C166.329 49.4447 166.339 49.45 166.345 49.45C166.922 49.6727 166.228 53.0609 164.87 56.7354C164.6 56.8732 163.932 57.2497 163.158 57.8966C162.808 58.1829 163.248 58.7131 163.593 58.4215C164.759 57.4565 165.178 57.4035 165.401 57.2073C166.392 56.3006 168.031 55.2083 168.63 55.5848C168.683 55.6219 168.693 55.6484 168.699 55.6908C168.72 56.0461 168.041 56.9899 166.679 58.1087C165.565 59.0366 165.083 60.5743 165.448 62.0271C167.15 68.7504 171.785 84.5673 178.386 87.8282C178.381 87.8547 178.37 87.8812 178.37 87.9077C177.723 90.2249 176.005 91.8845 173.89 92.9874L174.144 92.5844C174.722 91.6777 174.457 90.4741 173.556 89.8961L162.484 82.8016C161.848 82.3933 161.063 82.3986 160.454 82.7539C156.217 71.672 156.62 60.4629 156.625 60.3038ZM159.934 113.48C159.558 114.064 158.778 114.233 158.19 113.857L147.118 106.762C146.551 106.396 146.344 105.633 146.742 105.013C148.094 102.902 158.693 86.3807 160.374 83.756C160.766 83.1462 161.562 83.0137 162.119 83.3796L173.19 90.4741C173.773 90.8505 173.948 91.63 173.572 92.2185C173.54 92.2662 169.314 98.8623 167.734 101.317C167.129 101.704 166.694 102.589 166.403 103.39L166.286 103.565C165.528 100.94 164.165 97.0755 162.792 97.4254C162.225 97.5686 162.124 98.2049 162.134 98.7934C161.403 97.4572 160.873 97.3247 160.459 97.4307C159.531 97.6375 159.812 99.3873 160.003 100.325C159.648 99.944 159.303 99.8009 158.958 99.8857C158.386 100.028 158.19 100.686 158.365 101.985C158.163 101.868 157.946 101.81 157.702 101.879C155.347 102.595 159.096 110.559 160.475 112.632L159.934 113.48ZM169.775 108.247C168.937 107.441 168.582 106.248 168.884 105.134C169.192 104.021 169.754 101.524 168.651 101.158L170.496 98.2791C172.702 99.8539 175.247 100.972 178.105 101.619L169.775 108.247ZM160.883 112.001C158.783 108.703 156.88 102.913 157.903 102.536C157.962 102.52 158.221 102.621 158.64 103.305C158.725 103.448 158.905 103.507 159.059 103.443C159.213 103.379 159.303 103.215 159.266 103.051C158.757 100.792 159.128 100.553 159.133 100.553C159.133 100.548 159.711 100.437 160.841 103.369C160.91 103.544 161.095 103.629 161.275 103.57C161.45 103.507 161.546 103.321 161.488 103.141C160.491 100.06 160.374 98.5336 160.591 98.1359C160.613 98.0935 160.634 98.0882 160.634 98.0882C160.639 98.0829 161.382 97.9503 162.834 102.282C162.893 102.462 163.084 102.558 163.264 102.499C163.444 102.446 163.545 102.255 163.492 102.075C162.612 99.032 162.834 98.2844 162.919 98.1306C162.94 98.0882 162.956 98.0829 162.962 98.0829C163.868 97.8655 165.618 103.57 165.989 105.018C166.069 105.352 166.573 105.362 166.657 105.002C166.742 104.594 166.869 104.127 167.034 103.682C167.034 103.682 167.039 103.676 167.039 103.671L168.227 101.815C168.312 101.783 168.428 101.762 168.487 101.831C168.709 102.112 168.693 103.263 168.227 104.97C167.877 106.269 168.275 107.69 169.25 108.666C170.724 110.23 188.248 124.96 195.953 122.272C197.003 121.906 198.005 121.519 198.964 121.116C201.117 124.514 201.902 129.859 198.885 134.43C196.499 134.981 193.959 135.119 191.281 134.637C178.959 132.426 167.082 121.646 160.883 112.001ZM118.682 143.889C116.948 136.975 121.158 129.918 128.067 128.152L153.926 121.556C157.182 127.452 162.235 131.471 167.601 134.976L135.506 140.904C130.055 141.906 125.416 145.522 123.099 150.56L121.275 154.526L118.682 143.889ZM121.174 209.368C116.789 209.919 112.537 209.431 108.512 207.92L110.103 203.763L121.789 206.87L121.174 209.368ZM145.931 208.466C145.337 208.291 144.748 208.09 144.165 207.862L144.054 206.144L145.931 206.048V208.466ZM145.931 169.266C145.931 170.57 145.931 206.26 145.931 205.359C137.919 205.783 140.681 205.64 140.087 205.672C138.921 205.736 137.802 205.529 136.779 205.099C137.484 204.097 137.966 202.946 138.184 201.722L144.191 167.877C144.7 165.003 147.092 162.898 149.997 162.75C150.231 162.734 150.464 162.728 150.703 162.718C147.935 163.609 145.931 166.207 145.931 169.266ZM149.96 162.066C146.731 162.235 144.085 164.574 143.518 167.76L137.51 201.605C136.726 206.054 132.272 208.959 127.834 207.777C127.786 207.766 108.57 202.655 109.79 202.978C105.336 201.891 102.621 196.737 104.71 192.188C125.745 146.445 123.062 152.283 123.714 150.856C125.935 146.021 130.389 142.553 135.623 141.588L168.428 135.527C176.467 140.708 185.205 144.897 190.189 153.068C190.216 153.11 190.057 152.818 191.308 155.104C187.591 165.422 166.26 161.101 149.96 162.066ZM191.764 154.467C184.123 139.541 164.568 136.747 155.549 122.924C155.194 122.383 154.854 121.826 154.536 121.254L154.626 121.179L162.246 115.113C166.111 120.23 176.854 132.738 191.154 135.315C200.12 136.938 208.578 131.858 214.638 124.965C214.755 124.849 214.696 124.886 215.068 124.483C207.862 136.079 194.086 151.832 191.764 154.467ZM219.368 115.246C219.06 117.065 217.745 119.901 217.332 120.453C215.004 124.514 207.411 132.044 199.839 134.191C202.528 129.546 201.727 124.292 199.59 120.851C201.913 119.833 204.426 118.454 206.435 116.89C206.584 116.773 206.616 116.561 206.499 116.413C206.382 116.264 206.165 116.232 206.017 116.354C203.084 118.65 199.219 120.41 195.725 121.635C189.076 123.952 175.062 112.749 170.305 108.703C187.13 95.3151 176.127 104.042 182.22 99.1328C182.368 99.0108 182.384 98.7987 182.267 98.6502C182.145 98.5018 181.933 98.4859 181.785 98.6025L178.794 101.062C175.799 100.458 173.142 99.3343 170.867 97.6958L173.179 94.0903H173.185C175.947 92.8389 178.227 91.0467 179.028 88.0933C183.916 89.9756 191.281 89.8696 191.329 89.8749C195.502 90.2249 198.392 91.4444 201.552 93.2048C201.525 93.2525 200.126 94.8591 200.126 97.3512C200.126 99.4403 201.091 101.508 202.904 102.828C205.985 105.05 210.174 104.313 212.332 101.365L212.65 100.94C217.894 105.76 220.153 110.569 219.368 115.246ZM212.151 100.484L211.791 100.962C209.871 103.592 206.101 104.302 203.318 102.282C200.608 100.315 200.009 96.5081 201.976 93.7986L202.162 93.5494C202.65 93.8251 203.127 94.0956 203.593 94.3713V94.3766L203.302 94.7583C201.87 96.7361 202.305 99.5198 204.283 100.962C206.266 102.404 209.039 101.964 210.476 99.9917L210.905 99.4244C211.663 100.039 212.104 100.442 212.151 100.484ZM217.003 92.5208C216.398 93.0775 215.455 93.0616 214.855 92.4306C214.728 92.2875 214.511 92.2822 214.373 92.4147C214.235 92.542 214.225 92.7594 214.357 92.8919C214.474 93.0192 214.606 93.1358 214.744 93.226C207.915 102.213 216.738 90.6013 209.924 99.5676C208.699 101.253 206.361 101.619 204.68 100.4C203.01 99.1805 202.639 96.8316 203.848 95.156C203.927 95.0553 205.762 92.6215 205.72 92.6798L207.167 93.7085C207.31 93.8092 207.528 93.7827 207.644 93.6236C207.756 93.4699 207.719 93.2525 207.565 93.1464C207.559 93.1411 205.836 91.9216 205.831 91.9216C202.406 89.3659 201.669 84.493 204.177 81.0412C204.458 80.6595 203.164 82.4357 206.913 77.2819C208.132 78.2363 209.818 78.565 211.584 77.8598C211.6 77.8545 211.621 77.8439 211.637 77.8386C212.973 79.4452 214.675 80.5534 216.876 81.0094C216.918 81.1261 216.955 81.2321 217.003 81.3488C216.473 81.6139 215.81 82.213 215.81 82.213C215.561 82.4623 215.237 82.7645 214.909 83.2682C214.903 83.2682 214.903 83.2735 214.903 83.2735C213.848 84.3287 213.514 87.913 214.283 88.9417C214.421 89.3235 214.585 89.5939 214.622 89.6681C214.574 89.7105 214.527 89.7529 214.479 89.7901C214.336 89.9173 214.331 90.1347 214.458 90.2726C214.585 90.4157 214.802 90.421 214.94 90.2938C215.481 89.7529 216.483 89.7264 217.082 90.3839C217.671 91.0096 217.607 91.9693 217.003 92.5208ZM225.1 83.353C225.094 83.353 225.094 83.3583 225.089 83.3583C224.903 83.0667 224.697 82.791 224.469 82.5365C224.341 82.3986 224.124 82.388 223.986 82.5153C223.848 82.6425 223.838 82.8599 223.965 82.9978C225.412 84.5726 225.837 86.9374 224.893 88.9629C223.71 91.5239 220.773 92.7435 218.138 91.789C218.26 91.1634 218.09 90.4529 217.597 89.912C216.96 89.2174 215.995 89.0424 215.243 89.3235C214.315 87.6479 214.272 85.4156 215.444 83.7083C215.444 83.703 215.449 83.703 215.449 83.6977C216.192 82.7115 217.082 81.7729 218.795 81.3859C218.981 81.3435 219.097 81.1632 219.055 80.9776C219.012 80.792 218.832 80.6754 218.647 80.7178C218.297 80.7973 217.963 80.914 217.634 81.0518C217.48 80.7072 217.517 80.4209 217.215 80.3678C214.405 79.8747 212.173 77.9765 211.245 75.8609C211.165 75.6859 210.964 75.6116 210.794 75.6859C210.619 75.7601 210.545 75.9669 210.619 76.1366C210.794 76.529 210.995 76.9054 211.239 77.2607C210.089 77.8015 208.291 77.6583 207.103 76.5236C206.944 76.3858 206.706 76.4123 206.594 76.5714L205.338 78.2946C204.58 76.7251 205.868 74.8004 207.729 75.0973L207.782 75.1079C207.962 75.1397 208.148 75.0178 208.18 74.8322C208.212 74.6466 208.09 74.4663 207.904 74.4345L207.841 74.4239C207.199 74.3179 206.557 74.4345 205.995 74.7315C205.741 73.8354 205.815 72.865 206.207 72.0114C207.554 69.1057 211.674 68.9731 213.196 71.7781C213.286 71.9477 213.493 72.0061 213.662 71.9159C213.827 71.8258 213.89 71.619 213.8 71.4493C213.45 70.7971 212.941 70.2563 212.332 69.8427L212.337 69.8374C215.942 66.4969 223.063 68.8088 224.373 73.8566C224.002 73.7134 223.615 73.6074 223.223 73.5437C222.782 73.4695 222.66 74.1482 223.111 74.2224C226.415 74.7527 228.26 78.2946 226.865 81.2957C226.452 82.1441 225.858 82.844 225.1 83.353Z" fill="#112544"/>
<path d="M208.323 86.3645C206.998 85.9085 206.261 85.251 206.07 84.3549C205.948 83.7982 205.205 83.7028 204.946 84.1906C204.415 85.2033 204.267 86.3274 205.004 87.2023C205.81 88.162 207.194 87.9711 208.36 87.4939C208.885 87.2712 208.843 86.5395 208.323 86.3645Z" fill="#112544"/>
<path d="M207.188 81.0455C207.565 81.1039 207.915 80.8493 207.973 80.4729C208.037 80.0964 207.782 79.7465 207.406 79.6881C207.029 79.6298 206.679 79.879 206.621 80.2555C206.563 80.632 206.817 80.9819 207.188 81.0455Z" fill="#112544"/>
<path d="M211.091 82.8219C210.715 82.7636 210.365 83.0128 210.306 83.3946C210.248 83.7657 210.497 84.1157 210.874 84.1793C211.25 84.2376 211.6 83.9831 211.658 83.6067C211.717 83.2355 211.462 82.8803 211.091 82.8219Z" fill="#112544"/>
<path d="M209.256 81.2269L207.332 82.701C206.945 83.0032 206.929 83.5971 207.326 83.9046L207.899 84.35C208.058 84.472 208.275 84.4348 208.376 84.2917C208.493 84.1432 208.466 83.9258 208.318 83.8145L207.745 83.3691C207.708 83.3373 207.713 83.2789 207.745 83.2524L209.67 81.7784C209.818 81.6617 209.85 81.4496 209.734 81.3012C209.617 81.1368 209.405 81.1103 209.256 81.2269Z" fill="#112544"/>
<path d="M216.335 91.3327C216.218 91.2637 216.187 91.1153 216.245 91.0145C216.335 90.8501 216.277 90.6381 216.112 90.5479C215.943 90.4578 215.736 90.5214 215.646 90.6858C215.444 91.041 215.508 91.5076 215.826 91.7993C216.059 92.0538 216.351 92.0167 216.473 91.7993C216.558 91.6614 216.521 91.4334 216.335 91.3327Z" fill="#112544"/>
<path d="M203.408 194.5C202.252 193.757 200.709 194.091 199.967 195.247C199.532 195.915 199.463 196.716 199.712 197.416C196.562 199.479 193.885 203.142 191.859 206.637C192.93 203.344 195.009 196.181 191.711 195.231C187.702 194.075 183.651 203.609 182.124 207.66C182.087 207.575 182.045 207.49 182.008 207.411C181.636 203.45 180.406 193.646 176.403 193.869C172.373 194.123 173.285 202.204 173.953 206.197C171.938 201.525 167.49 192.58 161.541 188.667L161.509 188.582C161.769 187.866 161.705 186.949 161.217 186.191C160.417 184.94 158.714 184.521 157.394 185.358C156.063 186.223 155.766 187.967 156.562 189.187C157.394 190.475 159.102 190.841 160.39 190.014C160.719 189.802 160.994 189.526 161.169 189.261C166.806 192.92 171.642 202.199 174.118 208.418C172.156 206.955 167.962 204.282 165.793 206.329C161.901 209.993 170.183 219.23 170.539 219.622C170.602 219.696 170.692 219.739 170.788 219.739C195.263 219.739 193.689 219.776 193.837 219.67C197.941 216.605 206.658 208.869 203.01 205.253C200.767 203.026 193.264 208.768 190.226 211.26C192.252 207.013 195.719 200.91 200.025 198.036C200.205 198.286 200.433 198.514 200.704 198.688C201.822 199.415 203.381 199.118 204.145 197.941C204.903 196.774 204.564 195.247 203.408 194.5ZM160.024 189.441C159.049 190.067 157.765 189.791 157.145 188.816C156.525 187.856 156.8 186.567 157.771 185.936C158.746 185.321 160.019 185.597 160.65 186.562C161.26 187.522 161 188.816 160.024 189.441ZM191.52 195.894C195.019 196.896 190.576 208.519 189.176 211.865C188.826 212.644 188.402 213.62 188.095 214.399C187.967 214.5 187.845 214.595 187.729 214.686C188.556 212.554 190.406 207.31 188.201 206.706C186.149 206.117 184.171 210.316 183.243 212.692C183.121 211.557 182.893 209.982 182.485 208.657C184.15 204.017 188.169 194.94 191.52 195.894ZM170.952 219.049C170.024 217.989 163.068 209.834 166.27 206.828C168.662 204.579 174.68 209.733 174.738 209.781C174.993 210.009 175.374 209.76 175.295 209.442C174.362 205.682 172.548 194.775 176.451 194.558C179.616 194.346 180.857 203.169 181.207 206.324C180.894 206.075 180.565 205.969 180.21 205.99C177.792 206.133 178.466 211.043 178.938 213.413C177.813 212.602 175.761 211.409 174.611 212.49C172.856 214.139 175.406 217.634 176.573 219.049H170.952ZM177.463 219.049C176.26 217.681 173.741 214.246 175.077 212.989C176.016 212.114 178.46 213.848 179.245 214.527C179.494 214.744 179.881 214.511 179.802 214.187C179.367 212.395 178.407 206.796 180.253 206.663C181.955 206.547 182.607 212.559 182.686 214.283C182.707 214.664 183.238 214.733 183.354 214.373C184.335 211.425 186.462 206.907 188.015 207.353C189.654 207.814 187.321 213.991 186.578 215.682C186.43 216.022 186.854 216.313 187.119 216.08C188.1 215.232 192.75 211.515 193.662 212.416C195.141 213.896 190.725 217.766 189.044 219.044H177.463V219.049ZM202.538 205.735C205.682 208.853 197.056 216.356 193.53 219.049H190.152C192.204 217.358 196.022 213.811 194.145 211.934C193.249 211.043 191.011 212.289 189.187 213.588C189.304 213.318 189.436 213.026 189.569 212.718C193.726 209.123 200.873 204.086 202.538 205.735ZM203.577 197.57C203.042 198.407 201.918 198.651 201.085 198.116C200.274 197.602 199.993 196.477 200.545 195.624C201.085 194.781 202.215 194.553 203.031 195.078C203.901 195.64 204.102 196.753 203.577 197.57Z" fill="#112544"/>
<path d="M53.5055 165.21L101.433 165.216C104.789 165.216 106.852 161.536 105.086 158.673L81.1253 119.732C79.4497 116.991 75.4783 117.017 73.8134 119.727L49.8469 158.667C48.0865 161.53 50.1438 165.21 53.5055 165.21ZM50.4354 159.028L74.4019 120.088C75.7964 117.802 79.1316 117.792 80.5473 120.088L104.508 159.033C105.982 161.43 104.264 164.532 101.433 164.532L53.5055 164.526C50.674 164.526 48.9561 161.43 50.4354 159.028Z" fill="#112544"/>
<path d="M51.1306 200.327C43.3096 202.204 38.511 207.135 37.6096 214.214C37.2756 214.765 36.9627 215.359 36.6711 215.985C37.4612 210.539 37.6361 205.587 37.3869 201.117C43.9777 192.559 43.7815 181.191 36.8408 169.887C32.3179 162.532 22.8479 155.586 16.4852 157.384C14.0037 158.089 11.045 160.475 11.045 167.866C11.0503 179.505 16.114 181.34 21.4746 183.275C24.6826 184.431 27.9912 185.624 30.6795 188.917C35.2183 194.473 36.3477 198.355 36.6234 200.03C36.6446 201.123 37.2862 206.87 35.9977 215.81C35.6796 213.631 35.144 211.6 34.3911 209.749C34.6774 200.651 29.6296 193.482 20.165 189.548C13.7863 186.902 4.38525 186.843 1.09251 191.006C-0.195959 192.633 -1.00191 195.592 2.47641 200.401C7.94841 207.957 12.0948 206.769 16.4852 205.508C19.0886 204.76 21.7769 203.986 25.0325 204.85C32.2066 206.759 33.617 209.691 33.7124 209.908C33.7124 209.914 33.7124 209.914 33.7177 209.914C33.7177 209.919 33.723 209.924 33.723 209.93C34.8577 212.697 35.4675 215.9 35.5947 218.747C35.5682 218.832 35.5417 218.912 35.5152 218.997C35.3879 219.431 36.0454 219.628 36.1727 219.193C36.7666 217.194 37.6308 215.402 38.2247 214.49C38.2406 214.468 39.5185 212.295 45.4942 211.685C48.0923 211.42 50.0648 212.342 51.9683 213.238C55.2292 214.765 58.3046 216.202 63.5009 211.006C66.8095 207.692 66.5444 205.274 65.7332 203.832C63.7077 200.189 56.4011 199.06 51.1306 200.327ZM31.2097 188.482C28.3995 185.046 25.0007 183.821 21.7079 182.633C16.3579 180.698 11.7343 179.033 11.729 167.872C11.729 162.357 13.4363 158.964 16.6707 158.052C17.2858 157.877 17.938 157.797 18.622 157.797C24.4546 157.797 32.3285 163.863 36.2522 170.252C42.8589 181.011 43.2354 191.817 37.3286 200.051C36.3477 192.183 35.2395 185.523 31.2203 177.951C26.6921 169.425 21.2732 165.411 21.2201 165.369C21.0664 165.258 20.8543 165.289 20.7429 165.443C20.6316 165.597 20.6634 165.809 20.8172 165.92C20.8702 165.957 26.1831 169.902 30.6371 178.301C32.933 182.633 35.2554 188.678 36.2734 196.488C35.4039 194.457 33.8821 191.759 31.2097 188.482ZM16.3102 204.85C11.9729 206.091 8.22944 207.172 3.04376 199.998C0.488041 196.467 0.000226736 193.503 1.64395 191.43C4.39586 187.952 13.1023 187.358 19.9105 190.184C28.5532 193.773 33.4049 200.131 33.7071 208.201V208.206V208.212C33.1133 207.013 32.4239 205.889 31.6392 204.861C23.8925 194.648 9.12023 195.423 8.96646 195.433C8.77558 195.444 8.63241 195.608 8.64302 195.794C8.65362 195.985 8.81269 196.117 9.00358 196.117C9.14674 196.106 23.5585 195.354 31.0878 205.274C31.6339 205.99 32.1323 206.759 32.5883 207.565C31.2627 206.483 29.0093 205.189 25.2181 204.187C21.9943 203.339 19.306 203.986 16.3102 204.85ZM63.0237 210.524C58.1773 215.38 55.4413 214.097 52.2759 212.618C49.9587 211.531 48.0552 210.752 45.4412 211.006C42.6362 211.287 40.7963 211.923 39.6139 212.549C41.9787 209.686 45.2238 207.814 49.3331 206.966C54.3756 205.932 58.8932 206.907 58.9356 206.918C59.1212 206.96 59.3014 206.844 59.3438 206.658C59.3863 206.473 59.2696 206.292 59.084 206.25C58.925 206.218 45.5843 203.397 38.5428 212.835C38.7708 212.432 39.7465 203.768 51.2843 201.001C56.8624 199.659 63.4691 201.176 65.1499 204.177C66.1414 205.937 65.4097 208.137 63.0237 210.524Z" fill="#112544"/>
<path d="M182.765 47.9011L182.076 54.6298C182.007 55.2661 182.691 55.7539 183.296 55.4039L189.118 51.9044C193.439 53.739 198.179 54.2215 202.84 53.2936C214.224 51.0295 222.268 40.5786 221.547 28.993C220.667 14.9101 207.676 4.79321 193.778 7.46559C182.246 9.68726 174.144 20.1912 174.923 31.9146C175.337 38.1342 178.126 43.8077 182.765 47.9011ZM193.911 8.13898C207.448 5.54614 220.014 15.4032 220.863 29.0354C221.563 40.287 213.758 50.4303 202.713 52.6255C198.126 53.5322 193.466 53.0444 189.234 51.2098C189.134 51.1674 189.017 51.1727 188.921 51.231L182.951 54.8207C182.866 54.8684 182.76 54.8047 182.771 54.704L183.481 47.8004C183.492 47.689 183.449 47.583 183.365 47.5087C178.773 43.5214 176.026 37.9699 175.618 31.8722C174.849 20.4934 182.718 10.2917 193.911 8.13898Z" fill="#112544"/>
<path d="M200.433 47.9169C210.264 46.6814 216.971 37.7046 215.752 28.1922C214.543 18.5102 205.709 11.6596 196.022 12.8738C186.366 14.0827 179.484 22.8899 180.704 32.5985C181.939 42.3441 190.842 49.147 200.433 47.9169ZM196.112 13.5525C205.55 12.4178 213.912 19.0298 215.078 28.2771C216.24 37.5826 209.665 46.0611 200.349 47.2329C191.038 48.41 182.559 41.8192 181.388 32.5136C180.221 23.2239 186.785 14.7296 196.112 13.5525Z" fill="#112544"/>
<path d="M21.1669 30.5672H36.5649C36.7558 30.5672 36.9095 30.4135 36.9095 30.2226C36.9095 30.0317 36.7558 29.8779 36.5649 29.8779H21.1669C20.976 29.8779 20.8223 30.0317 20.8223 30.2226C20.8223 30.4135 20.976 30.5672 21.1669 30.5672Z" fill="#112544"/>
<path d="M117.638 86.6082H132.277C132.468 86.6082 132.622 86.4545 132.622 86.2636C132.622 86.0727 132.468 85.9189 132.277 85.9189H117.638C117.447 85.9189 117.293 86.0727 117.293 86.2636C117.298 86.4545 117.452 86.6082 117.638 86.6082Z" fill="#112544"/>
<path d="M213.541 82.249L211.515 81.0136C211.351 80.9181 211.139 80.9659 211.043 81.1302C210.943 81.2946 210.996 81.5067 211.16 81.6021L213.185 82.8376C213.334 82.9277 213.551 82.8959 213.663 82.7209C213.758 82.5566 213.705 82.3498 213.541 82.249Z" fill="#112544"/>
<path d="M208.191 78.2463C208.048 78.1243 207.835 78.1349 207.708 78.2781C207.586 78.4212 207.597 78.6333 207.74 78.7606L209.527 80.3248C209.659 80.452 209.882 80.4414 210.009 80.293C210.131 80.1498 210.121 79.9377 209.978 79.8104L208.191 78.2463Z" fill="#112544"/>
</g>
</svg>
