<svg width="64" height="64" viewBox="0 0 64 64" fill="none" xmlns="http://www.w3.org/2000/svg">
<g clip-path="url(#clip0_2092_1536)">
<path d="M57.75 54C58.4404 54 59 53.4404 59 52.75C59 52.0596 58.4404 51.5 57.75 51.5C57.0596 51.5 56.5 52.0596 56.5 52.75C56.5 53.4404 57.0596 54 57.75 54Z" fill="#004646"/>
<path d="M47 59C47.6904 59 48.25 58.4404 48.25 57.75C48.25 57.0596 47.6904 56.5 47 56.5C46.3096 56.5 45.75 57.0596 45.75 57.75C45.75 58.4404 46.3096 59 47 59Z" fill="#004646"/>
<path d="M8.75 54C9.44036 54 10 53.4404 10 52.75C10 52.0596 9.44036 51.5 8.75 51.5C8.05964 51.5 7.5 52.0596 7.5 52.75C7.5 53.4404 8.05964 54 8.75 54Z" fill="#004646"/>
<path d="M62.75 40.75C63.4403 40.75 64 40.1904 64 39.5V17C64 16.3096 63.4403 15.75 62.75 15.75H32.75C32.0597 15.75 31.5 16.3096 31.5 17V39.5C31.5 40.1904 32.0597 40.75 32.75 40.75H46.5V46.5H15V41.5713C15 39.5399 16.4692 38.6418 16.7677 38.25H18.75C23.5747 38.25 27.5 34.3247 27.5 29.5C27.5 28.8096 26.9403 28.25 26.25 28.25H23.75C19.1054 28.25 15.296 31.8881 15.018 36.4642L15 36.4823V30.535C15 28.7506 15.6391 27.0651 16.8062 25.7362C22.7521 25.4452 27.5 20.5168 27.5 14.5V12C27.5 11.3096 26.9403 10.75 26.25 10.75C20.0467 10.75 15 15.7968 15 22V24.0037C14.175 24.9216 13.5424 25.9707 13.1194 27.1015L12.4821 26.4643C12.204 21.8883 8.39462 18.25 3.75 18.25H1.25C0.55975 18.25 0 18.8096 0 19.5C0 24.3247 3.92525 28.25 8.75 28.25H10.7323C11.0339 28.6459 12.5 29.5509 12.5 31.5713V46.5H1.25C0.55975 46.5 0 47.0596 0 47.75V62.75C0 63.4404 0.55975 64 1.25 64H26.375C27.0653 64 27.625 63.4404 27.625 62.75C27.625 62.0596 27.0653 61.5 26.375 61.5H2.5V59H6.25C6.94025 59 7.5 58.4404 7.5 57.75C7.5 57.0596 6.94025 56.5 6.25 56.5H2.5V49H12.5V52.4549L10.132 57.191C9.82325 57.8085 10.0735 58.5594 10.6911 58.8681C11.3084 59.1769 12.0592 58.9265 12.3681 58.3091L13.75 55.5451L15.132 58.309C15.4412 58.9276 16.193 59.1763 16.809 58.868C17.4265 58.5592 17.6768 57.8084 17.3681 57.1909L15 52.4549V49H61.5V56.5H52C51.3097 56.5 50.75 57.0596 50.75 57.75C50.75 58.4404 51.3097 59 52 59H61.5V61.5H37.625C36.9347 61.5 36.375 62.0596 36.375 62.75C36.375 63.4404 36.9347 64 37.625 64H62.75C63.4403 64 64 63.4404 64 62.75V47.75C64 47.0596 63.4403 46.5 62.75 46.5H49V40.75H62.75ZM23.75 30.7488H24.8744C24.2937 33.598 21.7682 35.75 18.75 35.75H17.6256C18.2064 32.9007 20.7319 30.7488 23.75 30.7488ZM17.5 22C17.5 17.5996 20.7653 13.9474 25 13.339V14.5C25 18.9004 21.7347 22.5526 17.5 23.161V22ZM8.75 25.75C5.73175 25.75 3.20625 23.5992 2.62562 20.75H3.75C6.76825 20.75 9.29375 22.9008 9.87438 25.75H8.75ZM34 18.25H61.5V33.25H34V18.25ZM34 38.25V35.75H61.5V38.25H34Z" fill="#004646"/>
<path d="M37.75 23.25C37.0598 23.25 36.5 23.8096 36.5 24.5V29.5C36.5 30.1904 37.0598 30.75 37.75 30.75C38.4402 30.75 39 30.1904 39 29.5V24.5C39 23.8096 38.4404 23.25 37.75 23.25Z" fill="#004646"/>
<path d="M52.75 23.25C52.0598 23.25 51.5 23.8096 51.5 24.5V29.5C51.5 30.1904 52.0598 30.75 52.75 30.75C53.4402 30.75 54 30.1904 54 29.5V24.5C54 23.8096 53.4404 23.25 52.75 23.25Z" fill="#004646"/>
<path d="M42.75 20.75C42.0598 20.75 41.5 21.3096 41.5 22V29.5C41.5 30.1904 42.0598 30.75 42.75 30.75C43.4402 30.75 44 30.1904 44 29.5V22C44 21.3096 43.4404 20.75 42.75 20.75Z" fill="#004646"/>
<path d="M47.75 25.75C47.0598 25.75 46.5 26.3096 46.5 27V29.5C46.5 30.1904 47.0598 30.75 47.75 30.75C48.4402 30.75 49 30.1904 49 29.5V27C49 26.3096 48.4404 25.75 47.75 25.75Z" fill="#004646"/>
<path d="M57.75 25.75C57.0598 25.75 56.5 26.3096 56.5 27V29.5C56.5 30.1904 57.0598 30.75 57.75 30.75C58.4402 30.75 59 30.1904 59 29.5V27C59 26.3096 58.4404 25.75 57.75 25.75Z" fill="#004646"/>
<path d="M54 52.75C54 52.0596 53.4403 51.5 52.75 51.5H44.5C43.8098 51.5 43.25 52.0596 43.25 52.75C43.25 53.4404 43.8098 54 44.5 54H52.75C53.4404 54 54 53.4404 54 52.75Z" fill="#004646"/>
<path d="M35.75 52.75C35.75 52.0596 35.1903 51.5 34.5 51.5H26.25C25.5598 51.5 25 52.0596 25 52.75C25 53.4404 25.5598 54 26.25 54H34.5C35.1904 54 35.75 53.4404 35.75 52.75Z" fill="#004646"/>
<path d="M28.75 59H39.5C40.1903 59 40.75 58.4404 40.75 57.75C40.75 57.0596 40.1903 56.5 39.5 56.5H28.75C28.0598 56.5 27.5 57.0596 27.5 57.75C27.5 58.4404 28.0598 59 28.75 59Z" fill="#004646"/>
<path d="M21.25 56.5C20.5598 56.5 20 57.0596 20 57.75C20 58.4404 20.5598 59 21.25 59H23.75C24.4402 59 25 58.4404 25 57.75C25 57.0596 24.4402 56.5 23.75 56.5H21.25Z" fill="#004646"/>
<path d="M12.1338 4.63397L12.5 4.26784V11.25C12.5 11.9403 13.0597 12.5 13.75 12.5C14.4402 12.5 15 11.9403 15 11.25V4.26784L15.3661 4.63397C15.8543 5.12209 16.6456 5.12209 17.134 4.63397C17.6221 4.14584 17.6221 3.35434 17.134 2.86609L14.634 0.366094C14.1457 -0.122031 13.3545 -0.122031 12.8661 0.366094L10.3661 2.86609C9.87797 3.35422 9.87797 4.14572 10.3661 4.63397C10.8543 5.12209 11.6456 5.12209 12.1338 4.63397Z" fill="#004646"/>
<path d="M32 64C32.6904 64 33.25 63.4404 33.25 62.75C33.25 62.0596 32.6904 61.5 32 61.5C31.3096 61.5 30.75 62.0596 30.75 62.75C30.75 63.4404 31.3096 64 32 64Z" fill="#004646"/>
</g>
<defs>
<clipPath id="clip0_2092_1536">
<rect width="64" height="64" fill="white"/>
</clipPath>
</defs>
</svg>
