<svg width="64" height="64" viewBox="0 0 64 64" fill="none" xmlns="http://www.w3.org/2000/svg">
<g clip-path="url(#clip0_2092_1398)">
<path d="M62.75 55.25H61.5V15.2503C61.5 13.1826 59.8178 11.5003 57.75 11.5003H55.2498V2.49999C55.2498 1.1215 54.1283 0 52.7498 0H11.2502C9.87171 0 8.75022 1.1215 8.75022 2.49999V11.5005H6.2501C4.18236 11.5005 2.50012 13.1827 2.50012 15.2504V55.2502H1.25C0.559623 55.2502 0 55.8098 0 56.5002V60.2501C0 62.3179 1.68224 64.0001 3.74999 64.0001H60.2499C62.3176 64.0001 63.9999 62.3179 63.9999 60.2501V56.5002C64 55.8097 63.4404 55.25 62.75 55.25ZM55.2497 19.0004H58.9998V50.2498H55.2497V19.0004ZM55.2498 14.0003H57.7499C58.4391 14.0003 58.9999 14.5611 58.9999 15.2503V16.5004H55.2498V14.0003ZM5.00011 19.0004H8.75022V50.2498H5.00011V19.0004ZM6.2501 14.0003H8.75022V16.5004H5.00011V15.2503C5.00011 14.5611 5.56085 14.0003 6.2501 14.0003ZM5.00011 55.2499V52.7498H26.3745C27.0649 52.7498 27.6245 52.1902 27.6245 51.4998C27.6245 50.8094 27.0649 50.2498 26.3745 50.2498H11.2503V2.49999H52.7498V50.2498H37.6245C36.9341 50.2498 36.3745 50.8094 36.3745 51.4998C36.3745 52.1902 36.9341 52.7498 37.6245 52.7498H58.9998V55.2499H39.4998C38.8095 55.2499 38.2499 55.8095 38.2499 56.4999H25.7499C25.7499 55.8095 25.1903 55.2499 24.4999 55.2499H5.00011C5.00011 55.25 5.00011 55.25 5.00011 55.2499ZM61.5 60.25C61.5 60.9393 60.9393 61.5 60.25 61.5H3.74999C3.06074 61.5 2.49999 60.9393 2.49999 60.25V57.75H23.5855C24.0184 58.4968 24.8265 59 25.75 59H38.25C39.1735 59 39.9816 58.4968 40.4145 57.75H61.5V60.25Z" fill="#004646"/>
<path d="M46.4999 34.1487C45.4983 34.1487 44.5566 34.5388 43.8484 35.2471L40.3984 38.6971L39.8121 38.1108C39.1039 37.4026 38.1623 37.0126 37.1606 37.0126C36.159 37.0126 35.2174 37.4027 34.5093 38.1108C33.801 38.8191 33.4109 39.7607 33.4109 40.7623C33.4109 41.7639 33.801 42.7056 34.5091 43.4138L37.7469 46.6516C38.4779 47.3826 39.4381 47.7481 40.3984 47.7481C41.3586 47.7481 42.3189 47.3826 43.0499 46.6516L49.1514 40.5501C50.6134 39.0881 50.6134 36.7092 49.1514 35.2471C48.4431 34.5388 47.5015 34.1487 46.4999 34.1487ZM47.3836 38.7822L41.2821 44.8837C40.795 45.3709 40.002 45.3709 39.5148 44.8837L36.277 41.6459C36.0409 41.4099 35.911 41.0961 35.911 40.7623C35.911 40.4284 36.041 40.1147 36.277 39.8787C36.513 39.6426 36.8269 39.5127 37.1606 39.5127C37.4944 39.5127 37.8083 39.6427 38.0443 39.8787L39.5144 41.3488C39.7488 41.5832 40.0668 41.7149 40.3983 41.7149C40.7298 41.7149 41.0478 41.5832 41.2821 41.3488L45.616 37.0149C45.852 36.7788 46.1659 36.6489 46.4998 36.6489C46.8335 36.6489 47.1474 36.7789 47.3834 37.0149C47.8709 37.5021 47.8709 38.2949 47.3836 38.7822Z" fill="#004646"/>
<path d="M17.5005 5C15.4327 5 13.7505 6.68225 13.7505 8.75C13.7505 10.8177 15.4327 12.5 17.5005 12.5C19.5682 12.5 21.2505 10.8177 21.2505 8.75C21.2505 6.68225 19.5682 5 17.5005 5ZM17.5005 10C16.8112 10 16.2505 9.43925 16.2505 8.75C16.2505 8.06075 16.8112 7.5 17.5005 7.5C18.1897 7.5 18.7505 8.06075 18.7505 8.75C18.7505 9.43925 18.1897 10 17.5005 10Z" fill="#004646"/>
<path d="M25.0005 7.5H48.9996C49.69 7.5 50.2496 6.94037 50.2496 6.25C50.2496 5.55963 49.69 5 48.9996 5H25.0005C24.3101 5 23.7505 5.55963 23.7505 6.25C23.7505 6.94037 24.3101 7.5 25.0005 7.5Z" fill="#004646"/>
<path d="M25.0005 12.5H48.9996C49.69 12.5 50.2496 11.9404 50.2496 11.25C50.2496 10.5596 49.69 10 48.9996 10H25.0005C24.3101 10 23.7505 10.5596 23.7505 11.25C23.7505 11.9404 24.3101 12.5 25.0005 12.5Z" fill="#004646"/>
<path d="M17.5005 16.2502C15.4327 16.2502 13.7505 17.9325 13.7505 20.0002C13.7505 22.068 15.4327 23.7502 17.5005 23.7502C19.5682 23.7502 21.2505 22.068 21.2505 20.0002C21.2505 17.9325 19.5682 16.2502 17.5005 16.2502ZM17.5005 21.2502C16.8112 21.2502 16.2505 20.6895 16.2505 20.0002C16.2505 19.311 16.8112 18.7502 17.5005 18.7502C18.1897 18.7502 18.7505 19.311 18.7505 20.0002C18.7505 20.6895 18.1897 21.2502 17.5005 21.2502Z" fill="#004646"/>
<path d="M25.0005 18.7502H48.9996C49.69 18.7502 50.2496 18.1906 50.2496 17.5002C50.2496 16.8099 49.69 16.2502 48.9996 16.2502H25.0005C24.3101 16.2502 23.7505 16.8099 23.7505 17.5002C23.7505 18.1906 24.3101 18.7502 25.0005 18.7502Z" fill="#004646"/>
<path d="M25.0005 23.7502H48.9996C49.69 23.7502 50.2496 23.1906 50.2496 22.5002C50.2496 21.8099 49.69 21.2502 48.9996 21.2502H25.0005C24.3101 21.2502 23.7505 21.8099 23.7505 22.5002C23.7505 23.1906 24.3101 23.7502 25.0005 23.7502Z" fill="#004646"/>
<path d="M17.5005 27.5005C15.4327 27.5005 13.7505 29.1827 13.7505 31.2505C13.7505 33.3182 15.4327 35.0005 17.5005 35.0005C19.5682 35.0005 21.2505 33.3182 21.2505 31.2505C21.2505 29.1827 19.5682 27.5005 17.5005 27.5005ZM17.5005 32.5005C16.8112 32.5005 16.2505 31.9397 16.2505 31.2505C16.2505 30.5612 16.8112 30.0005 17.5005 30.0005C18.1897 30.0005 18.7505 30.5612 18.7505 31.2505C18.7505 31.9397 18.1897 32.5005 17.5005 32.5005Z" fill="#004646"/>
<path d="M25.0005 30.0005H48.9996C49.69 30.0005 50.2496 29.4409 50.2496 28.7505C50.2496 28.0601 49.69 27.5005 48.9996 27.5005H25.0005C24.3101 27.5005 23.7505 28.0601 23.7505 28.7505C23.7505 29.4409 24.3101 30.0005 25.0005 30.0005Z" fill="#004646"/>
<path d="M25.0005 35.0005H37.0001C37.6905 35.0005 38.2501 34.4409 38.2501 33.7505C38.2501 33.0601 37.6905 32.5005 37.0001 32.5005H25.0005C24.3101 32.5005 23.7505 33.0601 23.7505 33.7505C23.7505 34.4409 24.3101 35.0005 25.0005 35.0005Z" fill="#004646"/>
<path d="M17.5005 38.7505C15.4327 38.7505 13.7505 40.4327 13.7505 42.5005C13.7505 44.5682 15.4327 46.2505 17.5005 46.2505C19.5682 46.2505 21.2505 44.5682 21.2505 42.5005C21.2505 40.4327 19.5682 38.7505 17.5005 38.7505ZM17.5005 43.7506C16.8112 43.7506 16.2505 43.1899 16.2505 42.5006C16.2505 41.8114 16.8112 41.2506 17.5005 41.2506C18.1897 41.2506 18.7505 41.8114 18.7505 42.5006C18.7505 43.1899 18.1897 43.7506 17.5005 43.7506Z" fill="#004646"/>
<path d="M25.0006 41.2505H29.6C30.2904 41.2505 30.85 40.6909 30.85 40.0005C30.85 39.3101 30.2904 38.7505 29.6 38.7505H25.0007C24.3104 38.7505 23.7507 39.3101 23.7507 40.0005C23.7507 40.6909 24.3102 41.2505 25.0006 41.2505Z" fill="#004646"/>
<path d="M30.85 45.0005C30.85 44.3101 30.2904 43.7505 29.6 43.7505H25.0007C24.3104 43.7505 23.7507 44.3101 23.7507 45.0005C23.7507 45.6909 24.3104 46.2505 25.0007 46.2505H29.6C30.2904 46.2505 30.85 45.6909 30.85 45.0005Z" fill="#004646"/>
<path d="M31.9999 50.2498H31.999C31.3086 50.2498 30.7495 50.8094 30.7495 51.4998C30.7495 52.1901 31.3095 52.7498 31.9999 52.7498C32.6903 52.7498 33.2499 52.1901 33.2499 51.4998C33.2499 50.8094 32.6903 50.2498 31.9999 50.2498Z" fill="#004646"/>
</g>
<defs>
<clipPath id="clip0_2092_1398">
<rect width="64" height="64" fill="white"/>
</clipPath>
</defs>
</svg>
