<svg width="24" height="24" viewBox="0 0 24 24" fill="none" xmlns="http://www.w3.org/2000/svg">
<path fill-rule="evenodd" clip-rule="evenodd" d="M12.293 4.293C12.4805 4.10553 12.7348 4.00021 13 4.00021C13.2652 4.00021 13.5195 4.10553 13.707 4.293L20.707 11.293C20.8945 11.4805 20.9998 11.7348 20.9998 12C20.9998 12.2652 20.8945 12.5195 20.707 12.707L13.707 19.707C13.5184 19.8892 13.2658 19.99 13.0036 19.9877C12.7414 19.9854 12.4906 19.8802 12.3052 19.6948C12.1198 19.5094 12.0146 19.2586 12.0123 18.9964C12.01 18.7342 12.1108 18.4816 12.293 18.293L17.586 13L4 13C3.73478 13 3.48043 12.8946 3.29289 12.7071C3.10536 12.5196 3 12.2652 3 12C3 11.7348 3.10536 11.4804 3.29289 11.2929C3.48043 11.1054 3.73478 11 4 11L17.586 11L12.293 5.707C12.1055 5.51947 12.0002 5.26516 12.0002 5C12.0002 4.73484 12.1055 4.48053 12.293 4.293Z" fill="#004646"/>
</svg>
