<svg width="65" height="65" viewBox="0 0 65 65" fill="none" xmlns="http://www.w3.org/2000/svg">
<g clip-path="url(#clip0_2092_1512)">
<path d="M23.2324 14.9418C23.2324 18.1618 25.8522 20.7816 29.0723 20.7816C32.2923 20.7816 34.9121 18.1618 34.9121 14.9418C34.9121 11.7217 32.2923 9.10193 29.0723 9.10193C25.8522 9.10193 23.2324 11.7217 23.2324 14.9418ZM32.373 14.9418C32.373 16.7618 30.8924 18.2426 29.0723 18.2426C27.2521 18.2426 25.7715 16.7618 25.7715 14.9418C25.7715 13.1218 27.2521 11.641 29.0723 11.641C30.8924 11.641 32.373 13.1218 32.373 14.9418Z" fill="#004646"/>
<path d="M52.6855 32.5318V26.9143H56.875C57.576 26.9143 58.1445 26.3459 58.1445 25.6447V18.7893C58.1445 18.3532 57.9207 17.9477 57.5518 17.7153L47.2829 11.2445C46.6898 10.8707 45.9057 11.0487 45.5321 11.6417C45.1584 12.2348 45.3361 13.0187 45.9294 13.3926L55.6055 19.4899V24.3752H2.53906V19.4899L29.0723 2.77033L36.2553 7.29659C36.8484 7.67021 37.6326 7.49248 38.0061 6.89935C38.3798 6.30623 38.2021 5.52229 37.6088 5.14842L29.7491 0.19572C29.3354 -0.0649145 28.8091 -0.0649145 28.3955 0.19572L0.592744 17.7153C0.223818 17.9477 0 18.3532 0 18.7893V25.6447C0 26.3459 0.568496 26.9143 1.26953 26.9143H5.45898V50.2737H3.93555C3.23451 50.2737 2.66602 50.842 2.66602 51.5432V56.3674H1.26953C0.568496 56.3674 0 56.9358 0 57.6369V63.7307C0 64.4318 0.568496 65.0002 1.26953 65.0002H48.4961C57.5965 65.0002 65 57.5966 65 48.4963C65 40.8432 59.7636 34.3907 52.6855 32.5318ZM50.1465 26.9143V32.0747C49.6035 32.0205 49.053 31.9924 48.4961 31.9924C47.5885 31.9924 46.6982 32.0672 45.8301 32.2089V26.9143H50.1465ZM33.7695 41.0514V26.9143H43.291V32.8341C39.1441 34.2159 35.724 37.2012 33.7695 41.0514ZM31.2305 26.9143V50.2737H26.9141V26.9143H31.2305ZM14.8535 50.2737V26.9143H24.375V50.2737H14.8535ZM7.99805 26.9143H12.3145V50.2737H7.99805V26.9143ZM5.20508 52.8127H32.5H32.566C32.9049 54.0622 33.3861 55.2536 33.9931 56.3674H5.20508V52.8127ZM2.53906 62.4612V58.9065H35.6997C36.8332 60.2971 38.1881 61.5 39.7106 62.4612H2.53906ZM48.4961 62.4612C40.7959 62.4612 34.5312 56.1965 34.5312 48.4963C34.5312 40.7961 40.7959 34.5315 48.4961 34.5315C56.1963 34.5315 62.4609 40.7961 62.4609 48.4963C62.4609 56.1965 56.1963 62.4612 48.4961 62.4612Z" fill="#004646"/>
<path d="M50.5585 47.2079C50.2976 47.1157 50.0318 47.0198 49.7657 46.9209V41.9779C50.4289 42.199 50.8649 42.5081 50.8881 42.5247C51.4464 42.9427 52.2384 42.8313 52.6602 42.2746C53.0836 41.7158 52.9738 40.9195 52.415 40.4961C52.3478 40.4452 51.305 39.672 49.7657 39.3524V38.3113C49.7657 37.6101 49.1972 37.0417 48.4962 37.0417C47.7951 37.0417 47.2266 37.6101 47.2266 38.3113V39.3438C47.0608 39.3784 46.8934 39.4196 46.7238 39.4705C45.0658 39.9685 43.827 41.3849 43.4904 43.1669C43.1824 44.7978 43.7078 46.3729 44.8613 47.2776C45.4611 47.7481 46.2061 48.1778 47.2266 48.6313V55.0679C46.3796 54.9989 45.8302 54.7832 44.9031 54.1766C44.3164 53.7927 43.5296 53.9574 43.1457 54.544C42.762 55.1308 42.9264 55.9176 43.5131 56.3014C44.9627 57.2496 45.9551 57.5376 47.2266 57.6127V58.6809C47.2266 59.3821 47.7951 59.9504 48.4962 59.9504C49.1972 59.9504 49.7657 59.3821 49.7657 58.6809V57.4684C52.1288 56.8866 53.644 54.8761 53.9773 52.8935C54.4088 50.3264 53.0669 48.0945 50.5585 47.2079ZM46.4282 45.2797C46.03 44.9673 45.8562 44.3229 45.9856 43.638C46.0996 43.0338 46.4855 42.3142 47.2266 41.9878V45.8005C46.9281 45.6329 46.6574 45.4595 46.4282 45.2797ZM51.4734 52.4728C51.323 53.3669 50.7438 54.3119 49.7657 54.7864V49.6222C51.6739 50.3284 51.5563 51.9796 51.4734 52.4728Z" fill="#004646"/>
<path d="M41.7727 10.5422C42.1066 10.5422 42.4329 10.4064 42.6701 10.1703C42.9063 9.93413 43.0422 9.60659 43.0422 9.27271C43.0422 8.93755 42.9064 8.61128 42.6701 8.37515C42.4329 8.13774 42.1066 8.00317 41.7727 8.00317C41.4388 8.00317 41.1113 8.13774 40.8739 8.37515C40.6377 8.61128 40.5032 8.93755 40.5032 9.27271C40.5032 9.60659 40.6377 9.93413 40.8739 10.1703C41.1113 10.4064 41.4388 10.5422 41.7727 10.5422Z" fill="#004646"/>
</g>
<defs>
<clipPath id="clip0_2092_1512">
<rect width="65" height="65" fill="white"/>
</clipPath>
</defs>
</svg>
