<svg width="64" height="64" viewBox="0 0 64 64" fill="none" xmlns="http://www.w3.org/2000/svg">
<g clip-path="url(#clip0_2092_1480)">
<path d="M34.7112 24.7988H9.5566C7.89978 24.8603 7.90103 27.238 9.5566 27.2989H34.7112C36.368 27.2374 36.3668 24.8597 34.7112 24.7988Z" fill="#004646"/>
<path d="M35.9613 33.1934C35.9613 32.5031 35.4016 31.9434 34.7112 31.9434H9.5566C7.89978 32.0049 7.90103 34.3826 9.5566 34.4435H34.7112C35.4016 34.4435 35.9613 33.8837 35.9613 33.1934Z" fill="#004646"/>
<path d="M29.006 40.3379C29.006 39.6477 28.4463 39.0879 27.7559 39.0879H9.5566C7.89978 39.1494 7.90103 41.5271 9.5566 41.588H27.7559C28.4463 41.588 29.006 41.0283 29.006 40.3379Z" fill="#004646"/>
<path d="M8.30664 15.4228C8.30664 18.0319 10.4292 20.1547 13.0385 20.1547H22.1948C28.4651 19.916 28.4603 10.9275 22.1948 10.6912H13.0385C10.4292 10.691 8.30664 12.8137 8.30664 15.4228ZM13.0383 13.1911H22.1947C25.1519 13.3038 25.1497 17.5429 22.1947 17.6544H13.0383C10.0811 17.5419 10.0833 13.3026 13.0383 13.1911Z" fill="#004646"/>
<path d="M62.4837 25.3834L61.6534 24.553L62.4028 23.8036C63.9229 22.2835 63.9229 19.7468 62.4028 18.2269C60.8828 16.7069 58.3462 16.7068 56.8261 18.2269L56.0464 19.0065C55.5679 18.7279 54.9445 18.792 54.5345 19.202C51.9745 21.762 46.8252 26.9113 44.2677 29.4688V14.0131C44.2677 13.6858 44.1334 13.3613 43.9022 13.1298L33.5959 2.80964C33.3643 2.57763 33.0393 2.44287 32.7114 2.44287H21.9349C21.2445 2.44287 20.6848 3.00264 20.6848 3.69292C20.6848 4.3832 21.2445 4.94297 21.9349 4.94297H31.461V14.0134C31.461 14.7037 32.0206 15.2635 32.711 15.2635H41.7678V31.9683L32.6588 41.0779C30.5368 43.2 28.8035 45.6579 27.5205 48.3405C26.7363 49.9797 26.1201 51.7027 25.6868 53.4845C25.4694 54.378 26.3047 55.2099 27.1964 54.9947C29.0954 54.5334 30.936 53.8621 32.6844 52.994C36.1449 51.3714 39.1378 48.6206 41.7676 45.8584V59.0572H2.5001V4.94297H10.9204C11.6108 4.94297 12.1705 4.3832 12.1705 3.69292C12.1705 3.00264 11.6108 2.44287 10.9204 2.44287H1.25005C0.559647 2.44287 0 3.00264 0 3.69292V60.3071C0 60.9974 0.559647 61.5572 1.25005 61.5572H43.0177C43.7081 61.5572 44.2677 60.9974 44.2677 60.3071V43.3582C47.3562 40.2697 57.6929 29.9329 60.5952 27.0307L60.7159 27.1513C61.7629 28.1984 61.7629 29.9022 60.7159 30.9492L51.7688 39.8963C51.2806 40.3845 51.2806 41.176 51.7688 41.6643C52.257 42.1524 53.0485 42.1524 53.5367 41.6643L62.4838 32.7171C64.5055 30.695 64.5054 27.4051 62.4837 25.3834ZM33.961 12.7633V6.71341L40.0029 12.7633H33.961ZM58.594 19.9947C59.1502 19.4384 60.0787 19.4385 60.635 19.9947C61.1978 20.5573 61.1978 21.473 60.635 22.0356L59.8856 22.785L57.8446 20.7441L58.594 19.9947ZM55.4184 21.8538L58.8274 25.2628L55.4184 28.6716L52.0094 25.2626L55.4184 21.8538ZM37.8352 46.2545C35.288 48.8052 32.1519 50.7666 28.7427 51.9384C28.9633 51.2984 29.2106 50.6691 29.484 50.052C30.6687 47.3773 32.3405 44.9323 34.4267 42.846L50.2416 27.0306L53.6506 30.4396L37.8352 46.2545Z" fill="#004646"/>
<path d="M16.0085 53.6126C16.4706 53.808 17.0052 53.7086 17.3659 53.3591L17.7174 53.0183C18.1428 52.6062 18.6259 52.7645 18.7638 52.823C18.9018 52.8813 19.3518 53.1178 19.3518 53.7104C19.3518 54.4006 19.9115 54.9604 20.6019 54.9604H22.7485C24.4053 54.8989 24.404 52.5212 22.7485 52.4603H21.6264C21.3005 51.5994 20.6368 50.9009 19.7383 50.5206C19.0851 50.2442 18.3975 50.1739 17.7459 50.2964V49.8103C17.7204 46.1943 12.8632 45.0214 11.1976 48.2297L8.64416 53.209C7.94051 54.7024 10.058 55.7991 10.8689 54.3499L13.4223 49.3704C13.8794 48.4789 15.244 48.8062 15.2458 49.8103V52.4614C15.2458 52.9635 15.5462 53.4167 16.0085 53.6126Z" fill="#004646"/>
<path d="M15.3217 4.1709C15.7589 5.22602 17.2934 5.17652 17.6594 4.09402C18.0271 3.01615 16.8096 2.0384 15.8345 2.6209C15.31 2.93415 15.0867 3.60652 15.3217 4.1709Z" fill="#004646"/>
</g>
<defs>
<clipPath id="clip0_2092_1480">
<rect width="64" height="64" fill="white"/>
</clipPath>
</defs>
</svg>
