<svg width="64" height="64" viewBox="0 0 64 64" fill="none" xmlns="http://www.w3.org/2000/svg">
<g clip-path="url(#clip0_2092_1495)">
<path d="M52 33.25C52.6904 33.25 53.25 32.6904 53.25 32C53.25 31.3096 52.6904 30.75 52 30.75C51.3096 30.75 50.75 31.3096 50.75 32C50.75 32.6904 51.3096 33.25 52 33.25Z" fill="#004646"/>
<path d="M47 28.25C47.6904 28.25 48.25 27.6904 48.25 27C48.25 26.3096 47.6904 25.75 47 25.75C46.3096 25.75 45.75 26.3096 45.75 27C45.75 27.6904 46.3096 28.25 47 28.25Z" fill="#004646"/>
<path d="M44.5 35.75C45.1904 35.75 45.75 35.1904 45.75 34.5C45.75 33.8096 45.1904 33.25 44.5 33.25C43.8096 33.25 43.25 33.8096 43.25 34.5C43.25 35.1904 43.8096 35.75 44.5 35.75Z" fill="#004646"/>
<path d="M37 18.25C37.6904 18.25 38.25 17.6904 38.25 17C38.25 16.3096 37.6904 15.75 37 15.75C36.3096 15.75 35.75 16.3096 35.75 17C35.75 17.6904 36.3096 18.25 37 18.25Z" fill="#004646"/>
<path d="M34.5 13.25C35.1904 13.25 35.75 12.6904 35.75 12C35.75 11.3096 35.1904 10.75 34.5 10.75C33.8096 10.75 33.25 11.3096 33.25 12C33.25 12.6904 33.8096 13.25 34.5 13.25Z" fill="#004646"/>
<path d="M34.5 50.75C35.1904 50.75 35.75 50.1904 35.75 49.5C35.75 48.8096 35.1904 48.25 34.5 48.25C33.8096 48.25 33.25 48.8096 33.25 49.5C33.25 50.1904 33.8096 50.75 34.5 50.75Z" fill="#004646"/>
<path d="M32 23.25C32.6904 23.25 33.25 22.6904 33.25 22C33.25 21.3096 32.6904 20.75 32 20.75C31.3096 20.75 30.75 21.3096 30.75 22C30.75 22.6904 31.3096 23.25 32 23.25Z" fill="#004646"/>
<path d="M32 43.25C32.6904 43.25 33.25 42.6904 33.25 42C33.25 41.3096 32.6904 40.75 32 40.75C31.3096 40.75 30.75 41.3096 30.75 42C30.75 42.6904 31.3096 43.25 32 43.25Z" fill="#004646"/>
<path d="M27 48.25C27.6904 48.25 28.25 47.6904 28.25 47C28.25 46.3096 27.6904 45.75 27 45.75C26.3096 45.75 25.75 46.3096 25.75 47C25.75 47.6904 26.3096 48.25 27 48.25Z" fill="#004646"/>
<path d="M22 35.75C22.6904 35.75 23.25 35.1904 23.25 34.5C23.25 33.8096 22.6904 33.25 22 33.25C21.3096 33.25 20.75 33.8096 20.75 34.5C20.75 35.1904 21.3096 35.75 22 35.75Z" fill="#004646"/>
<path d="M17 38.25C17.6904 38.25 18.25 37.6904 18.25 37C18.25 36.3096 17.6904 35.75 17 35.75C16.3096 35.75 15.75 36.3096 15.75 37C15.75 37.6904 16.3096 38.25 17 38.25Z" fill="#004646"/>
<path d="M12 33.25C12.6904 33.25 13.25 32.6904 13.25 32C13.25 31.3096 12.6904 30.75 12 30.75C11.3096 30.75 10.75 31.3096 10.75 32C10.75 32.6904 11.3096 33.25 12 33.25Z" fill="#004646"/>
<path d="M14.5 18.25H15.75V20.75H14.5C13.8098 20.75 13.25 21.3097 13.25 22C13.25 22.6903 13.8098 23.25 14.5 23.25H19.5C20.1903 23.25 20.75 22.6903 20.75 22C20.75 21.3097 20.1903 20.75 19.5 20.75H18.25V18.25H19.5C22.9462 18.25 25.75 15.4462 25.75 12C25.75 11.3098 25.1903 10.75 24.5 10.75H22C19.9576 10.75 18.1412 11.7348 17 13.2544C15.8589 11.7349 14.0424 10.75 12 10.75H9.5C8.80975 10.75 8.25 11.3098 8.25 12C8.25 15.4464 11.0538 18.25 14.5 18.25ZM22 13.2487H23.0357C22.5199 14.7039 21.1296 15.75 19.5 15.75H18.4643C18.9801 14.295 20.3704 13.2487 22 13.2487ZM12 13.25C13.6296 13.25 15.0199 14.2949 15.5358 15.75H14.5C12.8704 15.75 11.4801 14.7051 10.9642 13.25H12Z" fill="#004646"/>
<path d="M32.8053 0.365017C32.3167 -0.122608 31.5252 -0.121483 31.0377 0.367267L26.6799 4.73539C24.1136 2.18839 20.6557 0.750017 17.0001 0.750017C9.41831 0.750017 3.25006 6.91827 3.25006 14.5C3.25006 18.1695 4.69731 21.6361 7.26044 24.2043L0.365063 31.1174C-0.121688 31.6051 -0.121688 32.3949 0.365063 32.8828L31.0376 63.6329C31.5264 64.1228 32.3176 64.1215 32.8054 63.6351L51.7674 44.7209C52.2562 44.2334 52.2572 43.4419 51.7697 42.953C51.2821 42.4644 50.4908 42.4634 50.0018 42.9508L47.3174 45.6284L33.7452 32.0553L47.3737 18.4268L60.9801 32L57.9629 35.0094C57.4742 35.4969 57.4732 36.2884 57.9607 36.7773C58.2048 37.022 58.5253 37.1445 58.8457 37.1445C59.1651 37.1445 59.4844 37.0228 59.7286 36.7795L63.6328 32.8851C63.8678 32.6506 64.0001 32.3321 64.0001 32.0001C64.0001 31.6681 63.8679 31.3498 63.6328 31.1151C63.3504 30.8333 32.8523 0.411892 32.8053 0.365017ZM5.75006 14.5C5.75006 8.29677 10.7968 3.25002 17.0001 3.25002C23.2372 3.25002 28.2501 8.30839 28.2501 14.5C28.2501 19.845 24.5951 24.1493 19.8463 25.3866C19.5249 25.4703 19.2501 25.6784 19.0824 25.965L17.0001 29.5246L14.9178 25.965C14.7501 25.6785 14.4754 25.4704 14.1542 25.3866C9.30181 24.1219 5.75006 19.7138 5.75006 14.5ZM3.01556 32L9.18569 25.8141C10.3609 26.6291 11.6431 27.249 13.0146 27.6628L15.9211 32.6313C16.1453 33.0144 16.5561 33.25 17.0001 33.25C17.4441 33.25 17.8548 33.0144 18.0791 32.6313L20.9856 27.6629C22.1587 27.3089 23.2693 26.8011 24.3046 26.1499L30.2096 32.0553L16.6224 45.6424L3.01556 32ZM45.5476 47.3939L31.9248 60.9824L18.3881 47.4124L31.9774 33.823L45.5476 47.3939ZM31.9774 30.2874L26.3078 24.6174C29.1109 22.0295 30.7501 18.344 30.7501 14.5C30.7501 11.6918 29.8842 8.94764 28.2941 6.65714L31.9248 3.01777L45.6037 16.6611L31.9774 30.2874Z" fill="#004646"/>
<path d="M54.875 41.125C55.5654 41.125 56.125 40.5654 56.125 39.875C56.125 39.1846 55.5654 38.625 54.875 38.625C54.1846 38.625 53.625 39.1846 53.625 39.875C53.625 40.5654 54.1846 41.125 54.875 41.125Z" fill="#004646"/>
</g>
<defs>
<clipPath id="clip0_2092_1495">
<rect width="64" height="64" fill="white"/>
</clipPath>
</defs>
</svg>
