<svg width="16" height="17" viewBox="0 0 16 17" fill="none" xmlns="http://www.w3.org/2000/svg">
<path d="M15.8806 7.954C15.2952 6.674 12.9999 2.5 7.99992 2.5C2.99991 2.5 0.704581 6.674 0.119248 7.954C0.040673 8.12554 0 8.31199 0 8.50067C0 8.68934 0.040673 8.8758 0.119248 9.04733C0.704581 10.326 2.99991 14.5 7.99992 14.5C12.9999 14.5 15.2952 10.326 15.8806 9.046C15.959 8.87466 15.9996 8.68844 15.9996 8.5C15.9996 8.31157 15.959 8.12534 15.8806 7.954ZM7.99992 13.1667C3.79525 13.1667 1.83325 9.58933 1.33325 8.50733C1.83325 7.41067 3.79525 3.83333 7.99992 3.83333C12.1946 3.83333 14.1572 7.39533 14.6666 8.5C14.1572 9.60467 12.1946 13.1667 7.99992 13.1667Z" fill="#60676D"/>
<path d="M8.00051 5.16699C7.34124 5.16699 6.69677 5.36249 6.14861 5.72876C5.60045 6.09503 5.1732 6.61563 4.92091 7.22471C4.66862 7.8338 4.60261 8.50402 4.73123 9.15063C4.85984 9.79723 5.17731 10.3912 5.64349 10.8573C6.10966 11.3235 6.70361 11.641 7.35021 11.7696C7.99681 11.8982 8.66703 11.8322 9.27612 11.5799C9.88521 11.3276 10.4058 10.9004 10.7721 10.3522C11.1383 9.80406 11.3338 9.1596 11.3338 8.50033C11.3328 7.6166 10.9813 6.76936 10.3564 6.14447C9.73147 5.51958 8.88424 5.16805 8.00051 5.16699ZM8.00051 10.5003C7.60495 10.5003 7.21827 10.383 6.88937 10.1633C6.56047 9.9435 6.30413 9.63115 6.15275 9.26569C6.00138 8.90024 5.96177 8.49811 6.03894 8.11015C6.11611 7.72218 6.30659 7.36582 6.5863 7.08611C6.866 6.80641 7.22237 6.61593 7.61033 6.53875C7.99829 6.46158 8.40042 6.50119 8.76588 6.65257C9.13133 6.80394 9.44369 7.06029 9.66345 7.38919C9.88321 7.71808 10.0005 8.10476 10.0005 8.50033C10.0005 9.03076 9.7898 9.53947 9.41472 9.91454C9.03965 10.2896 8.53094 10.5003 8.00051 10.5003Z" fill="#60676D"/>
</svg>
