<svg width="122" height="32" viewBox="0 0 122 32" fill="none" xmlns="http://www.w3.org/2000/svg">
<path fill-rule="evenodd" clip-rule="evenodd" d="M4.77251 31.5985C5.03892 31.3334 5.17212 31.0171 5.17212 30.6529V9.73098C5.17212 9.35081 5.03785 9.03241 4.77251 8.77364C4.50611 8.51488 4.20667 8.38602 3.82625 8.38602C3.44582 8.38602 3.1272 8.51488 2.86826 8.77364C2.60931 9.03241 2.48037 9.35188 2.48037 9.73098V30.6529C2.48037 31.0171 2.60931 31.3323 2.86826 31.5985C3.1272 31.8648 3.46181 31.9979 3.82625 31.9979C4.19069 31.9979 4.50611 31.8648 4.77251 31.5985ZM3.82625 7.45212C4.84498 7.45212 5.71878 7.08792 6.44872 6.35847C7.17867 5.62902 7.54311 4.73238 7.54311 3.71434C7.54311 2.69631 7.17867 1.8231 6.44872 1.09365C5.71878 0.364195 4.86096 0 3.82625 0C2.79154 0 1.91027 0.364195 1.18032 1.09365C0.450378 1.8231 0.0859375 2.68033 0.0859375 3.71434C0.0859375 4.74835 0.450378 5.62902 1.18032 6.35847C1.91027 7.08792 2.80752 7.45212 3.82625 7.45212ZM23.0968 31.5879C23.3707 31.3142 23.5071 30.9798 23.5071 30.5848V3.53331L32.6298 3.55568C33.4813 3.48007 33.9523 3.01684 34.0439 2.16599C33.9672 1.31514 33.4962 0.84446 32.6298 0.752879L10.1208 0.684724C9.26941 0.760332 8.79841 1.22356 8.70676 2.07441C8.78349 2.94017 9.25449 3.41191 10.1208 3.48752L20.7024 3.50989V30.5848C20.7024 30.9798 20.8388 31.3142 21.1127 31.5879C21.3865 31.8616 21.6977 31.9979 22.093 31.9979C22.4884 31.9979 22.823 31.8616 23.0968 31.5879ZM55.4404 9.50416C55.8048 9.50416 56.1202 9.37105 56.3866 9.10483V9.10696C56.653 8.84073 56.7863 8.5021 56.7863 8.13791C56.7863 7.77371 56.652 7.45851 56.3866 7.19228C56.1202 6.92606 55.8048 6.79295 55.4404 6.79295H39.6586C37.5146 6.79295 35.6061 7.58309 33.9341 9.16339C32.3528 10.8342 31.5621 12.7489 31.5621 14.9064V30.655C31.5621 31.0192 31.6953 31.3344 31.9617 31.6007C32.227 31.8669 32.5275 32 32.908 32C33.2884 32 33.607 31.8669 33.8659 31.6007C34.1249 31.3355 34.2538 31.0192 34.2538 30.655V14.9064C34.2538 13.4624 34.7856 12.1866 35.8501 11.077C36.9594 10.0281 38.2296 9.50416 39.6586 9.50416H55.4404ZM80.3854 29.6274C81.9667 27.9555 82.7574 26.0494 82.7574 23.9068L82.7564 23.9047V14.9021C82.7564 12.7446 81.9657 10.831 80.3843 9.15913C78.7113 7.57884 76.7964 6.78868 74.6374 6.78868H60.3838C60.0033 6.78868 59.6837 6.92286 59.4258 7.18802C59.1668 7.45424 59.0379 7.75348 59.0379 8.13364C59.0379 8.51381 59.1668 8.83754 59.4258 9.1027C59.6847 9.36892 60.0033 9.50203 60.3838 9.50203H74.6374C76.0824 9.50203 77.359 10.027 78.4694 11.0749C79.519 12.1845 80.0433 13.4613 80.0433 14.9042V23.9068C80.0433 25.3348 79.518 26.6042 78.4694 27.7127C77.359 28.7766 76.0813 29.308 74.6374 29.308H65.6287C64.1997 29.308 62.9295 28.7766 61.8202 27.7127C60.7557 26.6042 60.2239 25.3348 60.2239 23.9068V22.4032C60.2239 20.9145 60.7514 19.6419 61.8085 18.5856C62.8656 17.5292 64.139 17.001 65.6287 17.001H70.3888C70.57 17.4674 70.8524 17.8923 71.2381 18.2778C71.9681 19.0073 72.8259 19.3715 73.8606 19.3715C74.8953 19.3715 75.7776 19.0073 76.5065 18.2778C77.2354 17.5484 77.6009 16.6911 77.6009 15.6571C77.6009 14.6231 77.2365 13.7424 76.5065 13.013C75.7766 12.2835 74.8793 11.9193 73.8606 11.9193C72.8419 11.9193 71.9681 12.2835 71.2381 13.013C70.8492 13.4027 70.5636 13.8361 70.3824 14.3121H65.6287C64.139 14.3121 62.7814 14.6742 61.5581 15.3951C60.3337 16.1171 59.3576 17.0926 58.6276 18.3236C57.8977 19.5546 57.5332 20.9145 57.5332 22.4032V23.9068C57.5332 26.0494 58.3239 27.9566 59.9053 29.6274C61.5783 31.2077 63.4858 31.9979 65.6298 31.9979H74.6385C76.7974 31.9979 78.7123 31.2077 80.3854 29.6274ZM90.2135 31.5985C90.4799 31.3334 90.6131 31.0171 90.6131 30.6529V9.73098C90.6131 9.35081 90.4789 9.03241 90.2135 8.77364C89.9471 8.51488 89.6477 8.38602 89.2673 8.38602C88.8868 8.38602 88.5672 8.51594 88.3093 8.77364C88.0503 9.03241 87.9214 9.35188 87.9214 9.73098V30.6529C87.9214 31.0171 88.0503 31.3323 88.3093 31.5985C88.5682 31.8648 88.9028 31.9979 89.2673 31.9979C89.6317 31.9979 89.9471 31.8648 90.2135 31.5985ZM89.2673 7.45212C90.286 7.45212 91.1598 7.08792 91.8897 6.35847C92.6197 5.62902 92.9841 4.73238 92.9841 3.71434C92.9841 2.69631 92.6197 1.8231 91.8897 1.09365C91.1598 0.364195 90.302 0 89.2673 0C88.2326 0 87.3513 0.364195 86.6213 1.09365C85.8914 1.8231 85.527 2.68033 85.527 3.71434C85.527 4.74835 85.8914 5.62902 86.6213 6.35847C87.3513 7.08792 88.2485 7.45212 89.2673 7.45212ZM99.0677 31.5985C99.3341 31.3334 99.4673 31.0171 99.4673 30.6529V8.22736C99.4673 7.84719 99.3341 7.52879 99.0677 7.27002C98.8013 7.01125 98.4859 6.8824 98.1215 6.8824C97.757 6.8824 97.4405 7.01231 97.1752 7.27002C96.9088 7.52879 96.7756 7.84825 96.7756 8.22736V30.6529C96.7756 31.0171 96.9088 31.3323 97.1752 31.5985C97.4405 31.8648 97.757 31.9979 98.1215 31.9979C98.4859 31.9979 98.8013 31.8637 99.0677 31.5985ZM121.6 31.4388C121.867 31.1736 122 30.8574 122 30.4932L121.998 30.4921V14.9713C121.998 12.8288 121.207 10.9226 119.626 9.25071C117.954 7.67041 116.038 6.88027 113.879 6.88027H108.489C108.307 6.46603 108.044 6.08693 107.698 5.74084C106.968 5.01138 106.087 4.64719 105.052 4.64719C104.018 4.64719 103.139 5.01138 102.418 5.74084C101.696 6.47029 101.334 7.36692 101.334 8.38496C101.334 9.40299 101.696 10.2762 102.418 11.0057C103.141 11.7351 104.018 12.0993 105.052 12.0993C106.087 12.0993 106.968 11.7351 107.698 11.0057C108.128 10.5776 108.429 10.0984 108.606 9.57018H113.879C115.324 9.57018 116.6 10.0952 117.711 11.143C118.76 12.2686 119.285 13.5444 119.285 14.9724V30.4932C119.285 30.8574 119.418 31.1726 119.684 31.4388C119.951 31.705 120.289 31.8381 120.654 31.8381C121.018 31.8381 121.334 31.705 121.6 31.4388Z" fill="#D9D9D9"/>
</svg>
