<svg width="64" height="64" viewBox="0 0 64 64" fill="none" xmlns="http://www.w3.org/2000/svg">
<g clip-path="url(#clip0_2092_1490)">
<path d="M27 8.75C27 13.5747 30.9253 17.5 35.75 17.5C40.5747 17.5 44.5 13.5747 44.5 8.75C44.5 3.92525 40.5747 0 35.75 0C30.9253 0 27 3.92525 27 8.75ZM35.75 2.5C39.1962 2.5 42 5.30375 42 8.75C42 12.1962 39.1962 15 35.75 15C32.3038 15 29.5 12.1962 29.5 8.75C29.5 5.30375 32.3038 2.5 35.75 2.5Z" fill="#004646"/>
<path d="M62.75 12C52.8717 12 47.7303 16.9434 42.7581 21.724C42.2616 22.2014 41.7517 22.6912 41.2411 23.1721C35.5039 22.7905 31.3057 21.3172 28.271 20.0637C27.6329 19.7997 26.902 20.1036 26.6385 20.7419C26.375 21.3799 26.6785 22.1107 27.3166 22.3744C30.0972 23.523 33.8029 24.8463 38.7026 25.4443C35.237 28.3325 31.0411 30.75 24.5 30.75H2.5V14.5171C8.93987 14.695 13.465 16.2292 17.067 17.7321C17.7046 17.9984 18.4361 17.6971 18.7019 17.0599C18.9678 16.4228 18.6667 15.6908 18.0296 15.425C13.9705 13.7314 8.8025 12 1.25 12C0.55975 12 0 12.5598 0 13.25V62.75C0 63.4403 0.55975 64 1.25 64H62.75C63.4403 64 64 63.4403 64 62.75C64 60.7949 64 15.3767 64 13.25C64 12.5598 63.4403 12 62.75 12ZM61.5 43.9184L53.7104 33.25H61.5V43.9184ZM44.4909 23.5261C49.0865 19.1076 53.44 14.9224 61.5 14.5299V30.75H35.287C38.8824 28.8996 41.5841 26.3211 44.4909 23.5261ZM40.6069 61.5L37.1618 33.25H42.633L53.198 61.5H40.6069ZM10.802 61.5L21.367 33.25H26.8382L23.3931 61.5H10.802ZM29.3569 33.25H34.6431L38.0882 61.5H25.9118L29.3569 33.25ZM2.5 33.25H10.2896L2.5 43.9184V33.25ZM2.5 48.1577L13.385 33.25H18.698L8.133 61.5H2.5V48.1577ZM55.867 61.5L45.302 33.25H50.615L61.5 48.1577V61.5H55.867Z" fill="#004646"/>
<path d="M22.625 20.25C23.3154 20.25 23.875 19.6904 23.875 19C23.875 18.3096 23.3154 17.75 22.625 17.75C21.9346 17.75 21.375 18.3096 21.375 19C21.375 19.6904 21.9346 20.25 22.625 20.25Z" fill="#004646"/>
</g>
<defs>
<clipPath id="clip0_2092_1490">
<rect width="64" height="64" fill="white"/>
</clipPath>
</defs>
</svg>
