<svg width="64" height="64" viewBox="0 0 64 64" fill="none" xmlns="http://www.w3.org/2000/svg">
<g clip-path="url(#clip0_2092_1553)">
<path d="M59.681 15.5052C57.8302 15.5052 56.271 16.7015 55.8313 18.3151H50.5121V11.4474C50.5121 11.1188 50.3773 10.7948 50.145 10.5625L39.9247 0.365125C39.6935 0.13375 39.3688 0 39.0418 0H7.53971C6.84946 0 6.28971 0.55975 6.28971 1.25V5.93138H1.59521C0.904965 5.93138 0.345215 6.49113 0.345215 7.18138V59.6956C0.345215 60.3859 0.904965 60.9456 1.59521 60.9456H16.7976C17.4878 60.9456 18.0476 60.3859 18.0476 59.6956C18.0476 59.0054 17.4878 58.4456 16.7976 58.4456H2.84521V8.43137H6.28984V53.7644C6.28984 54.4546 6.84959 55.0144 7.53984 55.0144H41.9432V58.4456H28.0476C27.3573 58.4456 26.7976 59.0054 26.7976 59.6956C26.7976 60.3859 27.3573 60.9456 28.0476 60.9456H42.2988C43.024 62.7344 44.781 64 46.8296 64C49.524 64 51.716 61.8116 51.716 59.1217V50.3877V44.6335V34.173H55.8315C56.2712 35.7866 57.8303 36.9829 59.6811 36.9829C61.8722 36.9829 63.6548 35.3064 63.6548 33.2456V19.2425C63.6547 17.1818 61.8722 15.5052 59.681 15.5052ZM50.466 31.673H43.1931H37.9516V20.8151H55.7073V31.673H50.466ZM49.216 49.1377H44.4431V45.8835H49.216V49.1377ZM35.4516 33.2455C35.4516 33.9161 34.7768 34.4827 33.978 34.4827C33.1791 34.4827 32.5042 33.9161 32.5042 33.2455V19.2425C32.5042 18.5719 33.1791 18.0053 33.978 18.0053C34.7768 18.0053 35.4516 18.5719 35.4516 19.2425V33.2455ZM40.2918 4.263L46.2395 10.1975H40.2918V4.263ZM16.8651 2.5H22.6605V9.10225L20.6013 7.23938C20.1252 6.80875 19.4002 6.80875 18.9241 7.23938L16.865 9.10225V2.5H16.8651ZM8.78971 52.5144V2.5H14.3651V11.9187C14.3651 12.413 14.6562 12.8607 15.108 13.0614C15.5598 13.2619 16.0873 13.1774 16.4537 12.8457L19.7628 9.85213L23.072 12.8457C23.3065 13.0577 23.6066 13.1687 23.9108 13.1687C24.0822 13.1687 24.2548 13.1335 24.4177 13.0614C24.8695 12.8609 25.1606 12.413 25.1606 11.9187V2.5H37.792V11.4474C37.792 12.1376 38.3517 12.6974 39.042 12.6974H48.0122V18.315H37.8278C37.3881 16.7014 35.829 15.5051 33.9782 15.5051C31.7871 15.5051 30.0045 17.1816 30.0045 19.2424V33.2453C30.0045 35.306 31.7871 36.9825 33.9782 36.9825C35.829 36.9825 37.3882 35.7863 37.8278 34.1726H41.9433V44.6331V50.3874V52.5141H8.78971V52.5144ZM46.8296 61.5C45.5137 61.5 44.4431 60.4331 44.4431 59.1217V51.6377H49.216V59.1217C49.216 60.4331 48.1453 61.5 46.8296 61.5ZM49.216 43.3834H44.4431V34.1729H49.216V43.3834ZM61.1547 33.2455C61.1547 33.9161 60.4798 34.4827 59.681 34.4827C58.8821 34.4827 58.2073 33.9161 58.2073 33.2455V19.2425C58.2073 18.5719 58.8821 18.0053 59.681 18.0053C60.4798 18.0053 61.1547 18.5719 61.1547 19.2425V33.2455Z" fill="#004646"/>
<path d="M12.7991 23.4547H25.0788C25.7691 23.4547 26.3288 22.895 26.3288 22.2047C26.3288 21.5145 25.7691 20.9547 25.0788 20.9547H12.7991C12.1088 20.9547 11.5491 21.5145 11.5491 22.2047C11.5491 22.895 12.1087 23.4547 12.7991 23.4547Z" fill="#004646"/>
<path d="M25.0789 26.1881H19.248C18.5578 26.1881 17.998 26.7479 17.998 27.4381C17.998 28.1284 18.5578 28.6881 19.248 28.6881H25.0789C25.7692 28.6881 26.3289 28.1284 26.3289 27.4381C26.3289 26.7479 25.7692 26.1881 25.0789 26.1881Z" fill="#004646"/>
<path d="M12.7991 28.6881H14.2372C14.9274 28.6881 15.4872 28.1284 15.4872 27.4381C15.4872 26.7479 14.9274 26.1881 14.2372 26.1881H12.7991C12.1088 26.1881 11.5491 26.7479 11.5491 27.4381C11.5491 28.1284 12.1087 28.6881 12.7991 28.6881Z" fill="#004646"/>
<path d="M12.7991 33.9214H25.0788C25.7691 33.9214 26.3288 33.3616 26.3288 32.6714C26.3288 31.9811 25.7691 31.4214 25.0788 31.4214H12.7991C12.1088 31.4214 11.5491 31.9811 11.5491 32.6714C11.5491 33.3616 12.1087 33.9214 12.7991 33.9214Z" fill="#004646"/>
<path d="M12.7991 39.1583H27.5859C28.2762 39.1583 28.8359 38.5986 28.8359 37.9083C28.8359 37.2181 28.2762 36.6583 27.5859 36.6583H12.7991C12.1088 36.6583 11.5491 37.2181 11.5491 37.9083C11.5491 38.5986 12.1087 39.1583 12.7991 39.1583Z" fill="#004646"/>
<path d="M21.9431 18.2178H26.3322C27.0225 18.2178 27.5822 17.658 27.5822 16.9678C27.5822 16.2775 27.0225 15.7178 26.3322 15.7178H21.9431C21.2529 15.7178 20.6931 16.2775 20.6931 16.9678C20.6931 17.658 21.2527 18.2178 21.9431 18.2178Z" fill="#004646"/>
<path d="M12.7991 18.2178H16.9289C17.6192 18.2178 18.1789 17.658 18.1789 16.9678C18.1789 16.2775 17.6192 15.7178 16.9289 15.7178H12.7991C12.1088 15.7178 11.5491 16.2775 11.5491 16.9678C11.5491 17.658 12.1087 18.2178 12.7991 18.2178Z" fill="#004646"/>
<path d="M34.8728 41.8917H12.7991C12.1088 41.8917 11.5491 42.4515 11.5491 43.1417V48.3751C11.5491 49.0653 12.1088 49.6251 12.7991 49.6251H34.8729C35.5632 49.6251 36.1229 49.0653 36.1229 48.3751V43.1417C36.1228 42.4513 35.5632 41.8917 34.8728 41.8917ZM33.6228 47.1251H14.0491V44.3917H33.6229V47.1251H33.6228Z" fill="#004646"/>
<path d="M22.4226 58.4457H22.4154C21.7252 58.4457 21.1689 59.0054 21.1689 59.6957C21.1689 60.3859 21.7322 60.9457 22.4224 60.9457C23.1127 60.9457 23.6724 60.3859 23.6724 59.6957C23.6724 59.0054 23.1128 58.4457 22.4226 58.4457Z" fill="#004646"/>
</g>
<defs>
<clipPath id="clip0_2092_1553">
<rect width="64" height="64" fill="white"/>
</clipPath>
</defs>
</svg>
