<svg width="128" height="56" viewBox="0 0 128 56" fill="none" xmlns="http://www.w3.org/2000/svg">
<path fill-rule="evenodd" clip-rule="evenodd" d="M6.14407 16.978C5.87503 17.1333 5.70929 17.4204 5.70929 17.731V38.269C5.70929 38.5796 5.87503 38.8667 6.14407 39.022L23.9304 49.291C24.1995 49.4463 24.5309 49.4463 24.8 49.291L42.5863 39.022C42.8554 38.8667 43.0211 38.5796 43.0211 38.269V17.731C43.0211 17.4204 42.8554 17.1333 42.5863 16.978L37.692 14.1522C37.6419 14.1917 37.5762 14.2397 37.5009 14.2916C36.5812 14.9193 36.1367 15.7692 36.1977 16.7673C36.2369 17.408 36.3328 17.7262 36.5987 18.0575C38.4947 20.4373 39.5974 23.0437 40.0071 26.0991C40.1161 26.9142 40.1161 29.1371 40.0028 29.9347C39.4884 33.6962 37.9455 36.7821 35.2867 39.3711C32.8416 41.7596 29.7775 43.2372 26.3124 43.7122C25.6019 43.8081 23.8846 43.843 23.148 43.7733C21.1866 43.5989 19.2427 43.0497 17.4557 42.178C17.1375 42.0211 16.876 41.8773 16.876 41.8555C16.876 41.8337 16.9152 41.8032 16.9675 41.7901C17.0198 41.7727 17.168 41.7116 17.3031 41.6506L17.5516 41.5417L17.0983 41.3935C15.1238 40.731 12.9968 39.3057 11.4887 37.6363C10.9003 36.9825 10.8829 36.9477 11.2229 37.1264C11.589 37.3225 12.173 37.523 12.6351 37.6102C13.2365 37.7279 14.6095 37.7061 14.6095 37.5797C14.6095 37.5579 14.5441 37.5405 14.4613 37.5405C13.9165 37.5405 12.9227 37.1787 12.2907 36.7515C10.4383 35.4919 9.08279 32.7329 8.70359 29.4552L8.69468 29.3785C8.64526 28.9534 8.62209 28.7541 8.66343 28.7397C8.69991 28.727 8.78662 28.8581 8.94984 29.105L8.98254 29.1545C9.37482 29.7473 9.83683 30.2964 10.2771 30.68C10.7129 31.0636 11.5846 31.6868 11.6282 31.6433C11.6369 31.6345 11.5454 31.4994 11.419 31.3469C10.6127 30.3444 9.90657 28.9148 9.57532 27.6072C9.34431 26.6919 9.3138 26.4216 9.31816 25.3363C9.31816 24.4821 9.33559 24.2205 9.41405 23.7455C9.63198 22.4858 9.94144 21.5095 10.4732 20.4155C10.665 20.0232 10.8306 19.7137 10.8393 19.7225C10.8524 19.7312 10.8393 19.9753 10.8132 20.2586C10.6301 22.3899 11.5454 24.6433 13.1799 26.0642C13.3804 26.2342 13.546 26.3693 13.5547 26.365C13.5591 26.3563 13.4283 26.1645 13.2583 25.9422C12.7309 25.2448 12.2384 24.1377 12.0641 23.266C11.8461 22.172 11.8592 21.1913 12.1077 20.0668C12.2559 19.4043 12.4215 18.9423 12.7615 18.2362C13.3412 17.0332 14.1301 16.0133 15.1979 15.098C16.0391 14.3744 16.7452 13.9168 17.6169 13.5332C19.343 12.7705 21.1474 12.339 23.196 12.1995C23.6536 12.169 25.1181 12.2169 25.7327 12.2823C26.8005 12.4 28.4437 12.7705 29.189 13.0625L29.3634 13.1322L29.189 13.1104C28.4306 13.0189 28.1473 12.9928 27.3977 12.9623C26.478 12.923 25.092 12.9666 24.7433 13.0451C23.257 13.3763 21.8012 14.1042 20.5808 15.1285C19.7004 15.8651 18.8679 16.8894 18.3274 17.9093C18.1661 18.2144 18.1443 18.2798 18.2097 18.258C18.9812 18.0182 21.3218 17.6216 21.9668 17.6216C22.1412 17.6216 22.1455 17.578 21.9799 17.4778C21.7489 17.3427 21.3784 16.8981 21.2782 16.6322C21.1561 16.3097 21.1431 15.791 21.252 15.4205C21.3436 15.1067 21.4961 14.7449 21.5353 14.7493C21.5484 14.7493 21.6443 14.9236 21.7489 15.1372C22.0714 15.8128 22.5858 16.2181 23.4139 16.4579C23.6187 16.5189 24.2638 16.6496 24.8522 16.7499C26.1337 16.9722 27.0664 17.1945 28.0079 17.5083C29.9649 18.1664 31.5819 19.0948 31.7345 19.6484C31.7999 19.8837 31.7955 20.0319 31.7127 20.3588L31.6429 20.6421L31.8522 20.8165C31.9698 20.9124 32.2837 21.2087 32.5495 21.479C33.26 22.1982 33.3995 22.5468 33.1597 23.0481C33.0595 23.266 32.7108 23.7237 32.6498 23.7237C32.6323 23.7237 32.4536 23.6234 32.2531 23.497C31.486 23.0176 30.501 22.6079 29.5639 22.3725C28.7009 22.1546 28.1561 22.0935 27.1623 22.0935C25.9288 22.0979 25.0789 22.2374 23.9762 22.6122C23.427 22.804 22.5247 23.2355 22.0235 23.545C19.6393 25.0269 18.0223 27.4285 17.5254 30.2398C17.3903 31.0025 17.3772 32.5978 17.4993 33.33C17.8218 35.2217 18.6587 36.9128 19.9532 38.2771C21.6094 40.0249 23.8367 41.0448 26.2688 41.1712C26.7134 41.1973 26.648 41.1712 25.9201 41.0273C24.2551 40.7048 22.5465 39.7764 21.3087 38.5299C20.5546 37.7715 20.0447 37.0479 19.5565 36.0367C18.9463 34.7858 18.7197 33.8661 18.6761 32.4583C18.6456 31.5517 18.6848 31.2074 18.9071 30.3531C19.3212 28.7579 20.0665 27.4808 21.2259 26.3781C22.5204 25.1446 24.1374 24.3862 25.9419 24.1595C26.3472 24.1116 27.3933 24.1072 27.7725 24.1552L28.0122 24.1857L27.6853 24.2162C26.9008 24.299 26.0508 24.5387 25.4145 24.8613C24.9481 25.0923 24.242 25.6022 23.8585 25.9814C22.8342 26.9883 22.2066 28.2523 22.0148 29.6819C21.9538 30.1613 21.9843 31.1594 22.0845 31.652C22.5422 33.9882 24.3641 35.9147 26.6611 36.4944C28.8273 37.0436 31.0632 36.4334 32.6323 34.8599C34.1622 33.33 34.7986 31.1333 34.306 29.0455C34.2625 28.845 34.2276 28.6707 34.2407 28.662C34.2799 28.6227 34.7114 29.7734 34.8291 30.2267C35.1647 31.5212 35.1821 32.977 34.8814 34.2323C34.7811 34.6507 34.5196 35.4309 34.3889 35.6793C34.3453 35.7709 34.3104 35.858 34.3235 35.8667C34.3322 35.8755 34.4848 35.7839 34.6635 35.6619C36.6248 34.3107 38.0021 32.0617 38.5557 29.3027C38.7344 28.4092 38.7998 27.8077 38.8259 26.8183L38.8477 25.8812L38.7213 26.2517C38.5557 26.7485 38.3639 27.1016 38.0588 27.459C37.6012 28.0038 36.9343 28.4484 36.2195 28.6838C35.8621 28.8014 35.1516 28.9366 35.108 28.8973C35.1037 28.8886 35.1996 28.8102 35.326 28.723C35.57 28.553 36.0669 28.0692 36.2543 27.8208C36.821 27.0536 36.9386 26.0642 36.59 24.992C36.3633 24.2816 35.9885 23.5885 35.0862 22.2069C34.2581 20.9385 34.0533 20.3632 34.0184 19.1646C33.9922 18.3626 34.0533 17.8831 34.2668 17.2337C34.5109 16.484 34.864 15.8956 35.3957 15.3377C35.788 14.9367 36.1192 14.6883 36.6074 14.4442C36.8548 14.3205 37.3017 14.1603 37.5792 14.0871L24.8 6.70902C24.5309 6.55369 24.1995 6.55369 23.9304 6.70902L6.14407 16.978ZM27.7286 24.7568C25.4535 25.1011 23.6359 26.8881 23.2131 29.1938C23.126 29.6733 23.1172 30.5145 23.2001 30.9591L23.2567 31.286L23.2872 30.8065C23.3962 28.9193 24.7735 27.3676 26.6608 27.0058C27.1795 26.9056 28.025 26.9492 28.5263 27.0974C29.2847 27.324 29.8556 27.6771 30.4136 28.2655C31.185 29.0849 31.5511 30.0786 31.5076 31.2206C31.464 32.3538 31.0586 33.2604 30.2523 34.0363C29.7292 34.5331 29.2193 34.8339 28.5263 35.0387C28.0338 35.1869 27.1446 35.2305 26.639 35.1303C26.4603 35.0954 26.3077 35.0693 26.299 35.078C26.2729 35.0998 26.87 35.3133 27.2056 35.4005C27.9684 35.601 28.9185 35.6315 29.6682 35.4702C31.2155 35.1434 32.5362 34.1888 33.3033 32.8333C33.5605 32.38 33.7174 31.9921 33.8612 31.4429C34.0138 30.8763 34.053 29.7823 33.9397 29.1938C33.3948 26.2474 30.6751 24.3035 27.7286 24.7568Z" fill="#004646"/>
<path fill-rule="evenodd" clip-rule="evenodd" d="M48.2956 13.6817C48.5647 13.837 48.7304 14.1241 48.7304 14.4348V41.5652C48.7304 41.8759 48.5647 42.1629 48.2956 42.3183L24.8 55.8835C24.5309 56.0388 24.1995 56.0388 23.9304 55.8835L0.434782 42.3183C0.165738 42.1629 0 41.8759 0 41.5652V14.4348C0 14.1241 0.165738 13.8371 0.434782 13.6817L23.9304 0.116499C24.1995 -0.0388331 24.5309 -0.0388332 24.8 0.116499L48.2956 13.6817ZM24.8 3.69676C24.5309 3.54143 24.1995 3.54143 23.9304 3.69676L3.53538 15.4718C3.26634 15.6272 3.1006 15.9142 3.1006 16.2249V39.7751C3.1006 40.0858 3.26634 40.3728 3.53538 40.5281L23.9304 52.3032C24.1995 52.4586 24.5309 52.4586 24.8 52.3032L45.195 40.5281C45.4641 40.3728 45.6298 40.0858 45.6298 39.7751V16.2249C45.6298 15.9142 45.4641 15.6272 45.195 15.4718L24.8 3.69676Z" fill="#004646"/>
<path d="M68.3374 17.5H66.2935L65.481 15.3862H61.7612L60.9932 17.5H59L62.6245 8.19434H64.6113L68.3374 17.5ZM64.8779 13.8184L63.5957 10.3652L62.3389 13.8184H64.8779ZM69.1626 17.9443L71.2002 18.1919C71.234 18.4289 71.3123 18.5918 71.4351 18.6807C71.6043 18.8076 71.8709 18.8711 72.2349 18.8711C72.7004 18.8711 73.0495 18.8013 73.2822 18.6616C73.4388 18.5685 73.5573 18.4183 73.6377 18.2109C73.6927 18.0628 73.7202 17.7899 73.7202 17.3921V16.4082C73.187 17.1361 72.5142 17.5 71.7017 17.5C70.7961 17.5 70.0788 17.117 69.5498 16.3511C69.1351 15.7459 68.9277 14.9927 68.9277 14.0913C68.9277 12.9614 69.1986 12.0981 69.7402 11.5015C70.2861 10.9048 70.9632 10.6064 71.7715 10.6064C72.6051 10.6064 73.2928 10.9725 73.8345 11.7046V10.7588H75.5039V16.8081C75.5039 17.6037 75.4383 18.1982 75.3071 18.5918C75.1759 18.9854 74.9919 19.2943 74.7549 19.5186C74.5179 19.7428 74.2005 19.9185 73.8027 20.0454C73.4092 20.1724 72.9098 20.2358 72.3047 20.2358C71.1621 20.2358 70.3517 20.0391 69.8735 19.6455C69.3953 19.2562 69.1562 18.7611 69.1562 18.1602C69.1562 18.1009 69.1584 18.029 69.1626 17.9443ZM70.7559 13.9897C70.7559 14.7049 70.8934 15.2297 71.1685 15.564C71.4478 15.894 71.7905 16.0591 72.1968 16.0591C72.6327 16.0591 73.0008 15.8898 73.3013 15.5513C73.6017 15.2085 73.752 14.7028 73.752 14.0342C73.752 13.3359 73.6081 12.8175 73.3203 12.479C73.0326 12.1405 72.6686 11.9712 72.2285 11.9712C71.8011 11.9712 71.4478 12.1383 71.1685 12.4727C70.8934 12.8027 70.7559 13.3084 70.7559 13.9897ZM78.9824 17.5H77.1987V10.7588H78.8555V11.7173C79.139 11.2645 79.3929 10.9661 79.6172 10.8223C79.8457 10.6784 80.1038 10.6064 80.3916 10.6064C80.7979 10.6064 81.1893 10.7186 81.5659 10.9429L81.0137 12.498C80.7132 12.3034 80.4339 12.2061 80.1758 12.2061C79.9261 12.2061 79.7145 12.2759 79.541 12.4155C79.3675 12.5509 79.23 12.7985 79.1284 13.1582C79.0311 13.5179 78.9824 14.2712 78.9824 15.418V17.5ZM82.3403 9.84473V8.19434H84.124V9.84473H82.3403ZM82.3403 17.5V10.7588H84.124V17.5H82.3403ZM91.8364 12.752L90.0781 13.0693C90.0189 12.7181 89.8835 12.4536 89.6719 12.2759C89.4645 12.0981 89.1937 12.0093 88.8594 12.0093C88.415 12.0093 88.0596 12.1637 87.793 12.4727C87.5306 12.7773 87.3994 13.2894 87.3994 14.0088C87.3994 14.8086 87.5327 15.3735 87.7993 15.7036C88.0702 16.0337 88.432 16.1987 88.8848 16.1987C89.2233 16.1987 89.5005 16.1035 89.7163 15.9131C89.9321 15.7184 90.0845 15.3862 90.1733 14.9165L91.9253 15.2148C91.7433 16.0189 91.3942 16.6261 90.8779 17.0366C90.3617 17.4471 89.6698 17.6523 88.8022 17.6523C87.8162 17.6523 87.0291 17.3413 86.4409 16.7192C85.8569 16.0972 85.5649 15.236 85.5649 14.1357C85.5649 13.0228 85.859 12.1574 86.4473 11.5396C87.0355 10.9175 87.8311 10.6064 88.834 10.6064C89.6549 10.6064 90.3066 10.7842 90.7891 11.1396C91.2757 11.4909 91.6248 12.0283 91.8364 12.752ZM97.6318 17.5V16.4907C97.3864 16.8504 97.0627 17.134 96.6606 17.3413C96.2629 17.5487 95.8418 17.6523 95.3975 17.6523C94.9447 17.6523 94.5384 17.5529 94.1787 17.354C93.819 17.1551 93.5588 16.8758 93.3979 16.5161C93.2371 16.1564 93.1567 15.6592 93.1567 15.0244V10.7588H94.9404V13.8564C94.9404 14.8044 94.9722 15.3862 95.0356 15.6021C95.1034 15.8136 95.224 15.9829 95.3975 16.1099C95.571 16.2326 95.791 16.2939 96.0576 16.2939C96.3623 16.2939 96.6353 16.2114 96.8765 16.0464C97.1177 15.8771 97.2827 15.6698 97.3716 15.4243C97.4604 15.1746 97.5049 14.5674 97.5049 13.6025V10.7588H99.2886V17.5H97.6318ZM101.142 17.5V8.19434H102.926V17.5H101.142ZM107.852 10.7588V12.1807H106.633V14.8975C106.633 15.4476 106.643 15.7692 106.665 15.8623C106.69 15.9512 106.743 16.0252 106.823 16.0845C106.908 16.1437 107.009 16.1733 107.128 16.1733C107.293 16.1733 107.532 16.1162 107.845 16.002L107.998 17.3857C107.583 17.5635 107.113 17.6523 106.588 17.6523C106.267 17.6523 105.977 17.5994 105.719 17.4937C105.461 17.3836 105.27 17.244 105.147 17.0747C105.029 16.9012 104.946 16.6685 104.9 16.3765C104.862 16.1691 104.843 15.7502 104.843 15.1196V12.1807H104.024V10.7588H104.843V9.41943L106.633 8.37842V10.7588H107.852ZM113.526 17.5V16.4907C113.281 16.8504 112.957 17.134 112.555 17.3413C112.157 17.5487 111.736 17.6523 111.292 17.6523C110.839 17.6523 110.433 17.5529 110.073 17.354C109.714 17.1551 109.453 16.8758 109.292 16.5161C109.132 16.1564 109.051 15.6592 109.051 15.0244V10.7588H110.835V13.8564C110.835 14.8044 110.867 15.3862 110.93 15.6021C110.998 15.8136 111.118 15.9829 111.292 16.1099C111.465 16.2326 111.686 16.2939 111.952 16.2939C112.257 16.2939 112.53 16.2114 112.771 16.0464C113.012 15.8771 113.177 15.6698 113.266 15.4243C113.355 15.1746 113.399 14.5674 113.399 13.6025V10.7588H115.183V17.5H113.526ZM118.744 17.5H116.96V10.7588H118.617V11.7173C118.901 11.2645 119.155 10.9661 119.379 10.8223C119.607 10.6784 119.866 10.6064 120.153 10.6064C120.56 10.6064 120.951 10.7186 121.328 10.9429L120.775 12.498C120.475 12.3034 120.196 12.2061 119.938 12.2061C119.688 12.2061 119.476 12.2759 119.303 12.4155C119.129 12.5509 118.992 12.7985 118.89 13.1582C118.793 13.5179 118.744 14.2712 118.744 15.418V17.5ZM126.006 15.3545L127.783 15.6528C127.555 16.3045 127.193 16.8018 126.698 17.1445C126.207 17.4831 125.591 17.6523 124.851 17.6523C123.678 17.6523 122.811 17.2694 122.248 16.5034C121.804 15.8898 121.582 15.1154 121.582 14.1802C121.582 13.063 121.874 12.1891 122.458 11.5586C123.042 10.9238 123.78 10.6064 124.673 10.6064C125.676 10.6064 126.467 10.9386 127.047 11.603C127.627 12.2632 127.904 13.2767 127.878 14.6436H123.41C123.422 15.1725 123.566 15.5851 123.841 15.8813C124.116 16.1733 124.459 16.3193 124.87 16.3193C125.149 16.3193 125.384 16.2432 125.574 16.0908C125.765 15.9385 125.909 15.693 126.006 15.3545ZM126.107 13.5518C126.095 13.0355 125.961 12.644 125.708 12.3774C125.454 12.1066 125.145 11.9712 124.781 11.9712C124.391 11.9712 124.07 12.113 123.816 12.3965C123.562 12.68 123.437 13.0651 123.441 13.5518H126.107ZM59.8887 32.5V23.1943H61.7676V32.5H59.8887ZM69.6831 32.5H67.8994V29.0596C67.8994 28.3317 67.8613 27.862 67.7852 27.6504C67.709 27.4346 67.5841 27.2674 67.4106 27.1489C67.2414 27.0304 67.0361 26.9712 66.7949 26.9712C66.486 26.9712 66.2088 27.0558 65.9634 27.2251C65.7179 27.3944 65.5487 27.6187 65.4556 27.8979C65.3667 28.1772 65.3223 28.6935 65.3223 29.4468V32.5H63.5386V25.7588H65.1953V26.749C65.7835 25.9873 66.5241 25.6064 67.417 25.6064C67.8105 25.6064 68.1702 25.6784 68.4961 25.8223C68.8219 25.9619 69.0674 26.1418 69.2324 26.3618C69.4017 26.5819 69.5181 26.8315 69.5815 27.1108C69.6493 27.3901 69.6831 27.79 69.6831 28.3105V32.5ZM70.8701 30.5767L72.6602 30.3037C72.7363 30.6507 72.8908 30.9152 73.1235 31.0972C73.3563 31.2749 73.6821 31.3638 74.1011 31.3638C74.5623 31.3638 74.9093 31.2791 75.1421 31.1099C75.2987 30.9914 75.377 30.8327 75.377 30.6338C75.377 30.4984 75.3346 30.3862 75.25 30.2974C75.1611 30.2127 74.9622 30.1344 74.6533 30.0625C73.2145 29.7451 72.3026 29.4552 71.9175 29.1929C71.3843 28.8289 71.1177 28.3232 71.1177 27.6758C71.1177 27.0918 71.3483 26.6009 71.8096 26.2031C72.2708 25.8053 72.986 25.6064 73.9551 25.6064C74.8776 25.6064 75.5631 25.7567 76.0117 26.0571C76.4603 26.3576 76.7692 26.8019 76.9385 27.3901L75.2563 27.7012C75.1844 27.4388 75.0469 27.2378 74.8438 27.0981C74.6449 26.9585 74.3592 26.8887 73.9868 26.8887C73.5171 26.8887 73.1807 26.9543 72.9775 27.0854C72.8421 27.1785 72.7744 27.2992 72.7744 27.4473C72.7744 27.5742 72.8337 27.6821 72.9521 27.771C73.113 27.8895 73.6673 28.0566 74.6152 28.2725C75.5674 28.4883 76.2318 28.7528 76.6084 29.0659C76.9808 29.3833 77.167 29.8255 77.167 30.3926C77.167 31.0104 76.9089 31.5415 76.3926 31.9858C75.8763 32.4302 75.1125 32.6523 74.1011 32.6523C73.1828 32.6523 72.4549 32.4661 71.9175 32.0938C71.3843 31.7214 71.0352 31.2157 70.8701 30.5767ZM83.1719 32.5V31.4907C82.9264 31.8504 82.6027 32.134 82.2007 32.3413C81.8029 32.5487 81.3818 32.6523 80.9375 32.6523C80.4847 32.6523 80.0785 32.5529 79.7188 32.354C79.359 32.1551 79.0988 31.8758 78.938 31.5161C78.7772 31.1564 78.6968 30.6592 78.6968 30.0244V25.7588H80.4805V28.8564C80.4805 29.8044 80.5122 30.3862 80.5757 30.6021C80.6434 30.8136 80.764 30.9829 80.9375 31.1099C81.111 31.2326 81.3311 31.2939 81.5977 31.2939C81.9023 31.2939 82.1753 31.2114 82.4165 31.0464C82.6577 30.8771 82.8228 30.6698 82.9116 30.4243C83.0005 30.1746 83.0449 29.5674 83.0449 28.6025V25.7588H84.8286V32.5H83.1719ZM88.3896 32.5H86.606V25.7588H88.2627V26.7173C88.5462 26.2645 88.8001 25.9661 89.0244 25.8223C89.2529 25.6784 89.5111 25.6064 89.7988 25.6064C90.2051 25.6064 90.5965 25.7186 90.9731 25.9429L90.4209 27.498C90.1204 27.3034 89.8411 27.2061 89.583 27.2061C89.3333 27.2061 89.1217 27.2759 88.9482 27.4155C88.7747 27.5509 88.6372 27.7985 88.5356 28.1582C88.4383 28.5179 88.3896 29.2712 88.3896 30.418V32.5ZM93.0806 27.8154L91.4619 27.5234C91.6439 26.8717 91.957 26.3893 92.4014 26.0762C92.8457 25.763 93.5059 25.6064 94.3818 25.6064C95.1774 25.6064 95.7699 25.7017 96.1592 25.8921C96.5485 26.0783 96.8214 26.3174 96.978 26.6094C97.1388 26.8971 97.2192 27.4282 97.2192 28.2026L97.2002 30.2847C97.2002 30.8771 97.2277 31.3151 97.2827 31.5986C97.342 31.8779 97.4499 32.1784 97.6064 32.5H95.8418C95.7952 32.3815 95.7381 32.2059 95.6704 31.9731C95.6408 31.8673 95.6196 31.7975 95.6069 31.7637C95.3022 32.0599 94.9764 32.2821 94.6294 32.4302C94.2824 32.5783 93.9121 32.6523 93.5186 32.6523C92.8245 32.6523 92.2765 32.464 91.8745 32.0874C91.4767 31.7108 91.2778 31.2347 91.2778 30.6592C91.2778 30.2783 91.3688 29.9398 91.5508 29.6436C91.7327 29.3431 91.9867 29.1146 92.3125 28.958C92.6426 28.7972 93.1165 28.6576 93.7344 28.5391C94.568 28.3825 95.1457 28.2365 95.4673 28.1011V27.9233C95.4673 27.5806 95.3827 27.3372 95.2134 27.1934C95.0441 27.0452 94.7246 26.9712 94.2549 26.9712C93.9375 26.9712 93.6899 27.0347 93.5122 27.1616C93.3345 27.2843 93.1906 27.5023 93.0806 27.8154ZM95.4673 29.2627C95.2388 29.3389 94.877 29.4298 94.3818 29.5356C93.8867 29.6414 93.563 29.7451 93.4106 29.8467C93.1779 30.0117 93.0615 30.2212 93.0615 30.4751C93.0615 30.7248 93.1546 30.9406 93.3408 31.1226C93.527 31.3045 93.764 31.3955 94.0518 31.3955C94.3734 31.3955 94.6802 31.2897 94.9722 31.0781C95.188 30.9173 95.3298 30.7205 95.3975 30.4878C95.444 30.3354 95.4673 30.0456 95.4673 29.6182V29.2627ZM105.116 32.5H103.332V29.0596C103.332 28.3317 103.294 27.862 103.218 27.6504C103.142 27.4346 103.017 27.2674 102.843 27.1489C102.674 27.0304 102.469 26.9712 102.228 26.9712C101.919 26.9712 101.641 27.0558 101.396 27.2251C101.151 27.3944 100.981 27.6187 100.888 27.8979C100.799 28.1772 100.755 28.6935 100.755 29.4468V32.5H98.9712V25.7588H100.628V26.749C101.216 25.9873 101.957 25.6064 102.85 25.6064C103.243 25.6064 103.603 25.6784 103.929 25.8223C104.255 25.9619 104.5 26.1418 104.665 26.3618C104.834 26.5819 104.951 26.8315 105.014 27.1108C105.082 27.3901 105.116 27.79 105.116 28.3105V32.5ZM112.809 27.752L111.051 28.0693C110.992 27.7181 110.856 27.4536 110.645 27.2759C110.437 27.0981 110.166 27.0093 109.832 27.0093C109.388 27.0093 109.032 27.1637 108.766 27.4727C108.503 27.7773 108.372 28.2894 108.372 29.0088C108.372 29.8086 108.505 30.3735 108.772 30.7036C109.043 31.0337 109.405 31.1987 109.857 31.1987C110.196 31.1987 110.473 31.1035 110.689 30.9131C110.905 30.7184 111.057 30.3862 111.146 29.9165L112.898 30.2148C112.716 31.0189 112.367 31.6261 111.851 32.0366C111.334 32.4471 110.642 32.6523 109.775 32.6523C108.789 32.6523 108.002 32.3413 107.414 31.7192C106.83 31.0972 106.538 30.236 106.538 29.1357C106.538 28.0228 106.832 27.1574 107.42 26.5396C108.008 25.9175 108.804 25.6064 109.807 25.6064C110.628 25.6064 111.279 25.7842 111.762 26.1396C112.248 26.4909 112.597 27.0283 112.809 27.752ZM118.071 30.3545L119.849 30.6528C119.62 31.3045 119.258 31.8018 118.763 32.1445C118.272 32.4831 117.657 32.6523 116.916 32.6523C115.744 32.6523 114.876 32.2694 114.313 31.5034C113.869 30.8898 113.647 30.1154 113.647 29.1802C113.647 28.063 113.939 27.1891 114.523 26.5586C115.107 25.9238 115.845 25.6064 116.738 25.6064C117.741 25.6064 118.533 25.9386 119.112 26.603C119.692 27.2632 119.969 28.2767 119.944 29.6436H115.475C115.488 30.1725 115.632 30.5851 115.907 30.8813C116.182 31.1733 116.525 31.3193 116.935 31.3193C117.214 31.3193 117.449 31.2432 117.64 31.0908C117.83 30.9385 117.974 30.693 118.071 30.3545ZM118.173 28.5518C118.16 28.0355 118.027 27.644 117.773 27.3774C117.519 27.1066 117.21 26.9712 116.846 26.9712C116.457 26.9712 116.135 27.113 115.881 27.3965C115.627 27.68 115.503 28.0651 115.507 28.5518H118.173ZM59.4697 44.4722L61.2979 44.2944C61.4079 44.908 61.63 45.3587 61.9644 45.6465C62.3029 45.9342 62.7578 46.0781 63.3291 46.0781C63.9342 46.0781 64.3892 45.9512 64.6938 45.6973C65.0028 45.4391 65.1572 45.1387 65.1572 44.7959C65.1572 44.5758 65.0916 44.3896 64.9604 44.2373C64.8335 44.0807 64.6092 43.9453 64.2876 43.8311C64.0675 43.7549 63.5661 43.6195 62.7832 43.4248C61.776 43.1751 61.0693 42.8683 60.6631 42.5044C60.0918 41.9924 59.8062 41.3682 59.8062 40.6318C59.8062 40.1579 59.9395 39.7157 60.2061 39.3052C60.4769 38.8905 60.8641 38.5752 61.3677 38.3594C61.8755 38.1436 62.487 38.0356 63.2021 38.0356C64.3701 38.0356 65.2482 38.2917 65.8364 38.8037C66.4289 39.3158 66.7399 39.9992 66.7695 40.854L64.8906 40.9365C64.8102 40.4583 64.6367 40.1156 64.3701 39.9082C64.1077 39.6966 63.7121 39.5908 63.1831 39.5908C62.6372 39.5908 62.2098 39.703 61.9009 39.9272C61.702 40.0711 61.6025 40.2637 61.6025 40.5049C61.6025 40.7249 61.6956 40.9132 61.8818 41.0698C62.1188 41.2687 62.6943 41.4761 63.6084 41.6919C64.5225 41.9077 65.1974 42.132 65.6333 42.3647C66.0734 42.5933 66.4162 42.9085 66.6616 43.3105C66.9113 43.7083 67.0361 44.2013 67.0361 44.7896C67.0361 45.3228 66.888 45.8221 66.5918 46.2876C66.2956 46.7531 65.8766 47.1001 65.335 47.3286C64.7933 47.5529 64.1183 47.665 63.3101 47.665C62.1336 47.665 61.2301 47.3942 60.5996 46.8525C59.9691 46.3066 59.5924 45.5132 59.4697 44.4722ZM67.7598 40.7588H69.6577L71.27 45.5449L72.8442 40.7588H74.6914L72.311 47.2461L71.8857 48.4204C71.7292 48.814 71.5789 49.1144 71.4351 49.3218C71.2954 49.5291 71.1325 49.6963 70.9463 49.8232C70.7643 49.9544 70.5379 50.056 70.2671 50.1279C70.0005 50.1999 69.6979 50.2358 69.3594 50.2358C69.0166 50.2358 68.6802 50.1999 68.3501 50.1279L68.1914 48.7314C68.4707 48.7865 68.7225 48.814 68.9468 48.814C69.3615 48.814 69.6683 48.6912 69.8672 48.4458C70.0661 48.2046 70.2184 47.8957 70.3242 47.519L67.7598 40.7588ZM75.2119 45.5767L77.002 45.3037C77.0781 45.6507 77.2326 45.9152 77.4653 46.0972C77.6981 46.2749 78.0239 46.3638 78.4429 46.3638C78.9041 46.3638 79.2511 46.2791 79.4839 46.1099C79.6405 45.9914 79.7188 45.8327 79.7188 45.6338C79.7188 45.4984 79.6764 45.3862 79.5918 45.2974C79.5029 45.2127 79.304 45.1344 78.9951 45.0625C77.5563 44.7451 76.6444 44.4552 76.2593 44.1929C75.7261 43.8289 75.4595 43.3232 75.4595 42.6758C75.4595 42.0918 75.6901 41.6009 76.1514 41.2031C76.6126 40.8053 77.3278 40.6064 78.2969 40.6064C79.2194 40.6064 79.9049 40.7567 80.3535 41.0571C80.8021 41.3576 81.111 41.8019 81.2803 42.3901L79.5981 42.7012C79.5262 42.4388 79.3887 42.2378 79.1855 42.0981C78.9867 41.9585 78.701 41.8887 78.3286 41.8887C77.8589 41.8887 77.5225 41.9543 77.3193 42.0854C77.1839 42.1785 77.1162 42.2992 77.1162 42.4473C77.1162 42.5742 77.1755 42.6821 77.2939 42.771C77.4548 42.8895 78.0091 43.0566 78.957 43.2725C79.9092 43.4883 80.5736 43.7528 80.9502 44.0659C81.3226 44.3833 81.5088 44.8255 81.5088 45.3926C81.5088 46.0104 81.2506 46.5415 80.7344 46.9858C80.2181 47.4302 79.4543 47.6523 78.4429 47.6523C77.5246 47.6523 76.7967 47.4661 76.2593 47.0938C75.7261 46.7214 75.377 46.2157 75.2119 45.5767ZM86.168 40.7588V42.1807H84.9492V44.8975C84.9492 45.4476 84.9598 45.7692 84.981 45.8623C85.0063 45.9512 85.0592 46.0252 85.1396 46.0845C85.2243 46.1437 85.3258 46.1733 85.4443 46.1733C85.6094 46.1733 85.8485 46.1162 86.1616 46.002L86.314 47.3857C85.8993 47.5635 85.4295 47.6523 84.9048 47.6523C84.5832 47.6523 84.2933 47.5994 84.0352 47.4937C83.777 47.3836 83.5866 47.244 83.4639 47.0747C83.3454 46.9012 83.2629 46.6685 83.2163 46.3765C83.1782 46.1691 83.1592 45.7502 83.1592 45.1196V42.1807H82.3403V40.7588H83.1592V39.4194L84.9492 38.3784V40.7588H86.168ZM91.3096 45.3545L93.0869 45.6528C92.8584 46.3045 92.4966 46.8018 92.0015 47.1445C91.5106 47.4831 90.8949 47.6523 90.1543 47.6523C88.9821 47.6523 88.1146 47.2694 87.5518 46.5034C87.1074 45.8898 86.8853 45.1154 86.8853 44.1802C86.8853 43.063 87.1772 42.1891 87.7612 41.5586C88.3452 40.9238 89.0837 40.6064 89.9766 40.6064C90.9795 40.6064 91.7708 40.9386 92.3506 41.603C92.9303 42.2632 93.2075 43.2767 93.1821 44.6436H88.7134C88.7261 45.1725 88.87 45.5851 89.145 45.8813C89.4201 46.1733 89.7629 46.3193 90.1733 46.3193C90.4526 46.3193 90.6875 46.2432 90.8779 46.0908C91.0684 45.9385 91.2122 45.693 91.3096 45.3545ZM91.4111 43.5518C91.3984 43.0355 91.2651 42.644 91.0112 42.3774C90.7573 42.1066 90.4484 41.9712 90.0845 41.9712C89.6952 41.9712 89.3735 42.113 89.1196 42.3965C88.8657 42.68 88.7409 43.0651 88.7451 43.5518H91.4111ZM94.5088 40.7588H96.1528V41.6792C96.7411 40.964 97.4414 40.6064 98.2539 40.6064C98.6855 40.6064 99.0601 40.6953 99.3774 40.873C99.6948 41.0508 99.9551 41.3195 100.158 41.6792C100.454 41.3195 100.774 41.0508 101.117 40.873C101.459 40.6953 101.826 40.6064 102.215 40.6064C102.71 40.6064 103.129 40.708 103.472 40.9111C103.814 41.11 104.07 41.4041 104.24 41.7935C104.362 42.0812 104.424 42.5467 104.424 43.1899V47.5H102.64V43.647C102.64 42.9784 102.579 42.5467 102.456 42.3521C102.291 42.0981 102.037 41.9712 101.694 41.9712C101.445 41.9712 101.21 42.0474 100.99 42.1997C100.77 42.3521 100.611 42.5763 100.514 42.8726C100.416 43.1646 100.368 43.6279 100.368 44.2627V47.5H98.584V43.8057C98.584 43.1497 98.5522 42.7266 98.4888 42.5361C98.4253 42.3457 98.3258 42.2039 98.1904 42.1108C98.0592 42.0177 97.8794 41.9712 97.6509 41.9712C97.3758 41.9712 97.1283 42.0452 96.9082 42.1934C96.6881 42.3415 96.5295 42.5552 96.4321 42.8345C96.339 43.1138 96.2925 43.5771 96.2925 44.2246V47.5H94.5088V40.7588Z" fill="#004646"/>
</svg>
