<svg width="167" height="56" viewBox="0 0 167 56" fill="none" xmlns="http://www.w3.org/2000/svg">
<path fill-rule="evenodd" clip-rule="evenodd" d="M6.14407 16.978C5.87503 17.1333 5.70929 17.4204 5.70929 17.731V38.269C5.70929 38.5796 5.87503 38.8667 6.14407 39.022L23.9304 49.291C24.1995 49.4463 24.5309 49.4463 24.8 49.291L42.5863 39.022C42.8554 38.8667 43.0211 38.5796 43.0211 38.269V17.731C43.0211 17.4204 42.8554 17.1333 42.5863 16.978L37.692 14.1522C37.6419 14.1917 37.5762 14.2397 37.5009 14.2916C36.5812 14.9193 36.1367 15.7692 36.1977 16.7673C36.2369 17.408 36.3328 17.7262 36.5987 18.0575C38.4947 20.4373 39.5974 23.0437 40.0071 26.0991C40.1161 26.9142 40.1161 29.1371 40.0028 29.9347C39.4884 33.6962 37.9455 36.7821 35.2867 39.3711C32.8416 41.7596 29.7775 43.2372 26.3124 43.7122C25.6019 43.8081 23.8846 43.843 23.148 43.7733C21.1866 43.5989 19.2427 43.0497 17.4557 42.178C17.1375 42.0211 16.876 41.8773 16.876 41.8555C16.876 41.8337 16.9152 41.8032 16.9675 41.7901C17.0198 41.7727 17.168 41.7116 17.3031 41.6506L17.5516 41.5417L17.0983 41.3935C15.1238 40.731 12.9968 39.3057 11.4887 37.6363C10.9003 36.9825 10.8829 36.9477 11.2229 37.1264C11.589 37.3225 12.173 37.523 12.6351 37.6102C13.2365 37.7279 14.6095 37.7061 14.6095 37.5797C14.6095 37.5579 14.5441 37.5405 14.4613 37.5405C13.9165 37.5405 12.9227 37.1787 12.2907 36.7515C10.4383 35.4919 9.08279 32.7329 8.70359 29.4552L8.69468 29.3785C8.64526 28.9534 8.62209 28.7541 8.66343 28.7397C8.69991 28.727 8.78662 28.8581 8.94984 29.105L8.98254 29.1545C9.37482 29.7473 9.83683 30.2964 10.2771 30.68C10.7129 31.0636 11.5846 31.6868 11.6282 31.6433C11.6369 31.6345 11.5454 31.4994 11.419 31.3469C10.6127 30.3444 9.90657 28.9148 9.57532 27.6072C9.34431 26.6919 9.3138 26.4216 9.31816 25.3363C9.31816 24.4821 9.33559 24.2205 9.41405 23.7455C9.63198 22.4858 9.94144 21.5095 10.4732 20.4155C10.665 20.0232 10.8306 19.7137 10.8393 19.7225C10.8524 19.7312 10.8393 19.9753 10.8132 20.2586C10.6301 22.3899 11.5454 24.6433 13.1799 26.0642C13.3804 26.2342 13.546 26.3693 13.5547 26.365C13.5591 26.3563 13.4283 26.1645 13.2583 25.9422C12.7309 25.2448 12.2384 24.1377 12.0641 23.266C11.8461 22.172 11.8592 21.1913 12.1077 20.0668C12.2559 19.4043 12.4215 18.9423 12.7615 18.2362C13.3412 17.0332 14.1301 16.0133 15.1979 15.098C16.0391 14.3744 16.7452 13.9168 17.6169 13.5332C19.343 12.7705 21.1474 12.339 23.196 12.1995C23.6536 12.169 25.1181 12.2169 25.7327 12.2823C26.8005 12.4 28.4437 12.7705 29.189 13.0625L29.3634 13.1322L29.189 13.1104C28.4306 13.0189 28.1473 12.9928 27.3977 12.9623C26.478 12.923 25.092 12.9666 24.7433 13.0451C23.257 13.3763 21.8012 14.1042 20.5808 15.1285C19.7004 15.8651 18.8679 16.8894 18.3274 17.9093C18.1661 18.2144 18.1443 18.2798 18.2097 18.258C18.9812 18.0182 21.3218 17.6216 21.9668 17.6216C22.1412 17.6216 22.1455 17.578 21.9799 17.4778C21.7489 17.3427 21.3784 16.8981 21.2782 16.6322C21.1561 16.3097 21.1431 15.791 21.252 15.4205C21.3436 15.1067 21.4961 14.7449 21.5353 14.7493C21.5484 14.7493 21.6443 14.9236 21.7489 15.1372C22.0714 15.8128 22.5858 16.2181 23.4139 16.4579C23.6187 16.5189 24.2638 16.6496 24.8522 16.7499C26.1337 16.9722 27.0664 17.1945 28.0079 17.5083C29.9649 18.1664 31.5819 19.0948 31.7345 19.6484C31.7999 19.8837 31.7955 20.0319 31.7127 20.3588L31.6429 20.6421L31.8522 20.8165C31.9698 20.9124 32.2837 21.2087 32.5495 21.479C33.26 22.1982 33.3995 22.5468 33.1597 23.0481C33.0595 23.266 32.7108 23.7237 32.6498 23.7237C32.6323 23.7237 32.4536 23.6234 32.2531 23.497C31.486 23.0176 30.501 22.6079 29.5639 22.3725C28.7009 22.1546 28.1561 22.0935 27.1623 22.0935C25.9288 22.0979 25.0789 22.2374 23.9762 22.6122C23.427 22.804 22.5247 23.2355 22.0235 23.545C19.6393 25.0269 18.0223 27.4285 17.5254 30.2398C17.3903 31.0025 17.3772 32.5978 17.4993 33.33C17.8218 35.2217 18.6587 36.9128 19.9532 38.2771C21.6094 40.0249 23.8367 41.0448 26.2688 41.1712C26.7134 41.1973 26.648 41.1712 25.9201 41.0273C24.2551 40.7048 22.5465 39.7764 21.3087 38.5299C20.5546 37.7715 20.0447 37.0479 19.5565 36.0367C18.9463 34.7858 18.7197 33.8661 18.6761 32.4583C18.6456 31.5517 18.6848 31.2074 18.9071 30.3531C19.3212 28.7579 20.0665 27.4808 21.2259 26.3781C22.5204 25.1446 24.1374 24.3862 25.9419 24.1595C26.3472 24.1116 27.3933 24.1072 27.7725 24.1552L28.0122 24.1857L27.6853 24.2162C26.9008 24.299 26.0508 24.5387 25.4145 24.8613C24.9481 25.0923 24.242 25.6022 23.8585 25.9814C22.8342 26.9883 22.2066 28.2523 22.0148 29.6819C21.9538 30.1613 21.9843 31.1594 22.0845 31.652C22.5422 33.9882 24.3641 35.9147 26.6611 36.4944C28.8273 37.0436 31.0632 36.4334 32.6323 34.8599C34.1622 33.33 34.7986 31.1333 34.306 29.0455C34.2625 28.845 34.2276 28.6707 34.2407 28.662C34.2799 28.6227 34.7114 29.7734 34.8291 30.2267C35.1647 31.5212 35.1821 32.977 34.8814 34.2323C34.7811 34.6507 34.5196 35.4309 34.3889 35.6793C34.3453 35.7709 34.3104 35.858 34.3235 35.8667C34.3322 35.8755 34.4848 35.7839 34.6635 35.6619C36.6248 34.3107 38.0021 32.0617 38.5557 29.3027C38.7344 28.4092 38.7998 27.8077 38.8259 26.8183L38.8477 25.8812L38.7213 26.2517C38.5557 26.7485 38.3639 27.1016 38.0588 27.459C37.6012 28.0038 36.9343 28.4484 36.2195 28.6838C35.8621 28.8014 35.1516 28.9366 35.108 28.8973C35.1037 28.8886 35.1996 28.8102 35.326 28.723C35.57 28.553 36.0669 28.0692 36.2543 27.8208C36.821 27.0536 36.9386 26.0642 36.59 24.992C36.3633 24.2816 35.9885 23.5885 35.0862 22.2069C34.2581 20.9385 34.0533 20.3632 34.0184 19.1646C33.9922 18.3626 34.0533 17.8831 34.2668 17.2337C34.5109 16.484 34.864 15.8956 35.3957 15.3377C35.788 14.9367 36.1192 14.6883 36.6074 14.4442C36.8548 14.3205 37.3017 14.1603 37.5792 14.0871L24.8 6.70902C24.5309 6.55369 24.1995 6.55369 23.9304 6.70902L6.14407 16.978ZM27.7286 24.7568C25.4535 25.1011 23.6359 26.8881 23.2131 29.1938C23.126 29.6733 23.1172 30.5145 23.2001 30.9591L23.2567 31.286L23.2872 30.8065C23.3962 28.9193 24.7735 27.3676 26.6608 27.0058C27.1795 26.9056 28.025 26.9492 28.5263 27.0974C29.2847 27.324 29.8556 27.6771 30.4136 28.2655C31.185 29.0849 31.5511 30.0786 31.5076 31.2206C31.464 32.3538 31.0586 33.2604 30.2523 34.0363C29.7292 34.5331 29.2193 34.8339 28.5263 35.0387C28.0338 35.1869 27.1446 35.2305 26.639 35.1303C26.4603 35.0954 26.3077 35.0693 26.299 35.078C26.2729 35.0998 26.87 35.3133 27.2056 35.4005C27.9684 35.601 28.9185 35.6315 29.6682 35.4702C31.2155 35.1434 32.5362 34.1888 33.3033 32.8333C33.5605 32.38 33.7174 31.9921 33.8612 31.4429C34.0138 30.8763 34.053 29.7823 33.9397 29.1938C33.3948 26.2474 30.6751 24.3035 27.7286 24.7568Z" fill="white"/>
<path fill-rule="evenodd" clip-rule="evenodd" d="M48.2956 13.6817C48.5647 13.837 48.7304 14.1241 48.7304 14.4348V41.5652C48.7304 41.8759 48.5647 42.1629 48.2956 42.3183L24.8 55.8835C24.5309 56.0388 24.1995 56.0388 23.9304 55.8835L0.434782 42.3183C0.165738 42.1629 0 41.8759 0 41.5652V14.4348C0 14.1241 0.165738 13.8371 0.434782 13.6817L23.9304 0.116499C24.1995 -0.0388331 24.5309 -0.0388332 24.8 0.116499L48.2956 13.6817ZM24.8 3.69676C24.5309 3.54143 24.1995 3.54143 23.9304 3.69676L3.53538 15.4718C3.26634 15.6272 3.1006 15.9142 3.1006 16.2249V39.7751C3.1006 40.0858 3.26634 40.3728 3.53538 40.5281L23.9304 52.3032C24.1995 52.4586 24.5309 52.4586 24.8 52.3032L45.195 40.5281C45.4641 40.3728 45.6298 40.0858 45.6298 39.7751V16.2249C45.6298 15.9142 45.4641 15.6272 45.195 15.4718L24.8 3.69676Z" fill="white"/>
<path d="M65.2704 16.5L70.8144 3.81H72.8664L78.4104 16.5H76.0704L74.7924 13.458H68.8344L67.5384 16.5H65.2704ZM69.6444 11.496H73.9824L71.8044 6.456L69.6444 11.496ZM84.0921 19.416C82.5081 19.416 81.0921 19.038 79.8441 18.282L80.6541 16.644C81.7341 17.316 82.8621 17.652 84.0381 17.652C85.0101 17.652 85.7541 17.4 86.2701 16.896C86.7861 16.404 87.0441 15.684 87.0441 14.736V13.998C86.1441 15.162 85.0281 15.744 83.6961 15.744C82.5201 15.744 81.5061 15.336 80.6541 14.52C79.8021 13.704 79.3761 12.618 79.3761 11.262C79.3761 9.918 79.8021 8.838 80.6541 8.022C81.5181 7.206 82.5321 6.798 83.6961 6.798C85.0161 6.798 86.1261 7.338 87.0261 8.418V6.996H89.2041V14.556C89.2041 16.14 88.8021 17.334 87.9981 18.138C87.1461 18.99 85.8441 19.416 84.0921 19.416ZM84.2721 13.908C85.0401 13.908 85.6941 13.662 86.2341 13.17C86.7861 12.666 87.0621 12.03 87.0621 11.262C87.0621 10.494 86.7861 9.864 86.2341 9.372C85.6941 8.88 85.0401 8.634 84.2721 8.634C83.5041 8.634 82.8621 8.88 82.3461 9.372C81.8301 9.852 81.5721 10.488 81.5721 11.28C81.5721 12.048 81.8301 12.678 82.3461 13.17C82.8741 13.662 83.5161 13.908 84.2721 13.908ZM91.9207 16.5V6.996H94.0987V9.138C94.7707 7.518 95.8927 6.744 97.4647 6.816V9.12H97.3387C96.3547 9.12 95.5687 9.444 94.9807 10.092C94.3927 10.728 94.0987 11.658 94.0987 12.882V16.5H91.9207ZM99.3922 5.538V3.468H101.732V5.538H99.3922ZM99.4822 16.5V6.996H101.66V16.5H99.4822ZM108.899 16.716C107.495 16.716 106.325 16.236 105.389 15.276C104.453 14.316 103.985 13.146 103.985 11.766C103.985 10.398 104.453 9.228 105.389 8.256C106.337 7.284 107.513 6.798 108.917 6.798C110.453 6.798 111.719 7.344 112.715 8.436L111.365 9.894C110.609 9.102 109.787 8.706 108.899 8.706C108.119 8.706 107.465 9.006 106.937 9.606C106.421 10.194 106.163 10.914 106.163 11.766C106.163 12.63 106.427 13.356 106.955 13.944C107.495 14.532 108.179 14.826 109.007 14.826C109.883 14.826 110.705 14.43 111.473 13.638L112.787 14.934C112.271 15.51 111.707 15.954 111.095 16.266C110.495 16.566 109.763 16.716 108.899 16.716ZM118.066 16.698C117.01 16.698 116.182 16.368 115.582 15.708C114.982 15.048 114.682 14.16 114.682 13.044V6.996H116.86V12.396C116.86 13.14 117.034 13.716 117.382 14.124C117.742 14.52 118.246 14.718 118.894 14.718C119.53 14.718 120.046 14.508 120.442 14.088C120.838 13.668 121.036 13.092 121.036 12.36V6.996H123.214V16.5H121.036V15.024C120.28 16.14 119.29 16.698 118.066 16.698ZM126.078 16.5V3.36H128.256V16.5H126.078ZM134.288 16.662C132.464 16.662 131.552 15.732 131.552 13.872V8.868H130.346V6.996H131.552V4.386H133.73V6.996H136.286V8.868H133.73V13.53C133.73 14.322 134.12 14.718 134.9 14.718C135.368 14.718 135.818 14.61 136.25 14.394V16.176C135.674 16.5 135.02 16.662 134.288 16.662ZM141.761 16.698C140.705 16.698 139.877 16.368 139.277 15.708C138.677 15.048 138.377 14.16 138.377 13.044V6.996H140.555V12.396C140.555 13.14 140.729 13.716 141.077 14.124C141.437 14.52 141.941 14.718 142.589 14.718C143.225 14.718 143.741 14.508 144.137 14.088C144.533 13.668 144.731 13.092 144.731 12.36V6.996H146.909V16.5H144.731V15.024C143.975 16.14 142.985 16.698 141.761 16.698ZM149.647 16.5V6.996H151.825V9.138C152.497 7.518 153.619 6.744 155.191 6.816V9.12H155.065C154.081 9.12 153.295 9.444 152.707 10.092C152.119 10.728 151.825 11.658 151.825 12.882V16.5H149.647ZM161.122 16.716C159.73 16.716 158.566 16.254 157.63 15.33C156.706 14.406 156.244 13.212 156.244 11.748C156.244 10.368 156.682 9.198 157.558 8.238C158.434 7.278 159.544 6.798 160.888 6.798C162.328 6.798 163.444 7.29 164.236 8.274C165.04 9.246 165.442 10.458 165.442 11.91C165.442 12.174 165.43 12.378 165.406 12.522H158.422C158.542 13.278 158.848 13.872 159.34 14.304C159.832 14.724 160.438 14.934 161.158 14.934C162.094 14.934 162.952 14.556 163.732 13.8L165.01 14.934C164.026 16.122 162.73 16.716 161.122 16.716ZM158.404 11.082H163.282C163.21 10.35 162.964 9.75 162.544 9.282C162.124 8.814 161.566 8.58 160.87 8.58C160.21 8.58 159.658 8.814 159.214 9.282C158.77 9.738 158.5 10.338 158.404 11.082ZM66.4764 33.5V20.9H68.6904V33.5H66.4764ZM71.8113 33.5V23.996H73.9893V25.472C74.7453 24.356 75.7353 23.798 76.9593 23.798C78.0153 23.798 78.8433 24.128 79.4433 24.788C80.0433 25.448 80.3433 26.336 80.3433 27.452V33.5H78.1653V28.1C78.1653 27.356 77.9853 26.786 77.6253 26.39C77.2773 25.982 76.7793 25.778 76.1313 25.778C75.4953 25.778 74.9793 25.988 74.5833 26.408C74.1873 26.828 73.9893 27.404 73.9893 28.136V33.5H71.8113ZM86.2314 33.68C84.7434 33.68 83.3994 33.206 82.1994 32.258L83.1714 30.782C84.2034 31.562 85.2414 31.952 86.2854 31.952C86.7534 31.952 87.1134 31.862 87.3654 31.682C87.6294 31.49 87.7614 31.226 87.7614 30.89C87.7614 30.722 87.7134 30.578 87.6174 30.458C87.5334 30.326 87.3774 30.206 87.1494 30.098C86.9214 29.99 86.7294 29.912 86.5734 29.864C86.4174 29.816 86.1594 29.738 85.7994 29.63L85.6374 29.576C85.3014 29.48 85.0134 29.39 84.7734 29.306C84.5454 29.21 84.2874 29.084 83.9994 28.928C83.7114 28.772 83.4774 28.604 83.2974 28.424C83.1174 28.232 82.9674 27.992 82.8474 27.704C82.7274 27.416 82.6674 27.092 82.6674 26.732C82.6674 25.856 82.9854 25.154 83.6214 24.626C84.2694 24.098 85.0794 23.834 86.0514 23.834C87.2874 23.834 88.4514 24.194 89.5434 24.914L88.6794 26.462C87.6954 25.862 86.8014 25.562 85.9974 25.562C85.5774 25.562 85.2474 25.652 85.0074 25.832C84.7794 26.012 84.6654 26.252 84.6654 26.552C84.6654 26.756 84.7674 26.942 84.9714 27.11C85.1874 27.278 85.3974 27.404 85.6014 27.488C85.8174 27.56 86.1594 27.674 86.6274 27.83C86.6514 27.842 86.6814 27.854 86.7174 27.866C86.7534 27.878 86.7834 27.884 86.8074 27.884C87.2274 28.016 87.5814 28.148 87.8694 28.28C88.1574 28.4 88.4574 28.568 88.7694 28.784C89.0934 29 89.3394 29.27 89.5074 29.594C89.6754 29.906 89.7594 30.272 89.7594 30.692C89.7594 31.652 89.4294 32.39 88.7694 32.906C88.1094 33.422 87.2634 33.68 86.2314 33.68ZM95.2494 33.698C94.1934 33.698 93.3654 33.368 92.7654 32.708C92.1654 32.048 91.8654 31.16 91.8654 30.044V23.996H94.0434V29.396C94.0434 30.14 94.2174 30.716 94.5654 31.124C94.9254 31.52 95.4294 31.718 96.0774 31.718C96.7134 31.718 97.2294 31.508 97.6254 31.088C98.0214 30.668 98.2194 30.092 98.2194 29.36V23.996H100.397V33.5H98.2194V32.024C97.4634 33.14 96.4734 33.698 95.2494 33.698ZM103.136 33.5V23.996H105.314V26.138C105.986 24.518 107.108 23.744 108.68 23.816V26.12H108.554C107.57 26.12 106.784 26.444 106.196 27.092C105.608 27.728 105.314 28.658 105.314 29.882V33.5H103.136ZM118.088 33.5H115.928V32.33C115.16 33.242 114.134 33.698 112.85 33.698C111.902 33.698 111.098 33.44 110.438 32.924C109.79 32.396 109.466 31.664 109.466 30.728C109.466 29.708 109.82 28.934 110.528 28.406C111.236 27.878 112.166 27.614 113.318 27.614C114.242 27.614 115.118 27.746 115.946 28.01V27.83C115.946 27.17 115.742 26.666 115.334 26.318C114.938 25.97 114.362 25.796 113.606 25.796C112.742 25.796 111.836 25.994 110.888 26.39L110.294 24.644C111.47 24.116 112.676 23.852 113.912 23.852C115.292 23.852 116.33 24.2 117.026 24.896C117.734 25.592 118.088 26.582 118.088 27.866V33.5ZM115.982 30.062V29.522C115.334 29.27 114.608 29.144 113.804 29.144C113.12 29.144 112.586 29.276 112.202 29.54C111.818 29.804 111.626 30.176 111.626 30.656C111.626 31.088 111.8 31.43 112.148 31.682C112.496 31.934 112.934 32.06 113.462 32.06C114.194 32.06 114.794 31.874 115.262 31.502C115.742 31.13 115.982 30.65 115.982 30.062ZM120.678 33.5V23.996H122.856V25.472C123.612 24.356 124.602 23.798 125.826 23.798C126.882 23.798 127.71 24.128 128.31 24.788C128.91 25.448 129.21 26.336 129.21 27.452V33.5H127.032V28.1C127.032 27.356 126.852 26.786 126.492 26.39C126.144 25.982 125.646 25.778 124.998 25.778C124.362 25.778 123.846 25.988 123.45 26.408C123.054 26.828 122.856 27.404 122.856 28.136V33.5H120.678ZM136.233 33.716C134.829 33.716 133.659 33.236 132.723 32.276C131.787 31.316 131.319 30.146 131.319 28.766C131.319 27.398 131.787 26.228 132.723 25.256C133.671 24.284 134.847 23.798 136.251 23.798C137.787 23.798 139.053 24.344 140.049 25.436L138.699 26.894C137.943 26.102 137.121 25.706 136.233 25.706C135.453 25.706 134.799 26.006 134.271 26.606C133.755 27.194 133.497 27.914 133.497 28.766C133.497 29.63 133.761 30.356 134.289 30.944C134.829 31.532 135.513 31.826 136.341 31.826C137.217 31.826 138.039 31.43 138.807 30.638L140.121 31.934C139.605 32.51 139.041 32.954 138.429 33.266C137.829 33.566 137.097 33.716 136.233 33.716ZM146.216 33.716C144.824 33.716 143.66 33.254 142.724 32.33C141.8 31.406 141.338 30.212 141.338 28.748C141.338 27.368 141.776 26.198 142.652 25.238C143.528 24.278 144.638 23.798 145.982 23.798C147.422 23.798 148.538 24.29 149.33 25.274C150.134 26.246 150.536 27.458 150.536 28.91C150.536 29.174 150.524 29.378 150.5 29.522H143.516C143.636 30.278 143.942 30.872 144.434 31.304C144.926 31.724 145.532 31.934 146.252 31.934C147.188 31.934 148.046 31.556 148.826 30.8L150.104 31.934C149.12 33.122 147.824 33.716 146.216 33.716ZM143.498 28.082H148.376C148.304 27.35 148.058 26.75 147.638 26.282C147.218 25.814 146.66 25.58 145.964 25.58C145.304 25.58 144.752 25.814 144.308 26.282C143.864 26.738 143.594 27.338 143.498 28.082ZM70.7604 50.68C68.7564 50.68 67.0044 50.008 65.5044 48.664L66.8364 47.08C68.0964 48.172 69.4224 48.718 70.8144 48.718C71.4984 48.718 72.0384 48.574 72.4344 48.286C72.8424 47.986 73.0464 47.59 73.0464 47.098C73.0464 46.63 72.8544 46.258 72.4704 45.982C72.0864 45.694 71.3304 45.418 70.2024 45.154C68.7384 44.806 67.6704 44.368 66.9984 43.84C66.3384 43.3 66.0084 42.478 66.0084 41.374C66.0084 40.294 66.4104 39.418 67.2144 38.746C68.0184 38.062 69.0504 37.72 70.3104 37.72C72.0384 37.72 73.5624 38.248 74.8824 39.304L73.6944 40.978C72.5304 40.114 71.3904 39.682 70.2744 39.682C69.6384 39.682 69.1344 39.826 68.7624 40.114C68.4024 40.402 68.2224 40.768 68.2224 41.212C68.2224 41.704 68.4204 42.088 68.8164 42.364C69.2244 42.628 70.0224 42.904 71.2104 43.192C72.6024 43.528 73.6224 43.978 74.2704 44.542C74.9304 45.106 75.2604 45.898 75.2604 46.918C75.2604 48.082 74.8464 49 74.0184 49.672C73.1904 50.344 72.1044 50.68 70.7604 50.68ZM79.2924 53.434C78.5004 53.434 77.7504 53.242 77.0424 52.858L77.7804 51.238C78.2244 51.478 78.6504 51.598 79.0584 51.598C79.3704 51.598 79.6284 51.514 79.8324 51.346C80.0364 51.19 80.2284 50.908 80.4084 50.5L76.4484 40.996H78.7704L81.4704 48.052L83.9364 40.996H86.2044L82.4244 50.77C82.0404 51.742 81.6144 52.426 81.1464 52.822C80.6784 53.23 80.0604 53.434 79.2924 53.434ZM90.9775 50.68C89.4895 50.68 88.1455 50.206 86.9455 49.258L87.9175 47.782C88.9495 48.562 89.9875 48.952 91.0315 48.952C91.4995 48.952 91.8595 48.862 92.1115 48.682C92.3755 48.49 92.5075 48.226 92.5075 47.89C92.5075 47.722 92.4595 47.578 92.3635 47.458C92.2795 47.326 92.1235 47.206 91.8955 47.098C91.6675 46.99 91.4755 46.912 91.3195 46.864C91.1635 46.816 90.9055 46.738 90.5455 46.63L90.3835 46.576C90.0475 46.48 89.7595 46.39 89.5195 46.306C89.2915 46.21 89.0335 46.084 88.7455 45.928C88.4575 45.772 88.2235 45.604 88.0435 45.424C87.8635 45.232 87.7135 44.992 87.5935 44.704C87.4735 44.416 87.4135 44.092 87.4135 43.732C87.4135 42.856 87.7315 42.154 88.3675 41.626C89.0155 41.098 89.8255 40.834 90.7975 40.834C92.0335 40.834 93.1975 41.194 94.2895 41.914L93.4255 43.462C92.4415 42.862 91.5475 42.562 90.7435 42.562C90.3235 42.562 89.9935 42.652 89.7535 42.832C89.5255 43.012 89.4115 43.252 89.4115 43.552C89.4115 43.756 89.5135 43.942 89.7175 44.11C89.9335 44.278 90.1435 44.404 90.3475 44.488C90.5635 44.56 90.9055 44.674 91.3735 44.83C91.3975 44.842 91.4275 44.854 91.4635 44.866C91.4995 44.878 91.5295 44.884 91.5535 44.884C91.9735 45.016 92.3275 45.148 92.6155 45.28C92.9035 45.4 93.2035 45.568 93.5155 45.784C93.8395 46 94.0855 46.27 94.2535 46.594C94.4215 46.906 94.5055 47.272 94.5055 47.692C94.5055 48.652 94.1755 49.39 93.5155 49.906C92.8555 50.422 92.0095 50.68 90.9775 50.68ZM99.7297 50.662C97.9057 50.662 96.9937 49.732 96.9937 47.872V42.868H95.7877V40.996H96.9937V38.386H99.1717V40.996H101.728V42.868H99.1717V47.53C99.1717 48.322 99.5617 48.718 100.342 48.718C100.81 48.718 101.26 48.61 101.692 48.394V50.176C101.116 50.5 100.462 50.662 99.7297 50.662ZM108.019 50.716C106.627 50.716 105.463 50.254 104.527 49.33C103.603 48.406 103.141 47.212 103.141 45.748C103.141 44.368 103.579 43.198 104.455 42.238C105.331 41.278 106.441 40.798 107.785 40.798C109.225 40.798 110.341 41.29 111.133 42.274C111.937 43.246 112.339 44.458 112.339 45.91C112.339 46.174 112.327 46.378 112.303 46.522H105.319C105.439 47.278 105.745 47.872 106.237 48.304C106.729 48.724 107.335 48.934 108.055 48.934C108.991 48.934 109.849 48.556 110.629 47.8L111.907 48.934C110.923 50.122 109.627 50.716 108.019 50.716ZM105.301 45.082H110.179C110.107 44.35 109.861 43.75 109.441 43.282C109.021 42.814 108.463 42.58 107.767 42.58C107.107 42.58 106.555 42.814 106.111 43.282C105.667 43.738 105.397 44.338 105.301 45.082ZM114.526 50.5V40.996H116.704V42.436C117.496 41.344 118.462 40.798 119.602 40.798C120.922 40.798 121.864 41.356 122.428 42.472C123.28 41.356 124.354 40.798 125.65 40.798C126.694 40.798 127.51 41.116 128.098 41.752C128.686 42.388 128.98 43.282 128.98 44.434V50.5H126.802V45.1C126.802 44.344 126.634 43.768 126.298 43.372C125.962 42.976 125.488 42.778 124.876 42.778C124.264 42.778 123.772 42.988 123.4 43.408C123.028 43.816 122.842 44.392 122.842 45.136V50.5H120.664V45.082C120.664 44.35 120.496 43.786 120.16 43.39C119.824 42.982 119.35 42.778 118.738 42.778C118.126 42.778 117.634 42.994 117.262 43.426C116.89 43.846 116.704 44.422 116.704 45.154V50.5H114.526Z" fill="white"/>
</svg>
