<?xml version="1.0" encoding="UTF-8" standalone="no"?>
<!-- Created with Inkscape (http://www.inkscape.org/) -->

<svg
   version="1.1"
   id="svg4773"
   xml:space="preserve"
   width="682.66669"
   height="682.66669"
   viewBox="0 0 682.66669 682.66669"
   xmlns="http://www.w3.org/2000/svg"
   xmlns:svg="http://www.w3.org/2000/svg"><defs
     id="defs4777"><clipPath
       clipPathUnits="userSpaceOnUse"
       id="clipPath4799"><path
         d="M 0,512 H 512 V 0 H 0 Z"
         id="path4797" /></clipPath></defs><g
     id="g4779"
     transform="matrix(1.3333333,0,0,-1.3333333,0,682.66667)"><g
       id="g4781"
       transform="translate(293.8457,283.9863)"><path
         d="M 0,0 H 163.588"
         style="fill:none;stroke:#000000;stroke-width:15;stroke-linecap:round;stroke-linejoin:round;stroke-miterlimit:10;stroke-dasharray:none;stroke-opacity:1"
         id="path4783" /></g><g
       id="g4785"
       transform="translate(293.8457,250.4102)"><path
         d="M 0,0 H 163.588"
         style="fill:none;stroke:#000000;stroke-width:15;stroke-linecap:round;stroke-linejoin:round;stroke-miterlimit:10;stroke-dasharray:none;stroke-opacity:1"
         id="path4787" /></g><g
       id="g4789"
       transform="translate(293.8457,216.833)"><path
         d="M 0,0 H 81.794"
         style="fill:none;stroke:#000000;stroke-width:15;stroke-linecap:round;stroke-linejoin:round;stroke-miterlimit:10;stroke-dasharray:none;stroke-opacity:1"
         id="path4791" /></g><g
       id="g4793"><g
         id="g4795"
         clip-path="url(#clipPath4799)"><g
           id="g4801"
           transform="translate(256.2256,7.5)"><path
             d="M 0,0 V 70.168"
             style="fill:none;stroke:#000000;stroke-width:15;stroke-linecap:round;stroke-linejoin:round;stroke-miterlimit:10;stroke-dasharray:none;stroke-opacity:1"
             id="path4803" /></g><g
           id="g4805"
           transform="translate(63.0674,7.5)"><path
             d="M 0,0 V 70.168"
             style="fill:none;stroke:#000000;stroke-width:15;stroke-linecap:round;stroke-linejoin:round;stroke-miterlimit:10;stroke-dasharray:none;stroke-opacity:1"
             id="path4807" /></g><g
           id="g4809"
           transform="translate(26.877,172.2227)"><path
             d="m 0,0 c -11.416,-15.057 -19.226,-34.524 -19.226,-59.608 v -80.128 c 0,-13.8 11.187,-24.987 24.987,-24.987 h 254.017 c 13.799,0 24.987,11.187 24.987,24.987 v 80.128 c 0,66.247 -54.468,93.314 -85.992,103.435"
             style="fill:none;stroke:#000000;stroke-width:15;stroke-linecap:round;stroke-linejoin:round;stroke-miterlimit:10;stroke-dasharray:none;stroke-opacity:1"
             id="path4811" /></g><g
           id="g4813"
           transform="translate(93.6426,216.0498)"><path
             d="M 0,0 C -11.829,-3.798 -26.889,-9.982 -41.089,-19.728"
             style="fill:none;stroke:#000000;stroke-width:15;stroke-linecap:round;stroke-linejoin:round;stroke-miterlimit:10;stroke-dasharray:none;stroke-opacity:1"
             id="path4815" /></g><g
           id="g4817"
           transform="translate(110.3984,224.4941)"><path
             d="m 0,0 -14.162,-6.358 c -3.973,-1.784 -5.177,-6.846 -2.434,-10.228 L 2.298,-39.873 c 5.57,-6.865 15.321,-8.63 22.944,-4.152 l 24.006,14.1 -36.601,28.53 C 8.998,1.332 4.156,1.866 0,0 Z"
             style="fill:none;stroke:#000000;stroke-width:15;stroke-linecap:round;stroke-linejoin:round;stroke-miterlimit:10;stroke-dasharray:none;stroke-opacity:1"
             id="path4819" /></g><g
           id="g4821"
           transform="translate(208.8936,224.4941)"><path
             d="m 0,0 14.163,-6.358 c 3.973,-1.784 5.177,-6.846 2.434,-10.228 L -2.297,-39.873 c -5.57,-6.865 -15.321,-8.63 -22.944,-4.152 l -24.006,14.1 36.601,28.53 C -8.997,1.332 -4.156,1.866 0,0 Z"
             style="fill:none;stroke:#000000;stroke-width:15;stroke-linecap:round;stroke-linejoin:round;stroke-miterlimit:10;stroke-dasharray:none;stroke-opacity:1"
             id="path4823" /></g><g
           id="g4825"
           transform="translate(170.4014,159.9883)"><path
             d="M 0,0 15.688,19.304"
             style="fill:none;stroke:#000000;stroke-width:15;stroke-linecap:round;stroke-linejoin:round;stroke-miterlimit:10;stroke-dasharray:none;stroke-opacity:1"
             id="path4827" /></g><g
           id="g4829"
           transform="translate(133.9404,179.5986)"><path
             d="M 0,0 14.95,-19.61"
             style="fill:none;stroke:#000000;stroke-width:15;stroke-linecap:round;stroke-linejoin:round;stroke-miterlimit:10;stroke-dasharray:none;stroke-opacity:1"
             id="path4831" /></g><g
           id="g4833"
           transform="translate(194.9072,7.6973)"><path
             d="m 0,0 -24.506,152.291 h -21.51 L -70.521,0"
             style="fill:none;stroke:#000000;stroke-width:15;stroke-linecap:round;stroke-linejoin:round;stroke-miterlimit:10;stroke-dasharray:none;stroke-opacity:1"
             id="path4835" /></g><g
           id="g4837"
           transform="translate(199.3008,224.7695)"><path
             d="M 0,0 C -3.628,3.562 -5.762,8.477 -5.762,13.711 V 33.323"
             style="fill:none;stroke:#000000;stroke-width:15;stroke-linecap:round;stroke-linejoin:round;stroke-miterlimit:10;stroke-dasharray:none;stroke-opacity:1"
             id="path4839" /></g><g
           id="g4841"
           transform="translate(125.7539,258.0928)"><path
             d="m 0,0 v -19.612 c 0,-5.235 -2.134,-10.15 -5.762,-13.711"
             style="fill:none;stroke:#000000;stroke-width:15;stroke-linecap:round;stroke-linejoin:round;stroke-miterlimit:10;stroke-dasharray:none;stroke-opacity:1"
             id="path4843" /></g><g
           id="g4845"
           transform="translate(498.9434,417.7549)"><path
             d="m 0,0 -81.34,81.34 c -1.575,1.576 -3.415,2.818 -5.405,3.725 V 23.758 c 0,-16.106 13.057,-29.163 29.163,-29.163 L 3.726,-5.404 C 2.818,-3.415 1.575,-1.575 0,0 Z"
             style="fill:none;stroke:#000000;stroke-width:15;stroke-linecap:round;stroke-linejoin:round;stroke-miterlimit:10;stroke-dasharray:none;stroke-opacity:1"
             id="path4847" /></g><g
           id="g4849"
           transform="translate(504.3486,360.5215)"><path
             d="m 0,0 v 44.185 c 0,4.894 -1.944,9.587 -5.405,13.048 l -81.339,81.34 c -3.462,3.461 -8.155,5.406 -13.05,5.406 h -221.505 c -16.106,0 -29.163,-13.057 -29.163,-29.164 V 85.111"
             style="fill:none;stroke:#000000;stroke-width:15;stroke-linecap:round;stroke-linejoin:round;stroke-miterlimit:10;stroke-dasharray:none;stroke-opacity:1"
             id="path4851" /></g><g
           id="g4853"
           transform="translate(311.6416,47.6436)"><path
             d="m 0,0 h 165.242 c 15.168,0 27.465,12.296 27.465,27.464 v 249.89"
             style="fill:none;stroke:#000000;stroke-width:15;stroke-linecap:round;stroke-linejoin:round;stroke-miterlimit:10;stroke-dasharray:none;stroke-opacity:1"
             id="path4855" /></g><g
           id="g4857"
           transform="translate(452.4473,319.2617)"><path
             d="m 0,0 h -153.615 c -2.754,0 -4.987,2.232 -4.987,4.986 v 37.489 c 0,2.753 2.233,4.985 4.987,4.985 L 0,47.46 c 2.754,0 4.986,-2.232 4.986,-4.985 V 4.986 C 4.986,2.232 2.754,0 0,0 Z"
             style="fill:none;stroke:#000000;stroke-width:15;stroke-linecap:round;stroke-linejoin:round;stroke-miterlimit:10;stroke-dasharray:none;stroke-opacity:1"
             id="path4859" /></g><g
           id="g4861"
           transform="translate(102.3496,397.3994)"><path
             d="m 0,0 c -5.287,-8.597 -8.341,-18.713 -8.341,-29.546 v -54.968 c 0.461,-18.174 8.08,-35.636 21.762,-47.46 10.467,-9.045 24.958,-16.957 43.858,-17.847 v -0.003 c 0.006,0.001 0.012,0.001 0.018,0.002 h 0.004 c 0.005,-0.001 0.011,-0.001 0.016,-0.002 v 0.003 c 18.901,0.89 33.392,8.802 43.859,17.847 13.682,11.824 21.301,29.286 21.762,47.46 v 51.724 0.002"
             style="fill:none;stroke:#000000;stroke-width:15;stroke-linecap:round;stroke-linejoin:round;stroke-miterlimit:10;stroke-dasharray:none;stroke-opacity:1"
             id="path4863" /></g><g
           id="g4865"
           transform="translate(225.2881,364.6113)"><path
             d="m 0,0 10.008,-0.004 c 4.807,-0.002 9.159,-1.919 12.36,-5.017 l -0.002,35.73 C 22.364,58.496 -0.163,81.021 -27.95,81.021 h -120.557 c -2.838,0 -5.139,-2.299 -5.139,-5.137 0,-25.182 20.415,-45.596 45.596,-45.596 h 82.357 C -11.504,30.288 0,18.785 0,4.595 Z"
             style="fill:none;stroke:#000000;stroke-width:15;stroke-linecap:round;stroke-linejoin:round;stroke-miterlimit:10;stroke-dasharray:none;stroke-opacity:1"
             id="path4867" /></g><g
           id="g4869"
           transform="translate(82.7393,410.7021)"><path
             d="M 0,0 C -6.68,-4.263 -11.113,-11.733 -11.113,-20.245 V -51.128"
             style="fill:none;stroke:#000000;stroke-width:15;stroke-linecap:round;stroke-linejoin:round;stroke-miterlimit:10;stroke-dasharray:none;stroke-opacity:1"
             id="path4871" /></g><g
           id="g4873"
           transform="translate(94.0088,364.6084)"><path
             d="m 0,0 c -9.626,-0.001 -10.006,-0.001 -10.006,-0.001 -9.829,-0.005 -17.792,-7.978 -17.785,-17.807 l 0.015,-19.416 c 0.005,-8.014 6.505,-14.506 14.519,-14.503 L 0,-51.726 v 0.003"
             style="fill:none;stroke:#000000;stroke-width:15;stroke-linecap:round;stroke-linejoin:round;stroke-miterlimit:10;stroke-dasharray:none;stroke-opacity:1"
             id="path4875" /></g><g
           id="g4877"
           transform="translate(225.2881,312.8857)"><path
             d="m 0,0 v 0 h 5.41 l 7.85,-0.004 c 8.013,-0.004 14.513,6.488 14.519,14.503 l 0.014,19.416 c 0.007,9.829 -7.956,17.802 -17.785,17.807 0,0 -6.959,0.002 -10.008,0.002"
             style="fill:none;stroke:#000000;stroke-width:15;stroke-linecap:round;stroke-linejoin:round;stroke-miterlimit:10;stroke-dasharray:none;stroke-opacity:1"
             id="path4879" /></g></g></g></g></svg>
