<svg width="64" height="64" viewBox="0 0 64 64" fill="none" xmlns="http://www.w3.org/2000/svg">
<g clip-path="url(#clip0_2092_1566)">
<path d="M62.7492 19.5382C63.44 19.5382 64 18.9789 64 18.2886V6.16138C64 3.00525 61.4299 0.4375 58.2707 0.4375H5.72925C2.57012 0.4375 0 3.00525 0 6.16138V45.007C0 48.1631 2.57012 50.7309 5.72925 50.7309H22.8499V54.8086H19.2465C16.6675 54.8086 14.5695 56.9048 14.5695 59.4811V60.7696C14.5695 62.3096 15.8236 63.5625 17.365 63.5625H46.6315C48.1749 63.5625 49.4306 62.3096 49.4306 60.7696V59.4811C49.4306 56.9048 47.3326 54.8086 44.7536 54.8086H41.1468V50.7309H58.2709C61.43 50.7309 64.0001 48.1631 64.0001 45.007V29.5026C64.0001 28.8125 63.4401 28.253 62.7494 28.253C62.0586 28.253 61.4986 28.8124 61.4986 29.5026V37.86H57.0909V19.97C57.0909 18.9375 56.25 18.0974 55.2165 18.0974H50.9647C49.9312 18.0974 49.0905 18.9374 49.0905 19.97V37.8601H45.8413V23.4603C45.8413 22.4258 45.0005 21.5841 43.967 21.5841H39.7151C38.6816 21.5841 37.8409 22.4258 37.8409 23.4603V37.86H34.5918V28.7981C34.5918 27.7636 33.751 26.922 32.7175 26.922H28.4657C27.4322 26.922 26.5914 27.7636 26.5914 28.7981V37.86H2.5015V6.16138C2.5015 4.38325 3.9495 2.93663 5.72925 2.93663H58.2707C60.0506 2.93663 61.4985 4.38325 61.4985 6.16138V18.2886C61.4985 18.9788 62.0585 19.5382 62.7492 19.5382ZM46.9291 59.4811V60.7696C46.9291 60.9289 46.7928 61.0634 46.6315 61.0634H17.365C17.2056 61.0634 17.0709 60.9289 17.0709 60.7696V59.4811C17.0709 58.2827 18.0469 57.3078 19.2464 57.3078H24.1005H39.8959H44.7535C45.9531 57.3078 46.9291 58.2827 46.9291 59.4811ZM38.6452 54.8086H25.3512V50.7309H38.6451L38.6452 54.8086ZM51.5919 20.5966H54.5894V37.8601H51.5919V20.5966ZM40.3424 24.0833H43.3399V37.86H40.3424V24.0833ZM29.0929 29.4212H32.0904V37.8601H29.0929V29.4212ZM61.4985 40.3592V45.007C61.4985 46.7851 60.0505 48.2318 58.2707 48.2318H39.8959H24.1005H5.72925C3.94937 48.2318 2.5015 46.7851 2.5015 45.007V40.3592H61.4985Z" fill="#004646"/>
<path d="M37.6001 45.545H37.625C38.3157 45.545 38.8757 44.9857 38.8757 44.2954C38.8757 43.6052 38.3157 43.0458 37.625 43.0458H37.6001C36.9094 43.0458 36.3494 43.6052 36.3494 44.2954C36.3494 44.9857 36.9094 45.545 37.6001 45.545Z" fill="#004646"/>
<path d="M26.3753 45.545H31.9983C32.689 45.545 33.249 44.9857 33.249 44.2954C33.249 43.6052 32.689 43.0458 31.9983 43.0458H26.3753C25.6845 43.0458 25.1245 43.6052 25.1245 44.2954C25.1245 44.9857 25.6845 45.545 26.3753 45.545Z" fill="#004646"/>
<path d="M15.0544 12.9282C15.0636 12.6435 15.0827 12.0513 14.5934 11.5894C14.064 11.0899 13.366 11.1522 12.9904 11.1858C10.7865 11.3839 8.74511 12.393 7.24223 14.0274C5.72948 15.6723 4.89648 17.8093 4.89648 20.0444C4.89648 22.4183 5.82273 24.6513 7.50448 26.3322C9.18348 28.0138 11.4195 28.9399 13.8005 28.9399C16.0364 28.9399 18.1744 28.1074 19.8207 26.5958C21.4562 25.0942 22.4672 23.054 22.6676 20.8498C22.7012 20.4752 22.7639 19.7778 22.2616 19.2488C21.7962 18.7587 21.1986 18.7807 20.9114 18.791C20.8652 18.7928 20.8145 18.7948 20.7612 18.7948C19.3595 18.7925 18.0899 18.7932 16.8209 18.794L15.0512 18.7948V13.0802C15.051 13.0248 15.0529 12.9742 15.0544 12.9282ZM16.8225 21.2932C17.8824 21.2924 18.9422 21.2918 20.0809 21.293C19.4972 24.2706 16.906 26.4408 13.8006 26.4408C12.089 26.4408 10.482 25.7754 9.27573 24.5673C9.27536 24.5669 9.27498 24.5665 9.27461 24.5662C8.06448 23.3572 7.39798 21.7513 7.39798 20.0444C7.39798 16.9378 9.57023 14.3478 12.5499 13.7689V18.9328C12.5447 19.5333 12.6007 20.1594 13.0415 20.6695C13.0841 20.7189 13.1306 20.7648 13.1804 20.8069C13.6976 21.2443 14.3445 21.2968 14.9026 21.2938L16.8225 21.2932Z" fill="#004646"/>
<path d="M25.9877 16.7199C26.036 16.7227 26.0974 16.7262 26.1684 16.7262C26.4439 16.7262 26.8637 16.6737 27.2145 16.3214C27.6707 15.8632 27.6346 15.2833 27.6134 14.9416C27.4855 12.7528 26.5571 10.6974 25.0065 9.16105C23.4572 7.60043 21.399 6.67293 19.2177 6.54955C18.8717 6.52818 18.2931 6.49205 17.8346 6.9448C17.3914 7.38243 17.4177 7.91055 17.4305 8.16443C17.4327 8.2088 17.4356 8.26105 17.4361 8.31355V14.3843C17.4361 15.0032 17.6815 15.5819 18.1284 16.0186C18.555 16.4607 19.1515 16.7134 19.7711 16.7134H25.8376C25.8955 16.7144 25.9452 16.7176 25.9877 16.7199ZM19.9375 14.2143V9.15368C21.1786 9.39805 22.3264 10.0103 23.2377 10.9282C24.1466 11.8288 24.7574 12.9719 25.0042 14.2144L19.9375 14.2143Z" fill="#004646"/>
<path d="M52.6238 15.0029C52.7618 15.0516 52.9027 15.0748 53.0412 15.0748C53.5562 15.0748 54.0386 14.7545 54.2202 14.2418L56.0448 9.09138C56.2753 8.44088 55.9343 7.72688 55.2831 7.4965L50.1278 5.6735C49.4767 5.44325 48.7618 5.784 48.5314 6.4345C48.3009 7.08513 48.6419 7.79913 49.2932 8.02938L51.6013 8.8455L26.6626 20.7288C26.0391 21.0259 25.7747 21.7716 26.0721 22.3945C26.2866 22.8438 26.7347 23.1064 27.2018 23.1064C27.3823 23.1064 27.5657 23.0671 27.7394 22.9844L52.6796 11.1005L51.8622 13.4079C51.6316 14.0586 51.9726 14.7726 52.6238 15.0029Z" fill="#004646"/>
</g>
<defs>
<clipPath id="clip0_2092_1566">
<rect width="64" height="64" fill="white"/>
</clipPath>
</defs>
</svg>
