<svg width="64" height="64" viewBox="0 0 64 64" fill="none" xmlns="http://www.w3.org/2000/svg">
<g clip-path="url(#clip0_2092_1573)">
<path d="M63.4771 39.7354C63.4917 39.6592 63.5 39.5806 63.5 39.5V31.5C63.5 23.0859 60.2231 15.1758 54.2739 9.22607C48.3242 3.27637 40.4141 0 32 0C26.7764 0 21.6021 1.30518 17.0356 3.7749C16.4287 4.10303 16.2026 4.86182 16.5308 5.46875C16.8594 6.07617 17.6177 6.30225 18.2251 5.97363C22.4268 3.70117 27.1904 2.5 32 2.5C47.9907 2.5 61 15.5093 61 31.5V38.2607C60.9175 38.2539 60.8345 38.25 60.75 38.25H58V31C58 16.6636 46.3364 5 32 5C17.6636 5 6 16.6636 6 31V38.25H3.25C3.16553 38.25 3.08252 38.2544 3 38.2607V31.5C3 24.6309 5.44482 17.9683 9.88428 12.7402C10.3311 12.2139 10.2666 11.4253 9.74072 10.9785C9.21436 10.5312 8.42529 10.5957 7.97852 11.1221C3.15576 16.8018 0.5 24.0386 0.5 31.5V39.5C0.5 39.5806 0.508301 39.6592 0.522949 39.7354C0.192871 40.2441 0 40.8496 0 41.5V49.5C0 51.292 1.45801 52.75 3.25 52.75H6V53.1875C6 55.4277 7.82227 57.25 10.0625 57.25H14.4375C16.6777 57.25 18.5 55.4277 18.5 53.1875V37.8125C18.5 35.5723 16.6777 33.75 14.4375 33.75H10.0625C9.50879 33.75 8.98145 33.8618 8.5 34.063V31C8.5 18.042 19.042 7.5 32 7.5C44.958 7.5 55.5 18.042 55.5 31V34.063C55.0186 33.8618 54.4912 33.75 53.9375 33.75H49.5625C47.3223 33.75 45.5 35.5723 45.5 37.8125V53.1875C45.5 55.4277 47.3223 57.25 49.5625 57.25H53.9375C54.4912 57.25 55.0186 57.1382 55.5 56.937V60.1665C55.5 60.9019 54.9019 61.5 54.1665 61.5H34.5991C33.8638 61.5 33.2661 60.9019 33.2661 60.1665V58.0161C34.9932 57.4761 36.25 55.8613 36.25 53.9585C36.25 51.6147 34.3433 49.7085 32 49.7085C29.6567 49.7085 27.75 51.6147 27.75 53.9585C27.75 55.8726 29.0225 57.4951 30.7661 58.0249V60.1665C30.7661 62.2803 32.4854 64 34.5991 64H54.1665C56.2803 64 58 62.2803 58 60.1665V52.75H60.75C62.542 52.75 64 51.292 64 49.5V41.5C64 40.8496 63.8071 40.2441 63.4771 39.7354ZM3.25 50.25C2.83643 50.25 2.5 49.9136 2.5 49.5V41.5C2.5 41.0864 2.83643 40.75 3.25 40.75H6V50.25H3.25ZM10.0625 36.25H14.4375C15.2993 36.25 16 36.9507 16 37.8125V53.1875C16 54.0493 15.2993 54.75 14.4375 54.75H10.0625C9.20068 54.75 8.5 54.0493 8.5 53.1875V37.8125C8.5 36.9507 9.20068 36.25 10.0625 36.25ZM30.25 53.9585C30.25 52.9932 31.0352 52.2085 32 52.2085C32.9648 52.2085 33.75 52.9932 33.75 53.9585C33.75 54.9233 32.9648 55.7085 32 55.7085C31.0352 55.7085 30.25 54.9233 30.25 53.9585ZM53.9375 54.75H49.5625C48.7007 54.75 48 54.0493 48 53.1875V37.8125C48 36.9507 48.7007 36.25 49.5625 36.25H53.9375C54.7993 36.25 55.5 36.9507 55.5 37.8125V53.1875C55.5 54.0493 54.7993 54.75 53.9375 54.75ZM61.5 49.5C61.5 49.9136 61.1636 50.25 60.75 50.25H58V40.75H60.75C61.1636 40.75 61.5 41.0864 61.5 41.5V49.5Z" fill="#004646"/>
<path d="M30.9175 42C31.1406 42.3867 31.5537 42.625 32 42.625C32.4463 42.625 32.8594 42.3867 33.0825 42L34.9858 38.7036C40.9102 38.3613 45.625 33.4326 45.625 27.4238C45.625 21.1938 40.5562 16.125 34.3262 16.125H29.6738C23.4438 16.125 18.375 21.1938 18.375 27.4238C18.375 33.4326 23.0898 38.3613 29.0142 38.7036L30.9175 42ZM20.875 27.4238C20.875 22.5723 24.8223 18.625 29.6738 18.625H34.3262C39.1777 18.625 43.125 22.5723 43.125 27.4238C43.125 32.2754 39.1777 36.2227 34.3262 36.2227H34.2529C33.8062 36.2227 33.3936 36.4609 33.1704 36.8477L32 38.875L30.8296 36.8477C30.6064 36.4609 30.1938 36.2227 29.7471 36.2227H29.6738C24.8223 36.2227 20.875 32.2754 20.875 27.4238Z" fill="#004646"/>
<path d="M26 26.1738C25.6714 26.1738 25.3486 26.3076 25.1162 26.54C24.8838 26.7725 24.75 27.0952 24.75 27.4238C24.75 27.7524 24.8838 28.0752 25.1162 28.3076C25.3486 28.54 25.6714 28.6738 26 28.6738C26.3286 28.6738 26.6514 28.54 26.8838 28.3076C27.1162 28.0752 27.25 27.7524 27.25 27.4238C27.25 27.0952 27.1162 26.7725 26.8838 26.54C26.6514 26.3076 26.3286 26.1738 26 26.1738Z" fill="#004646"/>
<path d="M32 28.6738C32.3286 28.6738 32.6514 28.54 32.8838 28.3076C33.1162 28.0752 33.25 27.7524 33.25 27.4238C33.25 27.0952 33.1162 26.7725 32.8838 26.54C32.6514 26.3076 32.3286 26.1738 32 26.1738C31.6714 26.1738 31.3486 26.3076 31.1162 26.54C30.8838 26.7739 30.75 27.0952 30.75 27.4238C30.75 27.7524 30.8838 28.0752 31.1162 28.3076C31.3486 28.54 31.6714 28.6738 32 28.6738Z" fill="#004646"/>
<path d="M38 28.6738C38.3286 28.6738 38.6514 28.54 38.8838 28.3076C39.1162 28.0752 39.25 27.7524 39.25 27.4238C39.25 27.0952 39.1162 26.7725 38.8838 26.54C38.6514 26.3076 38.3286 26.1738 38 26.1738C37.6714 26.1738 37.3486 26.3076 37.1162 26.54C36.8838 26.7725 36.75 27.0952 36.75 27.4238C36.75 27.7524 36.8838 28.0752 37.1162 28.3076C37.3486 28.54 37.6714 28.6738 38 28.6738Z" fill="#004646"/>
<path d="M12.9526 9.24854C13.2812 9.24854 13.6035 9.11523 13.8359 8.88232C14.0698 8.6499 14.2026 8.32764 14.2026 7.99854C14.2026 7.66992 14.0698 7.34766 13.8359 7.11523C13.6035 6.88232 13.2822 6.74854 12.9526 6.74854C12.6235 6.74854 12.3013 6.88232 12.0688 7.11523C11.8364 7.34766 11.7026 7.66992 11.7026 7.99854C11.7026 8.32764 11.8359 8.6499 12.0688 8.88232C12.3013 9.11523 12.6235 9.24854 12.9526 9.24854Z" fill="#004646"/>
</g>
<defs>
<clipPath id="clip0_2092_1573">
<rect width="64" height="64" fill="white"/>
</clipPath>
</defs>
</svg>
