<svg id="Layer_1" enable-background="new 0 0 500 500" viewBox="0 0 500 500" xmlns="http://www.w3.org/2000/svg"><path clip-rule="evenodd" d="m249.366 169.577c-2.593 0-4.689-2.113-4.689-4.711 0-2.615 2.096-4.728 4.689-4.728 6.246 0 6.259 9.439 0 9.439zm0-22.53c-9.82 0-17.763 7.988-17.763 17.819 0 9.819 7.944 17.808 17.763 17.808 9.875 0 17.874-7.988 17.874-17.808-.001-9.831-8-17.819-17.874-17.819zm-32.548-98.261c8.33-9.444 20.411-14.856 32.989-14.856 24.328 0 44.133 19.799 44.133 44.127 0 18.817-11.916 35.588-29.734 41.722-4.855 1.671-7.834 5.897-7.834 11.027 0 3.613-2.924 6.548-6.565 6.548-3.586 0-6.565-2.935-6.565-6.548 0-10.719 6.565-19.904 16.715-23.407 12.467-4.32 20.908-16.103 20.908-29.343 0-17.107-13.957-31.031-31.059-31.031-8.882 0-17.322 3.807-23.225 10.46-2.372 2.703-6.509 2.946-9.212.546-2.703-2.399-2.979-6.537-.551-9.245zm205.382 368.628c0 2.99-2.427 5.417-5.406 5.417h-92.127c-23.445 0-45.401 11.199-59.414 30.143h-30.451c-14.012-18.944-36.023-30.143-59.469-30.143h-92.071c-2.979 0-5.406-2.427-5.406-5.417v-159.81c0-2.979 2.427-5.406 5.406-5.406h21.128v135.415c0 3.613 2.924 6.548 6.565 6.548h64.379c26.093 0 51.028 9.913 70.171 27.936 2.532 2.347 6.4 2.394 8.992-.017v.017c19.143-18.023 44.077-27.936 70.171-27.936h64.432c3.586 0 6.509-2.935 6.509-6.548v-135.415h21.184c2.979 0 5.406 2.427 5.406 5.406v159.81zm-304.736-228.232v191.883h57.869c24.659 0 48.38 7.839 68.13 22.315v-53.152l-35.471 20.483c-4.258 2.483-9.82-.555-9.82-5.676v-127.092c0-5.032 5.443-8.194 9.82-5.676l35.471 20.483v-37.513c-18.867-16.826-42.974-26.055-68.13-26.055zm184.199 112.307-90.417-52.203v104.412zm80.873-112.307h-57.869c-25.156 0-49.263 9.229-68.13 26.055v45.07l61.51 35.516c4.421 2.543 4.389 8.818 0 11.342l-61.51 35.504v60.715c19.749-14.481 43.47-22.32 68.13-22.32h57.869zm34.258 49.92c10.206 0 18.481 8.302 18.481 18.502v159.81c0 10.206-8.275 18.508-18.481 18.508h-92.127c-20.246 0-39.168 10.184-50.587 27.241-1.214 1.815-3.255 2.907-5.461 2.907h-37.237c-2.207 0-4.193-1.092-5.406-2.907-11.474-17.057-30.396-27.241-50.642-27.241h-92.072c-10.206 0-18.536-8.303-18.536-18.508v-159.81c0-10.2 8.33-18.502 18.536-18.502h21.128v-56.462c0-3.619 2.924-6.548 6.565-6.548h64.379c27.473 0 53.731 9.715 74.694 27.489 20.908-17.774 47.222-27.489 74.639-27.489h64.433c3.586 0 6.509 2.929 6.509 6.548v56.462z" fill-rule="evenodd"/></svg>