<svg width="172" height="56" viewBox="0 0 172 56" fill="none" xmlns="http://www.w3.org/2000/svg">
<path fill-rule="evenodd" clip-rule="evenodd" d="M6.14407 16.978C5.87503 17.1333 5.70929 17.4204 5.70929 17.731V38.269C5.70929 38.5796 5.87503 38.8667 6.14407 39.022L23.9304 49.291C24.1995 49.4463 24.5309 49.4463 24.8 49.291L42.5863 39.022C42.8554 38.8667 43.0211 38.5796 43.0211 38.269V17.731C43.0211 17.4204 42.8554 17.1333 42.5863 16.978L37.692 14.1522C37.6419 14.1917 37.5762 14.2397 37.5009 14.2916C36.5812 14.9193 36.1367 15.7692 36.1977 16.7673C36.2369 17.408 36.3328 17.7262 36.5987 18.0575C38.4947 20.4373 39.5974 23.0437 40.0071 26.0991C40.1161 26.9142 40.1161 29.1371 40.0028 29.9347C39.4884 33.6962 37.9455 36.7821 35.2867 39.3711C32.8416 41.7596 29.7775 43.2372 26.3124 43.7122C25.6019 43.8081 23.8846 43.843 23.148 43.7733C21.1866 43.5989 19.2427 43.0497 17.4557 42.178C17.1375 42.0211 16.876 41.8773 16.876 41.8555C16.876 41.8337 16.9152 41.8032 16.9675 41.7901C17.0198 41.7727 17.168 41.7116 17.3031 41.6506L17.5516 41.5417L17.0983 41.3935C15.1238 40.731 12.9968 39.3057 11.4887 37.6363C10.9003 36.9825 10.8829 36.9477 11.2229 37.1264C11.589 37.3225 12.173 37.523 12.6351 37.6102C13.2365 37.7279 14.6095 37.7061 14.6095 37.5797C14.6095 37.5579 14.5441 37.5405 14.4613 37.5405C13.9165 37.5405 12.9227 37.1787 12.2907 36.7515C10.4383 35.4919 9.08279 32.7329 8.70359 29.4552L8.69468 29.3785C8.64526 28.9534 8.62209 28.7541 8.66343 28.7397C8.69991 28.727 8.78662 28.8581 8.94984 29.105L8.98254 29.1545C9.37482 29.7473 9.83683 30.2964 10.2771 30.68C10.7129 31.0636 11.5846 31.6868 11.6282 31.6433C11.6369 31.6345 11.5454 31.4994 11.419 31.3469C10.6127 30.3444 9.90657 28.9148 9.57532 27.6072C9.34431 26.6919 9.3138 26.4216 9.31816 25.3363C9.31816 24.4821 9.33559 24.2205 9.41405 23.7455C9.63198 22.4858 9.94144 21.5095 10.4732 20.4155C10.665 20.0232 10.8306 19.7137 10.8393 19.7225C10.8524 19.7312 10.8393 19.9753 10.8132 20.2586C10.6301 22.3899 11.5454 24.6433 13.1799 26.0642C13.3804 26.2342 13.546 26.3693 13.5547 26.365C13.5591 26.3563 13.4283 26.1645 13.2583 25.9422C12.7309 25.2448 12.2384 24.1377 12.0641 23.266C11.8461 22.172 11.8592 21.1913 12.1077 20.0668C12.2559 19.4043 12.4215 18.9423 12.7615 18.2362C13.3412 17.0332 14.1301 16.0133 15.1979 15.098C16.0391 14.3744 16.7452 13.9168 17.6169 13.5332C19.343 12.7705 21.1474 12.339 23.196 12.1995C23.6536 12.169 25.1181 12.2169 25.7327 12.2823C26.8005 12.4 28.4437 12.7705 29.189 13.0625L29.3634 13.1322L29.189 13.1104C28.4306 13.0189 28.1473 12.9928 27.3977 12.9623C26.478 12.923 25.092 12.9666 24.7433 13.0451C23.257 13.3763 21.8012 14.1042 20.5808 15.1285C19.7004 15.8651 18.8679 16.8894 18.3274 17.9093C18.1661 18.2144 18.1443 18.2798 18.2097 18.258C18.9812 18.0182 21.3218 17.6216 21.9668 17.6216C22.1412 17.6216 22.1455 17.578 21.9799 17.4778C21.7489 17.3427 21.3784 16.8981 21.2782 16.6322C21.1561 16.3097 21.1431 15.791 21.252 15.4205C21.3436 15.1067 21.4961 14.7449 21.5353 14.7493C21.5484 14.7493 21.6443 14.9236 21.7489 15.1372C22.0714 15.8128 22.5858 16.2181 23.4139 16.4579C23.6187 16.5189 24.2638 16.6496 24.8522 16.7499C26.1337 16.9722 27.0664 17.1945 28.0079 17.5083C29.9649 18.1664 31.5819 19.0948 31.7345 19.6484C31.7999 19.8837 31.7955 20.0319 31.7127 20.3588L31.6429 20.6421L31.8522 20.8165C31.9698 20.9124 32.2837 21.2087 32.5495 21.479C33.26 22.1982 33.3995 22.5468 33.1597 23.0481C33.0595 23.266 32.7108 23.7237 32.6498 23.7237C32.6323 23.7237 32.4536 23.6234 32.2531 23.497C31.486 23.0176 30.501 22.6079 29.5639 22.3725C28.7009 22.1546 28.1561 22.0935 27.1623 22.0935C25.9288 22.0979 25.0789 22.2374 23.9762 22.6122C23.427 22.804 22.5247 23.2355 22.0235 23.545C19.6393 25.0269 18.0223 27.4285 17.5254 30.2398C17.3903 31.0025 17.3772 32.5978 17.4993 33.33C17.8218 35.2217 18.6587 36.9128 19.9532 38.2771C21.6094 40.0249 23.8367 41.0448 26.2688 41.1712C26.7134 41.1973 26.648 41.1712 25.9201 41.0273C24.2551 40.7048 22.5465 39.7764 21.3087 38.5299C20.5546 37.7715 20.0447 37.0479 19.5565 36.0367C18.9463 34.7858 18.7197 33.8661 18.6761 32.4583C18.6456 31.5517 18.6848 31.2074 18.9071 30.3531C19.3212 28.7579 20.0665 27.4808 21.2259 26.3781C22.5204 25.1446 24.1374 24.3862 25.9419 24.1595C26.3472 24.1116 27.3933 24.1072 27.7725 24.1552L28.0122 24.1857L27.6853 24.2162C26.9008 24.299 26.0508 24.5387 25.4145 24.8613C24.9481 25.0923 24.242 25.6022 23.8585 25.9814C22.8342 26.9883 22.2066 28.2523 22.0148 29.6819C21.9538 30.1613 21.9843 31.1594 22.0845 31.652C22.5422 33.9882 24.3641 35.9147 26.6611 36.4944C28.8273 37.0436 31.0632 36.4334 32.6323 34.8599C34.1622 33.33 34.7986 31.1333 34.306 29.0455C34.2625 28.845 34.2276 28.6707 34.2407 28.662C34.2799 28.6227 34.7114 29.7734 34.8291 30.2267C35.1647 31.5212 35.1821 32.977 34.8814 34.2323C34.7811 34.6507 34.5196 35.4309 34.3889 35.6793C34.3453 35.7709 34.3104 35.858 34.3235 35.8667C34.3322 35.8755 34.4848 35.7839 34.6635 35.6619C36.6248 34.3107 38.0021 32.0617 38.5557 29.3027C38.7344 28.4092 38.7998 27.8077 38.8259 26.8183L38.8477 25.8812L38.7213 26.2517C38.5557 26.7485 38.3639 27.1016 38.0588 27.459C37.6012 28.0038 36.9343 28.4484 36.2195 28.6838C35.8621 28.8014 35.1516 28.9366 35.108 28.8973C35.1037 28.8886 35.1996 28.8102 35.326 28.723C35.57 28.553 36.0669 28.0692 36.2543 27.8208C36.821 27.0536 36.9386 26.0642 36.59 24.992C36.3633 24.2816 35.9885 23.5885 35.0862 22.2069C34.2581 20.9385 34.0533 20.3632 34.0184 19.1646C33.9922 18.3626 34.0533 17.8831 34.2668 17.2337C34.5109 16.484 34.864 15.8956 35.3957 15.3377C35.788 14.9367 36.1192 14.6883 36.6074 14.4442C36.8548 14.3205 37.3017 14.1603 37.5792 14.0871L24.8 6.70902C24.5309 6.55369 24.1995 6.55369 23.9304 6.70902L6.14407 16.978ZM27.7286 24.7568C25.4535 25.1011 23.6359 26.8881 23.2131 29.1938C23.126 29.6733 23.1172 30.5145 23.2001 30.9591L23.2567 31.286L23.2872 30.8065C23.3962 28.9193 24.7735 27.3676 26.6608 27.0058C27.1795 26.9056 28.025 26.9492 28.5263 27.0974C29.2847 27.324 29.8556 27.6771 30.4136 28.2655C31.185 29.0849 31.5511 30.0786 31.5076 31.2206C31.464 32.3538 31.0586 33.2604 30.2523 34.0363C29.7292 34.5331 29.2193 34.8339 28.5263 35.0387C28.0338 35.1869 27.1446 35.2305 26.639 35.1303C26.4603 35.0954 26.3077 35.0693 26.299 35.078C26.2729 35.0998 26.87 35.3133 27.2056 35.4005C27.9684 35.601 28.9185 35.6315 29.6682 35.4702C31.2155 35.1434 32.5362 34.1888 33.3033 32.8333C33.5605 32.38 33.7174 31.9921 33.8612 31.4429C34.0138 30.8763 34.053 29.7823 33.9397 29.1938C33.3948 26.2474 30.6751 24.3035 27.7286 24.7568Z" fill="green"/>
<path fill-rule="evenodd" clip-rule="evenodd" d="M48.2956 13.6817C48.5647 13.837 48.7304 14.1241 48.7304 14.4348V41.5652C48.7304 41.8759 48.5647 42.1629 48.2956 42.3183L24.8 55.8835C24.5309 56.0388 24.1995 56.0388 23.9304 55.8835L0.434782 42.3183C0.165738 42.1629 0 41.8759 0 41.5652V14.4348C0 14.1241 0.165738 13.8371 0.434782 13.6817L23.9304 0.116499C24.1995 -0.0388331 24.5309 -0.0388332 24.8 0.116499L48.2956 13.6817ZM24.8 3.69676C24.5309 3.54143 24.1995 3.54143 23.9304 3.69676L3.53538 15.4718C3.26634 15.6272 3.1006 15.9142 3.1006 16.2249V39.7751C3.1006 40.0858 3.26634 40.3728 3.53538 40.5281L23.9304 52.3032C24.1995 52.4586 24.5309 52.4586 24.8 52.3032L45.195 40.5281C45.4641 40.3728 45.6298 40.0858 45.6298 39.7751V16.2249C45.6298 15.9142 45.4641 15.6272 45.195 15.4718L24.8 3.69676Z" fill="green"/>
<path d="M70.7605 33.68C68.7565 33.68 67.0045 33.008 65.5045 31.664L66.8365 30.08C68.0965 31.172 69.4225 31.718 70.8145 31.718C71.4985 31.718 72.0385 31.574 72.4345 31.286C72.8425 30.986 73.0465 30.59 73.0465 30.098C73.0465 29.63 72.8545 29.258 72.4705 28.982C72.0865 28.694 71.3305 28.418 70.2025 28.154C68.7385 27.806 67.6705 27.368 66.9985 26.84C66.3385 26.3 66.0085 25.478 66.0085 24.374C66.0085 23.294 66.4105 22.418 67.2145 21.746C68.0185 21.062 69.0505 20.72 70.3105 20.72C72.0385 20.72 73.5625 21.248 74.8825 22.304L73.6945 23.978C72.5305 23.114 71.3905 22.682 70.2745 22.682C69.6385 22.682 69.1345 22.826 68.7625 23.114C68.4025 23.402 68.2225 23.768 68.2225 24.212C68.2225 24.704 68.4205 25.088 68.8165 25.364C69.2245 25.628 70.0225 25.904 71.2105 26.192C72.6025 26.528 73.6225 26.978 74.2705 27.542C74.9305 28.106 75.2605 28.898 75.2605 29.918C75.2605 31.082 74.8465 32 74.0185 32.672C73.1905 33.344 72.1045 33.68 70.7605 33.68ZM81.9681 33.716C80.5761 33.716 79.4121 33.254 78.4761 32.33C77.5521 31.406 77.0901 30.212 77.0901 28.748C77.0901 27.368 77.5281 26.198 78.4041 25.238C79.2801 24.278 80.3901 23.798 81.7341 23.798C83.1741 23.798 84.2901 24.29 85.0821 25.274C85.8861 26.246 86.2881 27.458 86.2881 28.91C86.2881 29.174 86.2761 29.378 86.2521 29.522H79.2681C79.3881 30.278 79.6941 30.872 80.1861 31.304C80.6781 31.724 81.2841 31.934 82.0041 31.934C82.9401 31.934 83.7981 31.556 84.5781 30.8L85.8561 31.934C84.8721 33.122 83.5761 33.716 81.9681 33.716ZM79.2501 28.082H84.1281C84.0561 27.35 83.8101 26.75 83.3901 26.282C82.9701 25.814 82.4121 25.58 81.7161 25.58C81.0561 25.58 80.5041 25.814 80.0601 26.282C79.6161 26.738 79.3461 27.338 79.2501 28.082ZM88.4754 33.5V23.996H90.6534V25.436C91.4454 24.344 92.4114 23.798 93.5514 23.798C94.8714 23.798 95.8134 24.356 96.3774 25.472C97.2294 24.356 98.3034 23.798 99.5994 23.798C100.643 23.798 101.459 24.116 102.047 24.752C102.635 25.388 102.929 26.282 102.929 27.434V33.5H100.751V28.1C100.751 27.344 100.583 26.768 100.247 26.372C99.9114 25.976 99.4374 25.778 98.8254 25.778C98.2134 25.778 97.7214 25.988 97.3494 26.408C96.9774 26.816 96.7914 27.392 96.7914 28.136V33.5H94.6134V28.082C94.6134 27.35 94.4454 26.786 94.1094 26.39C93.7734 25.982 93.2994 25.778 92.6874 25.778C92.0754 25.778 91.5834 25.994 91.2114 26.426C90.8394 26.846 90.6534 27.422 90.6534 28.154V33.5H88.4754ZM108.855 33.698C107.799 33.698 106.971 33.368 106.371 32.708C105.771 32.048 105.471 31.16 105.471 30.044V23.996H107.649V29.396C107.649 30.14 107.823 30.716 108.171 31.124C108.531 31.52 109.035 31.718 109.683 31.718C110.319 31.718 110.835 31.508 111.231 31.088C111.627 30.668 111.825 30.092 111.825 29.36V23.996H114.003V33.5H111.825V32.024C111.069 33.14 110.079 33.698 108.855 33.698ZM116.741 33.5V23.996H118.919V26.138C119.591 24.518 120.713 23.744 122.285 23.816V26.12H122.159C121.175 26.12 120.389 26.444 119.801 27.092C119.213 27.728 118.919 28.658 118.919 29.882V33.5H116.741ZM128.143 36.416C126.559 36.416 125.143 36.038 123.895 35.282L124.705 33.644C125.785 34.316 126.913 34.652 128.089 34.652C129.061 34.652 129.805 34.4 130.321 33.896C130.837 33.404 131.095 32.684 131.095 31.736V30.998C130.195 32.162 129.079 32.744 127.747 32.744C126.571 32.744 125.557 32.336 124.705 31.52C123.853 30.704 123.427 29.618 123.427 28.262C123.427 26.918 123.853 25.838 124.705 25.022C125.569 24.206 126.583 23.798 127.747 23.798C129.067 23.798 130.177 24.338 131.077 25.418V23.996H133.255V31.556C133.255 33.14 132.853 34.334 132.049 35.138C131.197 35.99 129.895 36.416 128.143 36.416ZM128.323 30.908C129.091 30.908 129.745 30.662 130.285 30.17C130.837 29.666 131.113 29.03 131.113 28.262C131.113 27.494 130.837 26.864 130.285 26.372C129.745 25.88 129.091 25.634 128.323 25.634C127.555 25.634 126.913 25.88 126.397 26.372C125.881 26.852 125.623 27.488 125.623 28.28C125.623 29.048 125.881 29.678 126.397 30.17C126.925 30.662 127.567 30.908 128.323 30.908ZM140.54 33.5L146.084 20.81H148.136L153.68 33.5H151.34L150.062 30.458H144.104L142.808 33.5H140.54ZM144.914 28.496H149.252L147.074 23.456L144.914 28.496ZM155.967 33.5V20.9H158.181V33.5H155.967ZM165.964 33.68C163.96 33.68 162.208 33.008 160.708 31.664L162.04 30.08C163.3 31.172 164.626 31.718 166.018 31.718C166.702 31.718 167.242 31.574 167.638 31.286C168.046 30.986 168.25 30.59 168.25 30.098C168.25 29.63 168.058 29.258 167.674 28.982C167.29 28.694 166.534 28.418 165.406 28.154C163.942 27.806 162.874 27.368 162.202 26.84C161.542 26.3 161.212 25.478 161.212 24.374C161.212 23.294 161.614 22.418 162.418 21.746C163.222 21.062 164.254 20.72 165.514 20.72C167.242 20.72 168.766 21.248 170.086 22.304L168.898 23.978C167.734 23.114 166.594 22.682 165.478 22.682C164.842 22.682 164.338 22.826 163.966 23.114C163.606 23.402 163.426 23.768 163.426 24.212C163.426 24.704 163.624 25.088 164.02 25.364C164.428 25.628 165.226 25.904 166.414 26.192C167.806 26.528 168.826 26.978 169.474 27.542C170.134 28.106 170.464 28.898 170.464 29.918C170.464 31.082 170.05 32 169.222 32.672C168.394 33.344 167.308 33.68 165.964 33.68Z" fill="green"/>
</svg>
