<svg width="50" height="50" viewBox="0 0 50 50" fill="none" xmlns="http://www.w3.org/2000/svg"><path fill-rule="evenodd" clip-rule="evenodd" d="M6.14407 16.978C5.87503 17.1333 5.70929 17.4204 5.70929 17.731V38.269C5.70929 38.5796 5.87503 38.8667 6.14407 39.022L23.9304 49.291C24.1995 49.4463 24.5309 49.4463 24.8 49.291L42.5863 39.022C42.8554 38.8667 43.0211 38.5796 43.0211 38.269V17.731C43.0211 17.4204 42.8554 17.1333 42.5863 16.978L37.692 14.1522C37.6419 14.1917 37.5762 14.2397 37.5009 14.2916C36.5812 14.9193 36.1367 15.7692 36.1977 16.7673C36.2369 17.408 36.3328 17.7262 36.5987 18.0575C38.4947 20.4373 39.5974 23.0437 40.0071 26.0991C40.1161 26.9142 40.1161 29.1371 40.0028 29.9347C39.4884 33.6962 37.9455 36.7821 35.2867 39.3711C32.8416 41.7596 29.7775 43.2372 26.3124 43.7122C25.6019 43.8081 23.8846 43.843 23.148 43.7733C21.1866 43.5989 19.2427 43.0497 17.4557 42.178C17.1375 42.0211 16.876 41.8773 16.876 41.8555C16.876 41.8337 16.9152 41.8032 16.9675 41.7901C17.0198 41.7727 17.168 41.7116 17.3031 41.6506L17.5516 41.5417L17.0983 41.3935C15.1238 40.731 12.9968 39.3057 11.4887 37.6363C10.9003 36.9825 10.8829 36.9477 11.2229 37.1264C11.589 37.3225 12.173 37.523 12.6351 37.6102C13.2365 37.7279 14.6095 37.7061 14.6095 37.5797C14.6095 37.5579 14.5441 37.5405 14.4613 37.5405C13.9165 37.5405 12.9227 37.1787 12.2907 36.7515C10.4383 35.4919 9.08279 32.7329 8.70359 29.4552L8.69468 29.3785C8.64526 28.9534 8.62209 28.7541 8.66343 28.7397C8.69991 28.727 8.78662 28.8581 8.94984 29.105L8.98254 29.1545C9.37482 29.7473 9.83683 30.2964 10.2771 30.68C10.7129 31.0636 11.5846 31.6868 11.6282 31.6433C11.6369 31.6345 11.5454 31.4994 11.419 31.3469C10.6127 30.3444 9.90657 28.9148 9.57532 27.6072C9.34431 26.6919 9.3138 26.4216 9.31816 25.3363C9.31816 24.4821 9.33559 24.2205 9.41405 23.7455C9.63198 22.4858 9.94144 21.5095 10.4732 20.4155C10.665 20.0232 10.8306 19.7137 10.8393 19.7225C10.8524 19.7312 10.8393 19.9753 10.8132 20.2586C10.6301 22.3899 11.5454 24.6433 13.1799 26.0642C13.3804 26.2342 13.546 26.3693 13.5547 26.365C13.5591 26.3563 13.4283 26.1645 13.2583 25.9422C12.7309 25.2448 12.2384 24.1377 12.0641 23.266C11.8461 22.172 11.8592 21.1913 12.1077 20.0668C12.2559 19.4043 12.4215 18.9423 12.7615 18.2362C13.3412 17.0332 14.1301 16.0133 15.1979 15.098C16.0391 14.3744 16.7452 13.9168 17.6169 13.5332C19.343 12.7705 21.1474 12.339 23.196 12.1995C23.6536 12.169 25.1181 12.2169 25.7327 12.2823C26.8005 12.4 28.4437 12.7705 29.189 13.0625L29.3634 13.1322L29.189 13.1104C28.4306 13.0189 28.1473 12.9928 27.3977 12.9623C26.478 12.923 25.092 12.9666 24.7433 13.0451C23.257 13.3763 21.8012 14.1042 20.5808 15.1285C19.7004 15.8651 18.8679 16.8894 18.3274 17.9093C18.1661 18.2144 18.1443 18.2798 18.2097 18.258C18.9812 18.0182 21.3218 17.6216 21.9668 17.6216C22.1412 17.6216 22.1455 17.578 21.9799 17.4778C21.7489 17.3427 21.3784 16.8981 21.2782 16.6322C21.1561 16.3097 21.1431 15.791 21.252 15.4205C21.3436 15.1067 21.4961 14.7449 21.5353 14.7493C21.5484 14.7493 21.6443 14.9236 21.7489 15.1372C22.0714 15.8128 22.5858 16.2181 23.4139 16.4579C23.6187 16.5189 24.2638 16.6496 24.8522 16.7499C26.1337 16.9722 27.0664 17.1945 28.0079 17.5083C29.9649 18.1664 31.5819 19.0948 31.7345 19.6484C31.7999 19.8837 31.7955 20.0319 31.7127 20.3588L31.6429 20.6421L31.8522 20.8165C31.9698 20.9124 32.2837 21.2087 32.5495 21.479C33.26 22.1982 33.3995 22.5468 33.1597 23.0481C33.0595 23.266 32.7108 23.7237 32.6498 23.7237C32.6323 23.7237 32.4536 23.6234 32.2531 23.497C31.486 23.0176 30.501 22.6079 29.5639 22.3725C28.7009 22.1546 28.1561 22.0935 27.1623 22.0935C25.9288 22.0979 25.0789 22.2374 23.9762 22.6122C23.427 22.804 22.5247 23.2355 22.0235 23.545C19.6393 25.0269 18.0223 27.4285 17.5254 30.2398C17.3903 31.0025 17.3772 32.5978 17.4993 33.33C17.8218 35.2217 18.6587 36.9128 19.9532 38.2771C21.6094 40.0249 23.8367 41.0448 26.2688 41.1712C26.7134 41.1973 26.648 41.1712 25.9201 41.0273C24.2551 40.7048 22.5465 39.7764 21.3087 38.5299C20.5546 37.7715 20.0447 37.0479 19.5565 36.0367C18.9463 34.7858 18.7197 33.8661 18.6761 32.4583C18.6456 31.5517 18.6848 31.2074 18.9071 30.3531C19.3212 28.7579 20.0665 27.4808 21.2259 26.3781C22.5204 25.1446 24.1374 24.3862 25.9419 24.1595C26.3472 24.1116 27.3933 24.1072 27.7725 24.1552L28.0122 24.1857L27.6853 24.2162C26.9008 24.299 26.0508 24.5387 25.4145 24.8613C24.9481 25.0923 24.242 25.6022 23.8585 25.9814C22.8342 26.9883 22.2066 28.2523 22.0148 29.6819C21.9538 30.1613 21.9843 31.1594 22.0845 31.652C22.5422 33.9882 24.3641 35.9147 26.6611 36.4944C28.8273 37.0436 31.0632 36.4334 32.6323 34.8599C34.1622 33.33 34.7986 31.1333 34.306 29.0455C34.2625 28.845 34.2276 28.6707 34.2407 28.662C34.2799 28.6227 34.7114 29.7734 34.8291 30.2267C35.1647 31.5212 35.1821 32.977 34.8814 34.2323C34.7811 34.6507 34.5196 35.4309 34.3889 35.6793C34.3453 35.7709 34.3104 35.858 34.3235 35.8667C34.3322 35.8755 34.4848 35.7839 34.6635 35.6619C36.6248 34.3107 38.0021 32.0617 38.5557 29.3027C38.7344 28.4092 38.7998 27.8077 38.8259 26.8183L38.8477 25.8812L38.7213 26.2517C38.5557 26.7485 38.3639 27.1016 38.0588 27.459C37.6012 28.0038 36.9343 28.4484 36.2195 28.6838C35.8621 28.8014 35.1516 28.9366 35.108 28.8973C35.1037 28.8886 35.1996 28.8102 35.326 28.723C35.57 28.553 36.0669 28.0692 36.2543 27.8208C36.821 27.0536 36.9386 26.0642 36.59 24.992C36.3633 24.2816 35.9885 23.5885 35.0862 22.2069C34.2581 20.9385 34.0533 20.3632 34.0184 19.1646C33.9922 18.3626 34.0533 17.8831 34.2668 17.2337C34.5109 16.484 34.864 15.8956 35.3957 15.3377C35.788 14.9367 36.1192 14.6883 36.6074 14.4442C36.8548 14.3205 37.3017 14.1603 37.5792 14.0871L24.8 6.70902C24.5309 6.55369 24.1995 6.55369 23.9304 6.70902L6.14407 16.978ZM27.7286 24.7568C25.4535 25.1011 23.6359 26.8881 23.2131 29.1938C23.126 29.6733 23.1172 30.5145 23.2001 30.9591L23.2567 31.286L23.2872 30.8065C23.3962 28.9193 24.7735 27.3676 26.6608 27.0058C27.1795 26.9056 28.025 26.9492 28.5263 27.0974C29.2847 27.324 29.8556 27.6771 30.4136 28.2655C31.185 29.0849 31.5511 30.0786 31.5076 31.2206C31.464 32.3538 31.0586 33.2604 30.2523 34.0363C29.7292 34.5331 29.2193 34.8339 28.5263 35.0387C28.0338 35.1869 27.1446 35.2305 26.639 35.1303C26.4603 35.0954 26.3077 35.0693 26.299 35.078C26.2729 35.0998 26.87 35.3133 27.2056 35.4005C27.9684 35.601 28.9185 35.6315 29.6682 35.4702C31.2155 35.1434 32.5362 34.1888 33.3033 32.8333C33.5605 32.38 33.7174 31.9921 33.8612 31.4429C34.0138 30.8763 34.053 29.7823 33.9397 29.1938C33.3948 26.2474 30.6751 24.3035 27.7286 24.7568Z" fill="#004646"></path></svg>